<svg width="39" height="39" viewBox="0 0 39 39" fill="none" xmlns="http://www.w3.org/2000/svg">
<circle cx="19.4173" cy="19.4173" r="19.4173" fill="#FFDC5D"/>
<g clip-path="url(#clip0)">
<path d="M19.3317 22.9491V22.8615C18.8844 22.8567 18.4566 22.8324 18.0433 22.7983C17.8197 23.3769 17.5037 23.9165 17.1099 24.3978C17.8537 24.5194 18.6073 24.5875 19.3608 24.5972L19.3317 22.9491Z" fill="white"/>
<path d="M19.3173 21.884L19.2882 20.1629C18.9867 20.1581 18.6902 20.1484 18.4082 20.1289C18.4228 20.3234 18.4325 20.513 18.4325 20.7026C18.4325 21.0818 18.3936 21.4659 18.3207 21.8402C18.6416 21.8694 18.977 21.884 19.3173 21.884Z" fill="white"/>
<path d="M24.64 13.8379C24.3045 14.0129 23.9496 14.1539 23.585 14.2609C22.4911 14.5915 21.0569 14.7713 19.5595 14.7713C18.1253 14.7713 16.7592 14.606 15.7042 14.2998C15.3396 14.2025 14.9895 14.0664 14.6541 13.8962L14.6881 15.2672C15.2375 15.4714 15.7479 15.7631 16.2098 16.1278C16.2244 16.1326 16.2341 16.1326 16.2487 16.1375C17.1821 16.3757 18.3587 16.5021 19.5595 16.5021C20.95 16.5021 22.3161 16.3271 23.303 16.0305C24.358 15.7096 24.5914 15.3742 24.5914 15.311C24.5914 15.2429 24.5865 15.1797 24.64 15.1117V13.8379Z" fill="white"/>
<path d="M23.2978 11.9081C22.3109 11.6067 20.9448 11.4365 19.5543 11.4365C18.1542 11.4365 16.8415 11.6067 15.8594 11.9081C14.8336 12.2193 14.61 12.5255 14.6051 12.6228C14.6051 12.6228 14.61 12.6228 14.61 12.6325C14.6343 12.7395 14.926 13.0701 15.9712 13.3715C16.9387 13.6535 18.2125 13.809 19.5543 13.809C20.9448 13.809 22.3061 13.6389 23.293 13.3423C24.348 13.0263 24.5862 12.6908 24.5862 12.6228C24.5862 12.5596 24.3528 12.229 23.2978 11.9081Z" fill="white"/>
<path d="M30.2208 25.3604V23.9019C29.8951 24.0672 29.5548 24.2081 29.1999 24.3151C28.1108 24.6457 26.6864 24.8256 25.1841 24.8256C23.852 24.8256 22.5539 24.6749 21.533 24.4075C21.1148 24.3005 20.7113 24.1547 20.3224 23.9651L20.3467 25.375C20.3467 25.3798 20.3467 25.3798 20.3467 25.3847C20.3467 25.4576 20.5606 25.7833 21.5864 26.0993C22.5588 26.3959 23.8714 26.5612 25.2765 26.5612C26.6766 26.5612 27.9942 26.3911 28.9762 26.0848C30.0021 25.7639 30.2257 25.4284 30.2257 25.3604H30.2208Z" fill="white"/>
<path d="M24.6305 16.5508C24.295 16.7209 23.945 16.8619 23.5804 16.9689C22.4865 17.2995 21.0523 17.4794 19.55 17.4794C18.811 17.4794 18.0769 17.4308 17.3477 17.3384C17.7415 17.8829 18.0332 18.4955 18.2179 19.1469C18.636 19.1761 19.0881 19.1956 19.5549 19.1956C19.5695 19.1956 19.5889 19.1956 19.6035 19.1956C20.4008 18.3204 22.5448 17.8829 24.6305 17.8246V16.5508Z" fill="white"/>
<path d="M29.168 21.6266C28.0838 21.9475 26.6739 22.1225 25.196 22.1225C23.7618 22.1225 22.3956 21.9572 21.3406 21.6509C20.976 21.5488 20.6211 21.4127 20.2808 21.2425L20.3002 22.3607L20.3051 22.7691C20.6843 23.2407 22.4977 23.8484 25.1911 23.8484C26.5961 23.8484 27.9234 23.6831 28.92 23.3817C29.9702 23.0608 30.1987 22.7302 30.1987 22.6622C30.1987 22.6087 30.2278 22.5503 30.2278 22.5017H30.2327V21.2134C29.8924 21.3835 29.5375 21.5294 29.168 21.6266Z" fill="white"/>
<path d="M28.9383 19.2685C27.9466 18.9671 26.5853 18.8066 25.1948 18.8066H25.1122C23.819 18.8066 22.589 18.9525 21.6458 19.2199C20.6394 19.5019 20.2942 19.8227 20.2505 19.954C20.2456 19.9637 20.2456 19.9686 20.2456 19.9735C20.2456 19.9735 20.2456 19.9735 20.2553 19.9929C20.2845 20.095 20.5713 20.4256 21.6166 20.7319C22.5841 21.009 23.8579 21.1646 25.1997 21.1646C26.5853 21.1646 27.8979 21.0041 28.8946 20.7076C29.9739 20.3867 30.217 20.0512 30.2218 19.9783V19.9735C30.217 19.9005 29.9739 19.5797 28.9383 19.2685Z" fill="white"/>
<ellipse cx="12.8004" cy="20.4845" rx="4.6638" ry="5.02255" fill="white"/>
<path d="M15.3525 20.7616L14.6347 20.7616L14.6347 20.0717L15.3525 20.0717C15.4604 20.0717 15.5478 19.9844 15.5478 19.8765C15.5478 19.7686 15.4604 19.6812 15.3525 19.6812L14.6347 19.6812L14.6347 18.7239C14.6347 18.5842 14.6071 18.4816 14.5526 18.4191C14.5009 18.3597 14.4329 18.332 14.3387 18.332C14.2488 18.332 14.1833 18.3595 14.1326 18.4186C14.0788 18.4811 14.0515 18.5839 14.0515 18.724L14.0515 19.6813L12.7012 19.6813L12.127 18.8125C12.0779 18.735 12.0317 18.6623 11.9868 18.5926C11.9464 18.5298 11.907 18.4787 11.8698 18.4406C11.8369 18.4068 11.7993 18.3806 11.7554 18.3605C11.714 18.3416 11.6613 18.3321 11.599 18.3321C11.5195 18.3321 11.4473 18.3539 11.3783 18.3986C11.3099 18.4429 11.2626 18.4976 11.2338 18.5659C11.2084 18.6308 11.195 18.7303 11.195 18.8587L11.195 19.6813L10.4843 19.6813C10.3764 19.6813 10.2891 19.7687 10.2891 19.8766C10.2891 19.9844 10.3764 20.0718 10.4843 20.0718L11.195 20.0718L11.195 20.7618L10.4843 20.7618C10.3764 20.7618 10.2891 20.8492 10.2891 20.9571C10.2891 21.0649 10.3764 21.1522 10.4843 21.1522L11.195 21.1522L11.195 22.2452C11.195 22.3808 11.2235 22.4824 11.28 22.5469C11.3336 22.6084 11.4017 22.6369 11.4941 22.6369C11.5833 22.6369 11.6508 22.6083 11.7068 22.5466C11.7641 22.4835 11.7931 22.382 11.7931 22.2452L11.7931 21.1522L13.015 21.1522L13.6762 22.1662C13.7222 22.2332 13.7697 22.3009 13.817 22.3672C13.8598 22.4268 13.9064 22.4792 13.9555 22.5231C13.9998 22.5627 14.0473 22.5918 14.0966 22.6095C14.1474 22.6278 14.2068 22.6371 14.2727 22.6371C14.4515 22.6371 14.6347 22.5823 14.6347 22.1763L14.6347 21.1522L15.3525 21.1522C15.4604 21.1522 15.5478 21.0648 15.5478 20.9569C15.5478 20.8491 15.4604 20.7616 15.3525 20.7616ZM14.0515 20.0717L14.0515 20.7616L13.4152 20.7616L12.9594 20.0717L14.0515 20.0717ZM11.7931 19.279L12.0555 19.6812L11.7931 19.6812L11.7931 19.279ZM11.7931 20.7616L11.7931 20.0717L12.3103 20.0717L12.7603 20.7616L11.7931 20.7616ZM14.0515 21.7246L13.6734 21.1522L14.0515 21.1522L14.0515 21.7246Z" fill="#FFDC5D"/>
</g>
<defs>
<clipPath id="clip0">
<rect width="22.4633" height="22.4633" fill="white" transform="translate(7.76709 7.76709)"/>
</clipPath>
</defs>
</svg>
