<svg width="39" height="39" viewBox="0 0 39 39" fill="none" xmlns="http://www.w3.org/2000/svg">
<circle cx="19.415" cy="19.415" r="19.415" fill="#135FDC"/>
<path d="M22.5298 15.3882C22.2526 15.8518 21.9349 16.2897 21.5807 16.6967C21.043 17.3222 20.4379 17.8855 19.7767 18.3763C19.7182 18.4176 19.6484 18.4397 19.577 18.4397C19.5056 18.4397 19.4358 18.4176 19.3773 18.3763C18.7161 17.8855 18.111 17.3222 17.5733 16.6967C17.2462 16.3203 16.9499 15.9178 16.6875 15.4931L11.708 17.0365L19.577 19.4758L27.4808 17.0257L22.5298 15.3882Z" fill="white"/>
<path d="M10.8721 26.249L19.2285 28.8394V20.1022L10.8721 17.5117V26.249ZM15.6443 27.0592L14.9479 26.8433L15.1527 26.1728L15.8491 26.3886L15.6443 27.0592ZM17.9382 27.0363L18.6346 27.2521L18.4297 27.9227L17.7334 27.7069L17.9382 27.0363ZM17.037 27.491L16.3406 27.2751L16.5455 26.6045L17.2418 26.8204L17.037 27.491ZM12.9612 19.6002C12.9612 19.5453 12.974 19.4912 12.9985 19.4422C13.0231 19.3932 13.0587 19.3506 13.1025 19.318C13.1463 19.2854 13.1972 19.2636 13.2509 19.2544C13.3046 19.2452 13.3597 19.2488 13.4118 19.2649L16.8936 20.3443C16.9648 20.3664 17.0271 20.4108 17.0713 20.4712C17.1155 20.5315 17.1394 20.6046 17.1394 20.6796V22.4335C17.1394 22.4884 17.1266 22.5426 17.1021 22.5916C17.0775 22.6406 17.0419 22.6831 16.9981 22.7157C16.9543 22.7483 16.9034 22.7701 16.8497 22.7794C16.796 22.7886 16.7409 22.785 16.6888 22.7688L13.207 21.6895C13.1358 21.6674 13.0735 21.6229 13.0293 21.5626C12.9851 21.5022 12.9612 21.4292 12.9612 21.3542V19.6002Z" fill="white"/>
<path d="M16.4447 20.9386L13.6592 20.0752V21.0951L16.4447 21.9585V20.9386Z" fill="white"/>
<path d="M22.71 21.9585L25.4954 21.0951V20.0752L22.71 20.9386V21.9585Z" fill="white"/>
<path d="M19.9258 20.1022V28.8394L28.2822 26.249V17.5117L19.9258 20.1022ZM22.3631 22.7843C22.2707 22.7843 22.1822 22.7474 22.1169 22.6816C22.0516 22.6158 22.0149 22.5266 22.0149 22.4335V20.6796C22.0149 20.6046 22.0388 20.5315 22.083 20.4712C22.1272 20.4108 22.1895 20.3664 22.2607 20.3443L25.7425 19.2649C25.7946 19.2488 25.8497 19.2452 25.9034 19.2544C25.9572 19.2636 26.008 19.2854 26.0518 19.318C26.0956 19.3506 26.1313 19.3932 26.1558 19.4422C26.1803 19.4912 26.1931 19.5453 26.1931 19.6002V21.3542C26.1931 21.4292 26.1693 21.5022 26.125 21.5626C26.0808 21.6229 26.0185 21.6674 25.9473 21.6895L22.4655 22.7688C22.4323 22.7791 22.3978 22.7843 22.3631 22.7843ZM24.2064 26.8433L24.0016 26.1728L24.698 25.9569L24.9028 26.6275L24.2064 26.8433ZM25.5992 26.4117L25.3943 25.7411L26.0907 25.5252L26.2955 26.1957L25.5992 26.4117ZM26.9919 25.9799L26.7871 25.3093L27.4835 25.0934L27.6883 25.764L26.9919 25.9799Z" fill="white"/>
<path d="M19.5765 17.6498C20.2954 17.0817 22.7102 14.9864 22.7102 12.4764C22.7102 11.6391 22.3801 10.8361 21.7924 10.244C21.2047 9.65196 20.4076 9.31934 19.5765 9.31934C18.7454 9.31934 17.9484 9.65196 17.3607 10.244C16.773 10.8361 16.4429 11.6391 16.4429 12.4764C16.4429 14.9912 18.8566 17.0824 19.5765 17.6498ZM17.4874 12.4764C17.4874 12.0602 17.61 11.6532 17.8395 11.3071C18.0691 10.961 18.3953 10.6912 18.7771 10.5319C19.1588 10.3726 19.5789 10.3309 19.9841 10.4121C20.3894 10.4934 20.7616 10.6938 21.0538 10.9882C21.3459 11.2825 21.5449 11.6576 21.6255 12.0658C21.7061 12.4741 21.6648 12.8973 21.5066 13.2819C21.3485 13.6665 21.0807 13.9952 20.7372 14.2265C20.3936 14.4577 19.9897 14.5812 19.5765 14.5812C19.0227 14.5806 18.4917 14.3586 18.1 13.964C17.7084 13.5694 17.4881 13.0345 17.4874 12.4764Z" fill="white"/>
<path d="M19.5773 13.8796C20.3465 13.8796 20.9701 13.2513 20.9701 12.4764C20.9701 11.7015 20.3465 11.0732 19.5773 11.0732C18.8081 11.0732 18.1846 11.7015 18.1846 12.4764C18.1846 13.2513 18.8081 13.8796 19.5773 13.8796Z" fill="white"/>
</svg>
