<svg width="32" height="31" viewBox="0 0 32 31" fill="none" xmlns="http://www.w3.org/2000/svg">
<rect width="32" height="31" rx="10" fill="white"/>
<path d="M23.502 13.6738H22.7454C22.5681 12.9662 22.2898 12.2944 21.9145 11.6681L22.4495 11.1331C22.6441 10.9386 22.6441 10.6232 22.4495 10.4287L20.5713 8.55045C20.3768 8.35595 20.0614 8.35595 19.8669 8.55045L19.3319 9.08552C18.7057 8.71019 18.0338 8.43185 17.3262 8.25458V7.49805C17.3262 7.22299 17.1032 7 16.8281 7H14.1719C13.8968 7 13.6738 7.22299 13.6738 7.49805V8.25458C12.9662 8.43182 12.2943 8.71019 11.6681 9.08552L11.1331 8.55045C10.9386 8.35595 10.6232 8.35595 10.4287 8.55045L8.55049 10.4287C8.35598 10.6232 8.35598 10.9386 8.55049 11.1331L9.08552 11.6681C8.71019 12.2943 8.43185 12.9662 8.25458 13.6738H7.49805C7.22299 13.6738 7 13.8968 7 14.1719V16.8281C7 17.1032 7.22299 17.3262 7.49805 17.3262H8.25458C8.43185 18.0338 8.71019 18.7057 9.08552 19.3319L8.55045 19.8669C8.35595 20.0614 8.35595 20.3768 8.55045 20.5713L10.4287 22.4495C10.6232 22.644 10.9386 22.644 11.1331 22.4495L11.6681 21.9144C12.2943 22.2897 12.9663 22.5681 13.6738 22.7454V23.502C13.6738 23.777 13.8968 24 14.1719 24H16.8281C17.1032 24 17.3262 23.777 17.3262 23.502V22.7454C18.0337 22.5681 18.7057 22.2898 19.3319 21.9145L19.8669 22.4495C20.0614 22.644 20.3768 22.644 20.5713 22.4495L22.4495 20.5713C22.6441 20.3768 22.6441 20.0614 22.4495 19.8669L21.9145 19.3319C22.2898 18.7056 22.5681 18.0338 22.7454 17.3262H23.502C23.777 17.3262 24 17.1032 24 16.8281V14.1719C24 13.8968 23.777 13.6738 23.502 13.6738ZM15.5 20.6465C12.6622 20.6465 10.3535 18.3378 10.3535 15.5C10.3535 12.6622 12.6622 10.3535 15.5 10.3535C18.3378 10.3535 20.6465 12.6622 20.6465 15.5C20.6465 18.3378 18.3378 20.6465 15.5 20.6465Z" fill="#FF7B0D"/>
<path d="M15.5 15.998C16.1418 15.998 16.6621 15.4778 16.6621 14.8359C16.6621 14.1941 16.1418 13.6738 15.5 13.6738C14.8582 13.6738 14.3379 14.1941 14.3379 14.8359C14.3379 15.4778 14.8582 15.998 15.5 15.998Z" fill="#FF7B0D"/>
<path d="M15.4997 16.9941C14.3455 16.9941 13.4001 17.9049 13.3442 19.0456C13.9729 19.4292 14.7109 19.6504 15.4997 19.6504C16.2885 19.6504 17.0266 19.4292 17.6552 19.0456C17.5994 17.9049 16.654 16.9941 15.4997 16.9941Z" fill="#FF7B0D"/>
<path d="M15.5 11.3496C13.2115 11.3496 11.3496 13.2115 11.3496 15.5C11.3496 16.5877 11.7704 17.5788 12.4575 18.3197C12.6862 17.4847 13.2501 16.7869 13.9951 16.3808C13.5925 15.9885 13.3418 15.4411 13.3418 14.8359C13.3418 13.6459 14.31 12.6777 15.5 12.6777C16.69 12.6777 17.6582 13.6459 17.6582 14.8359C17.6582 15.4411 17.4075 15.9885 17.0049 16.3808C17.7499 16.7869 18.3138 17.4847 18.5425 18.3196C19.2296 17.5788 19.6504 16.5877 19.6504 15.5C19.6504 13.2115 17.7885 11.3496 15.5 11.3496Z" fill="#FF7B0D"/>
</svg>
