<svg width="14" height="16" viewBox="0 0 14 16" fill="none" xmlns="http://www.w3.org/2000/svg">
<path d="M13.4961 3.57629L13.1428 2.51733C13.0083 2.11401 12.6322 1.84302 12.2072 1.84302H9.23805V0.876343C9.23805 0.393188 8.84523 0 8.3622 0H5.64321C5.1603 0 4.76735 0.393188 4.76735 0.876343V1.84302H1.79836C1.37319 1.84302 0.997087 2.11401 0.862566 2.51733L0.509295 3.57629C0.42885 3.81738 0.469622 4.08435 0.618181 4.29053C0.766741 4.4967 1.0071 4.61987 1.26125 4.61987H1.63051L2.44325 14.67C2.50368 15.4158 3.13649 16 3.88417 16H10.2861C11.0337 16 11.6666 15.4158 11.7269 14.6699L12.5397 4.61987H12.7442C12.9983 4.61987 13.2387 4.4967 13.3872 4.29065C13.5358 4.08447 13.5766 3.81738 13.4961 3.57629ZM5.70485 0.9375H8.30055V1.84302H5.70485V0.9375ZM10.7925 14.5944C10.7713 14.8569 10.5488 15.0625 10.2861 15.0625H3.88417C3.62148 15.0625 3.39907 14.8569 3.37782 14.5944L2.57106 4.61987H11.5991L10.7925 14.5944ZM1.4623 3.68237L1.75197 2.81396C1.75856 2.79395 1.77724 2.78052 1.79836 2.78052H12.2072C12.2283 2.78052 12.2468 2.79395 12.2536 2.81396L12.5432 3.68237H1.4623Z" fill="white" fill-opacity="0.8"/>
</svg>
