<svg width="10" height="10" viewBox="0 0 10 10" fill="none" xmlns="http://www.w3.org/2000/svg">
<path d="M8.29273 1.08322H7.99147V0.75452C7.99147 0.338299 7.66305 0 7.2589 0C6.85448 0 6.52633 0.338299 6.52633 0.75452V1.08294H5.77455V0.75452C5.77455 0.338299 5.44613 0 5.04198 0C4.63783 0 4.30941 0.338299 4.30941 0.75452V1.08294H3.55763V0.75452C3.55763 0.338299 3.22921 0 2.82506 0C2.42092 0 2.09249 0.338299 2.09249 0.75452V1.08294H1.70782C1.06497 1.08294 0.541748 1.60617 0.541748 2.24902V8.83392C0.541748 9.47678 1.06497 10 1.70782 10H8.29273C8.93585 10 9.45881 9.47678 9.45881 8.83392V2.24902C9.45881 1.60644 8.93558 1.08322 8.29273 1.08322ZM6.93789 0.75452C6.93789 0.565479 7.08193 0.411557 7.2589 0.411557C7.43614 0.411557 7.57991 0.565479 7.57991 0.75452V2.09784C7.57991 2.28688 7.43614 2.4408 7.2589 2.4408C7.08193 2.4408 6.93789 2.28688 6.93789 2.09784V0.75452ZM4.72097 0.75452C4.72097 0.565479 4.86501 0.411557 5.04198 0.411557C5.21895 0.411557 5.363 0.565479 5.363 0.75452V2.09784C5.363 2.28688 5.21895 2.4408 5.04198 2.4408C4.86501 2.4408 4.72097 2.28688 4.72097 2.09784V0.75452ZM2.50378 0.75452C2.50378 0.565479 2.64782 0.411557 2.82479 0.411557C3.00176 0.411557 3.1458 0.565479 3.1458 0.75452V2.09784C3.1458 2.28688 3.00176 2.4408 2.82479 2.4408C2.64782 2.4408 2.50378 2.28688 2.50378 2.09784V0.75452ZM8.77288 8.8342C8.77288 9.09897 8.5575 9.31435 8.29273 9.31435H1.70782C1.44306 9.31435 1.22768 9.09897 1.22768 8.8342V2.79804H8.77288V8.8342Z" fill="white" fill-opacity="0.8"/>
<path d="M3.10595 4.0127H1.84521V5.1346H3.10595V4.0127Z" fill="white" fill-opacity="0.8"/>
<path d="M4.7886 4.0127H3.52759V5.1346H4.7886V4.0127Z" fill="white" fill-opacity="0.8"/>
<path d="M6.47265 4.0127H5.21191V5.1346H6.47265V4.0127Z" fill="white" fill-opacity="0.8"/>
<path d="M8.15554 4.0127H6.89453V5.1346H8.15554V4.0127Z" fill="white" fill-opacity="0.8"/>
<path d="M3.10595 5.51025H1.84521V6.63133H3.10595V5.51025Z" fill="white" fill-opacity="0.8"/>
<path d="M4.7886 5.51025H3.52759V6.63133H4.7886V5.51025Z" fill="white" fill-opacity="0.8"/>
<path d="M6.47265 5.51025H5.21191V6.63133H6.47265V5.51025Z" fill="white" fill-opacity="0.8"/>
<path d="M8.15554 5.51025H6.89453V6.63133H8.15554V5.51025Z" fill="white" fill-opacity="0.8"/>
<path d="M3.10595 7.00732H1.84521V8.1284H3.10595V7.00732Z" fill="white" fill-opacity="0.8"/>
<path d="M4.7886 7.00732H3.52759V8.1284H4.7886V7.00732Z" fill="white" fill-opacity="0.8"/>
<path d="M6.47265 7.00732H5.21191V8.1284H6.47265V7.00732Z" fill="white" fill-opacity="0.8"/>
<path d="M8.15554 7.00732H6.89453V8.1284H8.15554V7.00732Z" fill="white" fill-opacity="0.8"/>
</svg>
