<svg width="25" height="25" viewBox="0 0 25 25" fill="none" xmlns="http://www.w3.org/2000/svg">
<path d="M9.63535 0H1.82285C0.81768 0 0 0.81768 0 1.82285V6.51035C0 7.51572 0.81768 8.3334 1.82285 8.3334H9.63535C10.6407 8.3334 11.4584 7.51572 11.4584 6.51035V1.82285C11.4584 0.81768 10.6407 0 9.63535 0Z" fill="#FF7B0D"/>
<path d="M9.63535 10.4165H1.82285C0.81768 10.4165 0 11.2342 0 12.2395V23.177C0 24.1822 0.81768 24.9999 1.82285 24.9999H9.63535C10.6407 24.9999 11.4584 24.1822 11.4584 23.177V12.2395C11.4584 11.2342 10.6407 10.4165 9.63535 10.4165Z" fill="#FF7B0D"/>
<path d="M23.177 16.6665H15.3645C14.3592 16.6665 13.5415 17.4842 13.5415 18.4895V23.177C13.5415 24.1822 14.3592 24.9999 15.3645 24.9999H23.177C24.1822 24.9999 24.9999 24.1822 24.9999 23.177V18.4895C24.9999 17.4842 24.1822 16.6665 23.177 16.6665Z" fill="#FF7B0D"/>
<path d="M23.177 0H15.3645C14.3592 0 13.5415 0.81768 13.5415 1.82285V12.7604C13.5415 13.7657 14.3592 14.5834 15.3645 14.5834H23.177C24.1822 14.5834 24.9999 13.7657 24.9999 12.7604V1.82285C24.9999 0.81768 24.1822 0 23.177 0V0Z" fill="#FF7B0D"/>
</svg>
