<svg width="25" height="29" viewBox="0 0 25 29" fill="none" xmlns="http://www.w3.org/2000/svg">
<path d="M17.5346 1.8125H15.3476C14.9327 0.757625 13.813 0 12.4999 0C11.1869 0 10.0671 0.757625 9.65027 1.8125H7.4652C6.90936 1.8125 6.45825 2.2185 6.45825 2.71875V6.34375C6.45825 6.844 6.90936 7.25 7.4652 7.25H17.5346C18.0905 7.25 18.5416 6.844 18.5416 6.34375V2.71875C18.5416 2.2185 18.0905 1.8125 17.5346 1.8125Z" fill="white" fill-opacity="0.8"/>
<path d="M22.5695 3.625H20.5556V6.34375C20.5556 7.84269 19.2003 9.0625 17.5348 9.0625H7.46536C5.79987 9.0625 4.44453 7.84269 4.44453 6.34375V3.625H2.43064C1.32098 3.625 0.416748 4.43881 0.416748 5.4375V27.1875C0.416748 28.2043 1.30085 29 2.43064 29H22.5695C23.6993 29 24.5834 28.2043 24.5834 27.1875V5.4375C24.5834 4.42069 23.6993 3.625 22.5695 3.625ZM12.2061 19.6729L8.17828 23.2979C7.98091 23.4737 7.72314 23.5625 7.46536 23.5625C7.20758 23.5625 6.9498 23.4737 6.75244 23.2979L4.73855 21.4854C4.34584 21.1319 4.34584 20.5574 4.73855 20.2039C5.13126 19.8505 5.76966 19.8505 6.16237 20.2039L7.46536 21.3748L10.7802 18.3914C11.1729 18.038 11.8113 18.038 12.204 18.3914C12.5967 18.7449 12.5988 19.3176 12.2061 19.6729ZM12.2061 12.4229L8.17828 16.0479C7.98091 16.2237 7.72314 16.3125 7.46536 16.3125C7.20758 16.3125 6.9498 16.2237 6.75244 16.0479L4.73855 14.2354C4.34584 13.8819 4.34584 13.3074 4.73855 12.9539C5.13126 12.6005 5.76966 12.6005 6.16237 12.9539L7.46536 14.1248L10.7802 11.1414C11.1729 10.788 11.8113 10.788 12.204 11.1414C12.5967 11.4949 12.5988 12.0676 12.2061 12.4229ZM19.5487 21.75H15.5209C14.9651 21.75 14.514 21.344 14.514 20.8438C14.514 20.3435 14.9651 19.9375 15.5209 19.9375H19.5487C20.1045 19.9375 20.5556 20.3435 20.5556 20.8438C20.5556 21.344 20.1045 21.75 19.5487 21.75ZM19.5487 14.5H15.5209C14.9651 14.5 14.514 14.094 14.514 13.5938C14.514 13.0935 14.9651 12.6875 15.5209 12.6875H19.5487C20.1045 12.6875 20.5556 13.0935 20.5556 13.5938C20.5556 14.094 20.1045 14.5 19.5487 14.5Z" fill="white" fill-opacity="0.8"/>
</svg>
