<svg width="25" height="25" viewBox="0 0 25 25" fill="none" xmlns="http://www.w3.org/2000/svg">
<path d="M24.2676 9.81445H23.155C22.8943 8.77383 22.485 7.78584 21.9331 6.86489L22.7199 6.07803C23.006 5.79199 23.006 5.32827 22.7199 5.04224L19.9578 2.28008C19.6717 1.99404 19.208 1.99404 18.922 2.28008L18.1351 3.06694C17.2143 2.51499 16.2261 2.10566 15.1855 1.84497V0.732422C15.1855 0.32793 14.8576 0 14.4531 0H10.5469C10.1424 0 9.81445 0.32793 9.81445 0.732422V1.84497C8.77388 2.10562 7.78574 2.51499 6.86489 3.06694L6.07803 2.28008C5.79199 1.99404 5.32827 1.99404 5.04224 2.28008L2.28013 5.04224C1.99409 5.32827 1.99409 5.79199 2.28013 6.07803L3.06694 6.86489C2.51499 7.78579 2.10566 8.77378 1.84497 9.81445H0.732422C0.32793 9.81445 0 10.1424 0 10.5469V14.4531C0 14.8576 0.32793 15.1855 0.732422 15.1855H1.84497C2.10566 16.2262 2.51499 17.2142 3.06694 18.1351L2.28008 18.922C1.99404 19.208 1.99404 19.6717 2.28008 19.9578L5.04224 22.7199C5.32827 23.0059 5.79199 23.0059 6.07803 22.7199L6.86489 21.933C7.78579 22.4849 8.77393 22.8943 9.81445 23.1549V24.2676C9.81445 24.6721 10.1424 25 10.5469 25H14.4531C14.8576 25 15.1855 24.6721 15.1855 24.2676V23.155C16.2261 22.8943 17.2142 22.485 18.1351 21.9331L18.922 22.7199C19.208 23.0059 19.6717 23.0059 19.9578 22.7199L22.7199 19.9578C23.006 19.6717 23.006 19.208 22.7199 18.922L21.9331 18.1351C22.485 17.2142 22.8943 16.2262 23.155 15.1855H24.2676C24.6721 15.1855 25 14.8576 25 14.4531V10.5469C25 10.1424 24.6721 9.81445 24.2676 9.81445ZM12.5 20.0684C8.32681 20.0684 4.93164 16.6732 4.93164 12.5C4.93164 8.32681 8.32681 4.93164 12.5 4.93164C16.6732 4.93164 20.0684 8.32681 20.0684 12.5C20.0684 16.6732 16.6732 20.0684 12.5 20.0684Z" fill="white" fill-opacity="0.8"/>
<path d="M12.5 13.2324C13.4438 13.2324 14.209 12.4673 14.209 11.5234C14.209 10.5796 13.4438 9.81445 12.5 9.81445C11.5562 9.81445 10.791 10.5796 10.791 11.5234C10.791 12.4673 11.5562 13.2324 12.5 13.2324Z" fill="white" fill-opacity="0.8"/>
<path d="M12.4999 14.6973C10.8025 14.6973 9.41221 16.0367 9.33008 17.7141C10.2545 18.2782 11.3399 18.6035 12.4999 18.6035C13.6599 18.6035 14.7453 18.2782 15.6697 17.7141C15.5876 16.0367 14.1973 14.6973 12.4999 14.6973Z" fill="white" fill-opacity="0.8"/>
<path d="M12.5 6.39648C9.13452 6.39648 6.39648 9.13452 6.39648 12.5C6.39648 14.0996 7.01528 15.5571 8.02568 16.6466C8.36211 15.4187 9.19136 14.3925 10.2869 13.7953C9.69482 13.2184 9.32617 12.4134 9.32617 11.5234C9.32617 9.77339 10.75 8.34961 12.5 8.34961C14.25 8.34961 15.6738 9.77339 15.6738 11.5234C15.6738 12.4134 15.3052 13.2184 14.7131 13.7953C15.8086 14.3925 16.6379 15.4187 16.9743 16.6465C17.9847 15.5571 18.6035 14.0996 18.6035 12.5C18.6035 9.13452 15.8655 6.39648 12.5 6.39648Z" fill="white" fill-opacity="0.8"/>
</svg>
