<svg width="26" height="21" viewBox="0 0 26 21" fill="none" xmlns="http://www.w3.org/2000/svg">
<path d="M23.6394 1.47222C23.1329 0.478452 22.4629 -0.1318 21.3755 0.761581C20.5058 1.47786 19.6519 1.59067 18.5577 1.17669C17.3383 0.716461 15.9599 0.792037 14.965 1.68091C14.1822 2.38478 13.4963 2.28777 12.7767 1.92004C11.6814 1.35942 10.638 0.830389 9.42198 1.57713C9.06215 1.79822 8.8106 1.57826 8.52409 1.3425C6.80726 -0.0742714 4.86935 -0.392369 3.54845 0.4965C2.41255 1.26016 1.41652 4.43324 2.03129 5.83986C2.44188 6.78175 2.17229 7.70784 1.7177 8.23575C0.233245 9.95821 -0.384902 11.798 0.255805 14.0258C-0.531543 15.8814 0.633687 15.9163 1.91736 15.7505C3.61726 15.5351 4.63021 16.4206 5.37131 17.7866C6.82757 20.4769 6.83321 20.5164 9.65548 19.7956C10.118 19.6782 10.5489 19.6997 10.9899 19.6512C11.9701 19.5451 12.7519 19.0296 12.8556 18.1317C13.0169 16.7545 13.9306 15.9773 14.8217 15.2204C15.5324 14.6191 16.5126 14.0235 17.2943 15.2328C17.8482 16.0934 18.1832 15.6118 18.5295 15.0997C19.556 13.5712 20.0038 11.7529 21.204 10.2741C22.4629 8.72305 22.3298 6.24933 24.5452 5.22172C25.0528 4.98709 25.1644 3.87375 24.7403 3.51504C24.0488 2.93074 23.9868 2.15692 23.6394 1.47222Z" fill="white" fill-opacity="0.8"/>
</svg>
