<svg width="32" height="31" viewBox="0 0 32 31" fill="none" xmlns="http://www.w3.org/2000/svg">
<rect width="32" height="31" rx="10" fill="white"/>
<path d="M21.7444 16.2891C21.314 16.2891 20.8498 16.3939 20.4561 16.5721L19.9779 15.8591C20.6578 15.4656 21.4419 15.2409 22.2684 15.2409C22.5581 15.2409 22.7925 15.0065 22.7925 14.7168V13.6686C22.7925 11.646 21.1466 10 19.1239 10H18.0757C17.7861 10 17.5516 10.2344 17.5516 10.5241C17.5516 10.8138 17.7861 11.0482 18.0757 11.0482H18.5998V12.0964H17.0276C16.8525 12.0964 16.6888 12.1839 16.5915 12.3297L16.0483 13.1445H11.6477L11.3846 12.7499C11.1119 12.3405 10.6553 12.0964 10.164 12.0964H7.52409C7.23441 12.0964 7 12.3308 7 12.6204C7 13.967 8.02106 15.0797 9.32922 15.225L10.0454 16.2991C8.35826 16.3529 7 17.7336 7 19.4336C7 21.1676 8.41053 22.5781 10.1445 22.5781C11.4856 22.5781 12.663 21.717 13.1016 20.4818H16.2542C16.9513 20.4818 17.5568 19.9853 17.6929 19.302L17.7671 18.931C17.9601 17.9664 18.4619 17.1324 19.1431 16.4951L19.5871 17.1572C18.9512 17.76 18.5998 18.5933 18.5998 19.4336C18.5998 21.1256 20.0224 22.5781 21.7444 22.5781C23.4784 22.5781 24.8889 21.1676 24.8889 19.4336C24.8889 17.6996 23.4784 16.2891 21.7444 16.2891ZM10.1445 20.4783H11.9563C11.5888 21.1097 10.906 21.5299 10.1445 21.5299C8.98836 21.5299 8.04818 20.5898 8.04818 19.4336C8.04818 18.2774 8.98836 17.3372 10.1445 17.3372C10.3775 17.3372 10.6016 17.3834 10.8176 17.4571L11.0008 17.7318C11.2736 18.1413 11.7301 18.3854 12.2214 18.3854H10.1445C9.56562 18.3854 9.09635 18.8547 9.09635 19.4336C9.09635 20.0125 9.56562 20.4783 10.1445 20.4783ZM21.7444 21.5299C20.6088 21.5299 19.648 20.5762 19.648 19.4336C19.648 18.9492 19.8177 18.4659 20.186 18.0502L21.3093 19.7253C21.4687 19.9641 21.7951 20.0311 22.0361 19.8687C22.2766 19.7074 22.3406 19.3819 22.1794 19.1419L21.0557 17.4664C21.3086 17.3779 21.4775 17.3372 21.7444 17.3372C22.9005 17.3372 23.8407 18.2774 23.8407 19.4336C23.8407 20.5898 22.9005 21.5299 21.7444 21.5299Z" fill="#FF7B0D"/>
</svg>
