<svg width="25" height="18" viewBox="0 0 25 18" fill="none" xmlns="http://www.w3.org/2000/svg">
<path d="M20.6055 8.78906C20.004 8.78906 19.3553 8.9356 18.8051 9.18462L18.1369 8.18818C19.087 7.63823 20.1828 7.32422 21.3379 7.32422C21.7427 7.32422 22.0703 6.99663 22.0703 6.5918V5.12695C22.0703 2.30024 19.7701 0 16.9434 0H15.4785C15.0737 0 14.7461 0.327588 14.7461 0.732422C14.7461 1.13726 15.0737 1.46484 15.4785 1.46484H16.2109V2.92969H14.0137C13.769 2.92969 13.5402 3.052 13.4043 3.25586L12.6451 4.39453H6.49521L6.12759 3.84307C5.74639 3.27085 5.10835 2.92969 4.42173 2.92969H0.732422C0.327588 2.92969 0 3.25728 0 3.66211C0 5.54395 1.42695 7.09893 3.25513 7.30205L4.25605 8.80312C1.89819 8.87827 0 10.8078 0 13.1836C0 15.6069 1.97124 17.5781 4.39453 17.5781C6.2687 17.5781 7.91411 16.3747 8.5271 14.6484H12.9329C13.9071 14.6484 14.7532 13.9546 14.9435 12.9998L15.0472 12.4812C15.3169 11.1331 16.0182 9.96763 16.9702 9.07705L17.5907 10.0023C16.7021 10.8447 16.2109 12.0093 16.2109 13.1836C16.2109 15.5481 18.199 17.5781 20.6055 17.5781C23.0288 17.5781 25 15.6069 25 13.1836C25 10.7603 23.0288 8.78906 20.6055 8.78906ZM4.39453 14.6436H6.92651C6.41289 15.526 5.45864 16.1133 4.39453 16.1133C2.77876 16.1133 1.46484 14.7994 1.46484 13.1836C1.46484 11.5678 2.77876 10.2539 4.39453 10.2539C4.72007 10.2539 5.03325 10.3184 5.33521 10.4214L5.59116 10.8054C5.97236 11.3776 6.6104 11.7188 7.29702 11.7188H4.39453C3.5855 11.7188 2.92969 12.3746 2.92969 13.1836C2.92969 13.9926 3.5855 14.6436 4.39453 14.6436ZM20.6055 16.1133C19.0185 16.1133 17.6758 14.7804 17.6758 13.1836C17.6758 12.5066 17.9129 11.8312 18.4276 11.2503L19.9975 13.5913C20.2203 13.925 20.6764 14.0187 21.0131 13.7916C21.3493 13.5663 21.4387 13.1114 21.2134 12.7759L19.6431 10.4344C19.9965 10.3107 20.2326 10.2539 20.6055 10.2539C22.2212 10.2539 23.5352 11.5678 23.5352 13.1836C23.5352 14.7994 22.2212 16.1133 20.6055 16.1133Z" fill="white" fill-opacity="0.8"/>
</svg>
