<svg width="25" height="25" viewBox="0 0 25 25" fill="none" xmlns="http://www.w3.org/2000/svg">
<g clip-path="url(#clip0)">
<path d="M15.6248 13.542C15.0488 13.542 14.5832 14.0087 14.5832 14.5835V18.7503C14.5832 19.3242 14.1165 19.7919 13.5415 19.7919H10.4165V4.16705C10.4165 3.27747 9.84983 2.48269 8.99782 2.18686L8.68941 2.08367H13.5415C14.1165 2.08367 14.5832 2.55135 14.5832 3.12546V6.25042C14.5832 6.82529 15.0488 7.29202 15.6248 7.29202C16.2008 7.29202 16.6664 6.82529 16.6664 6.25042V3.12546C16.6664 1.40257 15.2644 0.000488281 13.5415 0.000488281H2.34373C2.30405 0.000488281 2.27087 0.0182265 2.23234 0.0233762C2.18217 0.0191801 2.1343 0.000488281 2.08338 0.000488281C0.9344 0.000488281 0 0.934698 0 2.08367V20.8335C0 21.7231 0.566667 22.5178 1.41867 22.8137L7.68749 24.9033C7.89996 24.9689 8.1113 25.0002 8.33331 25.0002C9.48228 25.0002 10.4165 24.0658 10.4165 22.9169V21.8753H13.5415C15.2644 21.8753 16.6664 20.4732 16.6664 18.7503V14.5835C16.6664 14.0087 16.2008 13.542 15.6248 13.542Z" fill="white"/>
<path d="M24.6946 9.68054L20.5279 5.51398C20.2301 5.21606 19.7821 5.12642 19.3926 5.28778C19.0041 5.44933 18.7498 5.82946 18.7498 6.2504V9.37537H14.5833C14.0082 9.37537 13.5415 9.8419 13.5415 10.417C13.5415 10.992 14.0082 11.4586 14.5833 11.4586H18.7498V14.5835C18.7498 15.0045 19.0041 15.3846 19.3926 15.5462C19.7821 15.7075 20.2301 15.6179 20.5279 15.3201L24.6946 11.1534C25.1018 10.7462 25.1018 10.0878 24.6946 9.68054Z" fill="white"/>
</g>
<defs>
<clipPath id="clip0">
<rect width="25" height="25" fill="white"/>
</clipPath>
</defs>
</svg>
