<svg width="14" height="14" viewBox="0 0 14 14" fill="none" xmlns="http://www.w3.org/2000/svg">
<path fill-rule="evenodd" clip-rule="evenodd" d="M1.43554 0H12.0552C12.8483 0 13.4907 0.654035 13.4907 1.4615V2.4825C13.4907 2.87422 13.3359 3.25038 13.0608 3.52472L8.67296 7.91135C8.59726 7.98771 8.49447 8.03013 8.38821 8.02943L4.71429 8.01811C4.60247 8.01811 4.49621 7.97074 4.41982 7.88801L0.387533 3.50492C0.138206 3.23411 0 2.87634 0 2.50513V1.46221C0 0.654742 0.642416 0 1.43554 0ZM4.91065 9.21608L8.18523 9.22598C8.38941 9.22669 8.55471 9.39568 8.55471 9.60285V11.4235C8.55471 11.6314 8.43525 11.8195 8.24913 11.9065L5.27665 13.286C5.2072 13.3178 5.13358 13.3333 5.05997 13.3333C4.96204 13.3333 4.86412 13.305 4.77869 13.2492C4.62937 13.1516 4.53909 12.9833 4.53909 12.803V9.59295C4.53909 9.38437 4.70577 9.21538 4.91065 9.21608Z" fill="#FF7B0D"/>
</svg>
