<svg width="144" height="214" viewBox="0 0 144 214" fill="none" xmlns="http://www.w3.org/2000/svg">
<path d="M143.358 20.0455C143.504 20.4414 143.499 20.7431 143.392 21.0827C143.177 21.7618 142.563 21.9887 141.958 21.612C137.376 18.6549 132.686 16.0374 128.04 13.8536C127.484 13.6089 127.04 12.7228 127.153 12.0814C127.265 11.4401 127.933 11.0435 128.489 11.2883C133.286 13.5662 138.127 16.2779 142.709 19.235C143.012 19.4233 143.212 19.6495 143.358 20.0455ZM116.954 7.14885C117.051 7.41281 117.149 7.67676 116.993 7.88436C116.929 8.65768 116.363 9.01649 115.705 8.8096C110.898 7.13517 106.032 5.93234 101.162 5.03122C100.552 4.9563 100.055 4.24007 100.016 3.50456C99.9775 2.76906 100.494 2.27822 101.104 2.35315C106.077 3.21645 110.991 4.5513 115.949 6.3199C116.408 6.30065 116.759 6.62093 116.954 7.14885ZM89.7144 1.75936C89.7631 1.89135 89.8118 2.02331 89.7582 2.1931C89.797 2.92861 89.4312 3.51363 88.7194 3.47652C83.8389 3.17894 79.051 3.44707 74.4629 3.94136C73.9022 3.99841 73.2489 3.48973 73.0589 2.66004C72.9177 1.96235 73.2347 1.24542 73.8978 1.15055C78.6907 0.580655 83.5274 0.444456 88.5103 0.704231C89.1197 0.779145 89.5195 1.23145 89.7144 1.75936ZM63.4584 4.70518C63.7507 5.49705 63.4337 6.21399 62.8193 6.44084C60.9274 6.9894 59.0356 7.53797 57.2948 8.1807C54.7349 9.1259 52.2237 10.203 49.7613 11.4122C49.1469 11.6391 48.5424 11.2624 48.1964 10.6403C47.904 9.84847 48.1186 9.16928 48.5819 8.84824C51.0443 7.63909 53.6579 6.52412 56.3202 5.54112C58.1633 4.86058 60.0552 4.31202 61.9471 3.76346C62.5615 3.53661 63.166 3.9133 63.4584 4.70518ZM40.0139 16.2111C40.2576 16.871 40.1453 17.5123 39.682 17.8333C35.9224 20.5713 32.2552 23.8749 28.939 27.4989C28.5245 27.9519 27.8127 27.9147 27.3155 27.1985C26.867 26.6142 26.7795 25.7467 27.2964 25.2559C30.7149 21.5941 34.3821 18.2905 38.1954 15.3828C38.6587 15.0618 39.4193 15.2309 39.814 15.9849C39.9164 15.9471 39.9652 16.0791 40.0139 16.2111ZM21.2192 35.8983C21.4142 36.4262 21.3555 36.8977 21.1458 37.2751C18.3805 41.4455 15.7126 45.8799 13.4981 50.5968C13.2348 51.144 12.4692 51.2767 11.9671 50.8622C11.465 50.4477 11.2263 49.4861 11.4897 48.9389C13.8066 44.1842 16.377 39.4858 19.2447 35.2775C19.6105 34.6926 20.3223 34.7297 20.8732 35.2762C21.073 35.5023 21.1218 35.6343 21.2192 35.8983ZM73.6029 212.12C73.7003 212.384 73.6954 212.686 73.6905 212.987C73.6269 213.761 73.0613 214.12 72.4031 213.913C67.5473 212.106 62.7014 209.696 57.8653 206.683C57.2608 206.306 56.9684 205.514 57.1831 204.835C57.3977 204.156 58.0121 203.929 58.6166 204.306C63.1504 207.131 67.9964 209.541 72.701 211.253C73.1594 211.234 73.4567 211.724 73.6029 212.12ZM8.52761 62.0304C8.6738 62.4263 8.66887 62.7281 8.56154 63.0677C6.84917 68.1991 5.59017 73.6129 4.6871 79.0454C4.57483 79.6868 3.90679 80.0834 3.35102 79.8387C2.79524 79.594 2.35175 78.708 2.46401 78.0666C3.42074 72.4644 4.78211 67.0126 6.44575 61.7492C6.66041 61.0701 7.27479 60.8432 7.8793 61.2199C8.18155 61.4083 8.38141 61.6344 8.52761 62.0304ZM48.0038 196.677C48.15 197.072 48.1938 197.506 47.984 197.884C47.7207 198.431 46.9551 198.563 46.453 198.149C42.1875 194.475 37.9807 190.329 34.0859 185.768C33.6375 185.184 33.5499 184.317 33.9644 183.864C34.3789 183.411 35.0908 183.448 35.5392 184.032C39.3852 188.461 43.441 192.512 47.6577 196.054C47.7065 196.186 47.9063 196.413 48.0038 196.677ZM3.04137 92.5507C3.13883 92.8147 3.18756 92.9466 3.18262 93.2484C2.88406 99.0576 3.04383 104.848 3.66191 110.618C3.70077 111.354 3.33497 111.939 2.62313 111.902C2.01369 111.827 1.46285 111.28 1.37525 110.413C0.810844 104.472 0.656006 98.3805 0.905834 92.4393C0.969367 91.666 1.4863 91.1753 2.14447 91.3821C2.49546 91.7025 2.89518 92.1548 3.04137 92.5507ZM26.5166 172.516C26.7115 173.044 26.5993 173.686 26.2871 174.101C25.8726 174.554 25.1121 174.385 24.6636 173.8C21.2858 168.749 18.1664 163.452 15.3542 158.041C15.0081 157.419 15.1253 156.476 15.6373 156.287C16.1006 155.966 16.9099 156.267 17.1535 156.927C19.8146 162.243 22.8852 167.408 26.2143 172.328C26.4191 172.252 26.4679 172.384 26.5166 172.516ZM5.96518 125.365C6.01392 125.497 6.01392 125.497 6.06265 125.629C7.29511 131.173 9.0346 136.829 11.0326 142.24L11.2275 142.768C11.4711 143.428 11.3052 144.239 10.6908 144.466C10.0765 144.693 9.47195 144.316 9.17957 143.524L8.98463 142.996C6.88921 137.321 5.2521 131.627 3.92219 125.819C3.78093 125.121 4.09799 124.404 4.7611 124.31C5.21942 124.29 5.72153 124.705 5.96518 125.365Z" fill="white" fill-opacity="0.3"/>
</svg>
