<svg width="468" height="85" viewBox="0 0 468 85" fill="none" xmlns="http://www.w3.org/2000/svg">
<path d="M466 42.5C466 44.6318 464.817 46.9965 461.918 49.5694C459.028 52.135 454.649 54.7031 448.822 57.2052C437.184 62.2028 420.22 66.7494 399.106 70.5842C356.91 78.248 298.535 83 234 83C169.465 83 111.09 78.248 68.8944 70.5842C47.7802 66.7494 30.8163 62.2028 19.178 57.2052C13.3511 54.7031 8.97219 52.135 6.08168 49.5694C3.1828 46.9965 2 44.6318 2 42.5C2 40.3682 3.1828 38.0035 6.08168 35.4306C8.97219 32.865 13.3511 30.2969 19.178 27.7948C30.8163 22.7972 47.7802 18.2506 68.8944 14.4158C111.09 6.75204 169.465 2 234 2C298.535 2 356.91 6.75204 399.106 14.4158C420.22 18.2506 437.184 22.7972 448.822 27.7948C454.649 30.2969 459.028 32.865 461.918 35.4306C464.817 38.0035 466 40.3682 466 42.5Z" stroke="url(#paint0_radial)" stroke-width="4"/>
<defs>
<radialGradient id="paint0_radial" cx="0" cy="0" r="1" gradientUnits="userSpaceOnUse" gradientTransform="translate(-56.5 42) rotate(18.2008) scale(232.113 1143.25)">
<stop stop-color="#FF7B0D"/>
<stop offset="1" stop-color="white" stop-opacity="0"/>
</radialGradient>
</defs>
</svg>
