<svg width="74" height="74" viewBox="0 0 74 74" fill="none" xmlns="http://www.w3.org/2000/svg">
<path d="M15.9012 20.9557C18.6948 20.9557 20.9595 18.691 20.9595 15.8974C20.9595 13.1038 18.6948 10.8391 15.9012 10.8391C13.1076 10.8391 10.8429 13.1038 10.8429 15.8974C10.8429 18.691 13.1076 20.9557 15.9012 20.9557Z" fill="white" fill-opacity="0.7"/>
<path d="M27.1436 27.1381C30.1462 24.1356 31.7999 20.1435 31.7999 15.8971C31.7999 7.13148 24.6684 0 15.9026 0C7.13697 0 0.00549316 7.13148 0.00549316 15.8971C0.00549316 20.1435 1.65902 24.1356 4.66174 27.1381L15.9026 38.379L27.1436 27.1381ZM6.50892 15.8974C6.50892 10.7177 10.7229 6.50371 15.9026 6.50371C21.0823 6.50371 25.2963 10.7177 25.2963 15.8974C25.2963 21.0771 21.0823 25.2911 15.9026 25.2911C10.7229 25.2911 6.50892 21.0771 6.50892 15.8974Z" fill="white" fill-opacity="0.7"/>
<path d="M62.4336 46.0874C56.0586 46.0874 50.8719 51.274 50.8719 57.6491C50.8719 60.7374 52.0744 63.6408 54.2581 65.8246L62.4336 73.9999L70.6091 65.8246C72.7927 63.6407 73.9954 60.7372 73.9954 57.6491C73.9954 51.274 68.8089 46.0874 62.4336 46.0874V46.0874Z" fill="white" fill-opacity="0.7"/>
<path d="M18.0688 60.0392C18.0688 54.7367 22.3827 50.4228 27.6852 50.4228H35.7294C40.4927 50.4228 44.3679 46.5477 44.3679 41.7843C44.3679 37.021 40.4927 33.1459 35.7294 33.1459H27.3186V37.4813H35.7296C38.1023 37.4813 40.0326 39.4116 40.0326 41.7843C40.0326 44.1571 38.1023 46.0874 35.7296 46.0874H27.6853C19.9923 46.0874 13.7335 52.3463 13.7335 60.0394C13.7335 67.7324 19.9921 73.9912 27.6853 73.9912H51.8848V69.6557H27.6853C22.3827 69.6557 18.0688 65.3417 18.0688 60.0392V60.0392Z" fill="white" fill-opacity="0.7"/>
</svg>
