<svg width="65" height="65" viewBox="0 0 65 65" fill="none" xmlns="http://www.w3.org/2000/svg">
<path d="M13.9673 18.407C16.4211 18.407 18.4103 16.4178 18.4103 13.9639C18.4103 11.5101 16.4211 9.52086 13.9673 9.52086C11.5134 9.52086 9.52417 11.5101 9.52417 13.9639C9.52417 16.4178 11.5134 18.407 13.9673 18.407Z" fill="#FE9F50"/>
<path d="M23.8432 23.8376C26.4806 21.2002 27.9331 17.6936 27.9331 13.9637C27.9331 6.26414 21.669 0 13.9693 0C6.26975 0 0.00561523 6.26414 0.00561523 13.9637C0.00561523 17.6936 1.45804 21.2002 4.09556 23.8376L13.9693 33.7113L23.8432 23.8376ZM5.71808 13.9639C5.71808 9.41423 9.41959 5.71272 13.9693 5.71272C18.519 5.71272 22.2205 9.41423 22.2205 13.9639C22.2205 18.5137 18.519 22.2152 13.9693 22.2152C9.41959 22.2152 5.71808 18.5137 5.71808 13.9639Z" fill="#FE9F50"/>
<path d="M54.8404 40.4822C49.2406 40.4822 44.6848 45.038 44.6848 50.6377C44.6848 53.3504 45.7411 55.9007 47.6591 57.8189L54.8404 64.9999L62.0215 57.8189C63.9395 55.9006 64.9959 53.3503 64.9959 50.6377C64.9959 45.038 60.4402 40.4822 54.8404 40.4822Z" fill="#FE9F50"/>
<path d="M15.8715 52.7372C15.8715 48.0795 19.6607 44.2903 24.3183 44.2903H31.3842C35.5682 44.2903 38.972 40.8865 38.972 36.7025C38.972 32.5185 35.5682 29.1146 31.3842 29.1146H23.9963V32.9228H31.3843C33.4685 32.9228 35.164 34.6183 35.164 36.7025C35.164 38.7867 33.4685 40.4822 31.3843 40.4822H24.3185C17.561 40.4822 12.0635 45.9799 12.0635 52.7373C12.0635 59.4947 17.5609 64.9923 24.3185 64.9923H45.5747V61.1841H24.3185C19.6607 61.1841 15.8715 57.3948 15.8715 52.7372Z" fill="#FE9F50"/>
</svg>
