<svg width="96" height="96" viewBox="0 0 96 96" fill="none" xmlns="http://www.w3.org/2000/svg">
<path d="M53.1521 96H41.9021C40.4807 96 39.2827 94.9395 39.1104 93.5286L38.34 87.2229C36.1485 86.7096 33.9969 86.0083 31.9093 85.1274L27.5754 89.7804C26.6066 90.8205 25.0142 90.9744 23.8642 90.1389L14.7628 83.5264C13.6129 82.6909 13.2671 81.1288 13.9569 79.8861L17.0394 74.3329C15.542 72.6069 14.2037 70.7771 13.0385 68.8627L6.82779 70.0738C5.4326 70.3459 4.05391 69.5342 3.6146 68.1823L0.138163 57.483C-0.30115 56.1311 0.337288 54.6641 1.62598 54.0641L7.3826 51.384C7.26898 50.1823 7.2146 49.077 7.2146 48C7.2146 46.923 7.26898 45.8177 7.3826 44.6158L1.62598 41.9357C0.337475 41.3357 -0.300962 39.8687 0.138163 38.5168L3.6146 27.8175C4.05391 26.4656 5.4326 25.6541 6.82779 25.926L13.0385 27.1371C14.2037 25.2227 15.542 23.3927 17.0392 21.6667L13.9567 16.1138C13.2669 14.871 13.6127 13.3089 14.7626 12.4734L23.864 5.86088C25.014 5.02537 26.6064 5.17931 27.5752 6.21937L31.9091 10.8724C33.9969 9.99131 36.1481 9.29025 38.3398 8.77688L39.1102 2.47125C39.2827 1.0605 40.4807 0 41.9021 0H53.1521C54.5735 0 55.7715 1.0605 55.9438 2.47144L56.7142 8.77706C58.9057 9.29044 61.0573 9.99169 63.1449 10.8726L67.4788 6.21956C68.4476 5.1795 70.04 5.02556 71.19 5.86106L80.2914 12.4736C81.4414 13.3091 81.7871 14.8712 81.0973 16.1139L78.0148 21.6669C79.5122 23.3929 80.8505 25.2229 82.0155 27.1372L88.2262 25.9262C89.6214 25.6541 91.0001 26.4658 91.4394 27.8177L94.9158 38.5172C95.3552 39.8691 94.7167 41.3361 93.428 41.9361L87.6714 44.6162C87.7852 45.8177 87.8396 46.923 87.8396 48C87.8396 49.077 87.7852 50.1823 87.6716 51.3842L93.4282 54.0643C94.7167 54.6643 95.3552 56.1313 94.916 57.4832L91.4396 68.1825C91.0003 69.5344 89.6216 70.3461 88.2264 70.074L82.0157 68.8629C80.8505 70.7773 79.5122 72.6073 78.015 74.3333L81.0975 79.8862C81.7873 81.129 81.4415 82.6911 80.2916 83.5266L71.1902 90.1391C70.0402 90.9746 68.4478 90.8207 67.479 89.7806L63.1451 85.1276C61.0573 86.0087 58.9061 86.7097 56.7144 87.2231L55.944 93.5287C55.7715 94.9395 54.5735 96 53.1521 96Z" fill="#8989A5"/>
<path d="M55.944 93.5286L56.7145 87.2229C58.9062 86.7096 61.0575 86.0085 63.1452 85.1274L67.479 89.7804C68.4478 90.8205 70.0403 90.9744 71.1902 90.1389L80.2917 83.5264C81.4416 82.6909 81.7873 81.1288 81.0975 79.8861L78.015 74.3331C79.5124 72.6071 80.8508 70.7771 82.0157 68.8627L88.2265 70.0738C89.6217 70.3459 91.0003 69.5342 91.4397 68.1823L94.9161 57.4828C95.3554 56.1309 94.717 54.6639 93.4283 54.0639L87.6717 51.3838C87.7855 50.1823 87.8398 49.077 87.8398 48C87.8398 46.923 87.7855 45.8177 87.6718 44.6158L93.4285 41.9357C94.717 41.3357 95.3554 39.8687 94.9163 38.5168L91.4398 27.8175C91.0005 26.4656 89.6218 25.6539 88.2267 25.926L82.0159 27.1371C80.8508 25.2227 79.5124 23.3927 78.0152 21.6667L81.0977 16.1138C81.7875 14.871 81.4418 13.3089 80.2918 12.4734L71.1904 5.86088C70.0405 5.02537 68.448 5.17931 67.4792 6.21937L63.1453 10.8724C61.0577 9.9915 58.9062 9.29025 56.7147 8.77688L55.9442 2.47125C55.7717 1.0605 54.5738 0 53.1523 0H47.5273V96H53.1523C54.5738 96 55.7717 94.9395 55.944 93.5286Z" fill="#616173"/>
<path d="M47.5273 72.375C60.9893 72.375 71.9023 61.4619 71.9023 48C71.9023 34.5381 60.9893 23.625 47.5273 23.625C34.0654 23.625 23.1523 34.5381 23.1523 48C23.1523 61.4619 34.0654 72.375 47.5273 72.375Z" fill="#FFF5F5"/>
<path d="M71.9023 48C71.9023 34.5381 60.9893 23.625 47.5273 23.625V72.375C60.9893 72.375 71.9023 61.4619 71.9023 48Z" fill="#E2DFF4"/>
<path d="M51.2773 50.8125H43.7773C36.0233 50.8125 29.7148 57.1209 29.7148 64.875V67.1863L47.5273 72.9375L65.3398 67.1863V64.875C65.3398 57.1209 59.0314 50.8125 51.2773 50.8125Z" fill="#FCB67E"/>
<path d="M51.2773 50.8125H47.5273V72.9375L65.3398 67.1863V64.875C65.3398 57.1209 59.0314 50.8125 51.2773 50.8125Z" fill="#E97313"/>
<path d="M47.5273 75.1875C32.5362 75.1875 20.3398 62.9912 20.3398 48C20.3398 33.0088 32.5362 20.8125 47.5273 20.8125C62.5185 20.8125 74.7148 33.0088 74.7148 48C74.7148 62.9912 62.5185 75.1875 47.5273 75.1875ZM47.5273 26.4375C35.6378 26.4375 25.9648 36.1104 25.9648 48C25.9648 59.8896 35.6378 69.5625 47.5273 69.5625C59.4169 69.5625 69.0898 59.8896 69.0898 48C69.0898 36.1104 59.4169 26.4375 47.5273 26.4375Z" fill="#616173"/>
<path d="M69.0898 48C69.0898 59.8896 59.4169 69.5625 47.5273 69.5625V75.1875C62.5185 75.1875 74.7148 62.9912 74.7148 48C74.7148 33.0088 62.5185 20.8125 47.5273 20.8125V26.4375C59.4169 26.4375 69.0898 36.1104 69.0898 48Z" fill="#403B40"/>
<path d="M47.5273 53.625C42.6165 53.625 38.6211 49.6296 38.6211 44.7188V40.9688C38.6211 36.0579 42.6165 32.0625 47.5273 32.0625C52.4382 32.0625 56.4336 36.0579 56.4336 40.9688V44.7188C56.4336 49.6296 52.4382 53.625 47.5273 53.625Z" fill="#FFDECF"/>
<path d="M56.4336 44.7188V40.9688C56.4336 36.0579 52.4382 32.0625 47.5273 32.0625V53.625C52.4382 53.625 56.4336 49.6296 56.4336 44.7188Z" fill="#FFCDBE"/>
</svg>
