<svg width="387" height="105" viewBox="0 0 387 105" fill="none" xmlns="http://www.w3.org/2000/svg">
<path d="M385 52.4998C385 58.6844 380.354 65.068 370.714 71.2518C361.166 77.3766 347.217 82.9676 329.801 87.6927C295 97.1351 246.809 103 193.5 103C140.191 103 92.0004 97.1351 57.1985 87.6927C39.7832 82.9676 25.8342 77.3766 16.286 71.2518C6.64599 65.068 2 58.6844 2 52.4998C2 46.3152 6.64599 39.9317 16.286 33.7479C25.8342 27.623 39.7832 22.032 57.1985 17.3069C92.0004 7.86457 140.191 1.99982 193.5 1.99982C246.809 1.99982 295 7.86457 329.801 17.3069C347.217 22.032 361.166 27.623 370.714 33.7479C380.354 39.9317 385 46.3152 385 52.4998Z" stroke="url(#paint0_radial)" stroke-width="4"/>
<defs>
<radialGradient id="paint0_radial" cx="0" cy="0" r="1" gradientUnits="userSpaceOnUse" gradientTransform="translate(49.9355 -85.0501) rotate(54.5772) scale(246.831 1150.55)">
<stop stop-color="#FF7B0D"/>
<stop offset="1" stop-color="white" stop-opacity="0"/>
</radialGradient>
</defs>
</svg>
