<svg width="38" height="38" viewBox="0 0 38 38" fill="none" xmlns="http://www.w3.org/2000/svg">
<circle cx="19" cy="19" r="19" fill="#9696A6"/>
<path d="M18.2555 18.1148L9.27109 14.3319C9.14238 14.2777 9 14.3722 9 14.5119V24.6252C9 24.8807 9.15559 25.1106 9.39289 25.2054L18.1071 28.6911C18.2354 28.7425 18.375 28.648 18.375 28.5098V18.2948C18.375 18.2163 18.3279 18.1453 18.2555 18.1148Z" fill="white"/>
<path d="M19.0759 17.04L27.7601 13.3835C27.9161 13.3178 27.9203 13.0981 27.7668 13.0265L19.2644 9.05862C19.0968 8.98046 18.9033 8.98046 18.7358 9.05862L10.2333 13.0264C10.0799 13.098 10.084 13.3177 10.2401 13.3834L18.9243 17.0399C18.9727 17.0603 19.0274 17.0603 19.0759 17.04Z" fill="white"/>
<path d="M24.625 19.0002C26.2777 19.0002 27.7661 19.7169 28.7961 20.8556C28.868 20.9352 29 20.8846 29 20.7773V14.5119C29 14.3722 28.8576 14.2777 28.7289 14.3319L19.7445 18.1148C19.6721 18.1453 19.625 18.2162 19.625 18.2948V21.6071C19.625 21.725 19.7793 21.7689 19.8414 21.6688C20.8341 20.0683 22.6071 19.0002 24.625 19.0002Z" fill="white"/>
<path d="M24.6252 20.25C22.2129 20.25 20.2502 22.2126 20.2502 24.625C20.2502 27.0374 22.2129 29 24.6252 29C27.0376 29 29.0002 27.0374 29.0002 24.625C29.0002 22.2126 27.0376 20.25 24.6252 20.25ZM26.0047 25.1205C26.2488 25.3646 26.2488 25.7604 26.0047 26.0045C25.8826 26.1265 25.7227 26.1875 25.5627 26.1875C25.4028 26.1875 25.2429 26.1265 25.1208 26.0045L24.6252 25.5089L24.1297 26.0045C24.0076 26.1265 23.8477 26.1875 23.6877 26.1875C23.5278 26.1875 23.3679 26.1265 23.2458 26.0045C23.0017 25.7604 23.0017 25.3646 23.2458 25.1205L23.7414 24.625L23.2458 24.1295C23.0017 23.8854 23.0017 23.4896 23.2458 23.2455C23.4899 23.0015 23.8856 23.0015 24.1297 23.2455L24.6252 23.7411L25.1208 23.2455C25.3649 23.0014 25.7606 23.0014 26.0047 23.2455C26.2488 23.4896 26.2488 23.8853 26.0047 24.1294L25.5091 24.625L26.0047 25.1205Z" fill="white"/>
</svg>
