<svg width="38" height="38" viewBox="0 0 38 38" fill="none" xmlns="http://www.w3.org/2000/svg">
<circle cx="19" cy="19" r="19" fill="#135FDC"/>
<path d="M28.0357 19.6917C27.9519 19.5201 27.9519 19.3233 28.0357 19.1518L28.8131 17.5615C29.2459 16.676 28.903 15.6206 28.0324 15.1587L26.4687 14.329C26.3 14.2395 26.1844 14.0803 26.1514 13.8923L25.8455 12.1487C25.6753 11.178 24.7773 10.5256 23.8016 10.6637L22.0489 10.9116C21.8598 10.9383 21.6727 10.8775 21.5355 10.7447L20.2633 9.51399C19.5549 8.82869 18.4451 8.82865 17.7368 9.51399L16.4645 10.7448C16.3273 10.8776 16.1402 10.9383 15.9511 10.9117L14.1984 10.6638C13.2224 10.5257 12.3247 11.1781 12.1545 12.1488L11.8486 13.8923C11.8156 14.0804 11.7 14.2396 11.5313 14.3291L9.96766 15.1588C9.09705 15.6207 8.75411 16.6761 9.18694 17.5616L9.96429 19.1519C10.0481 19.3235 10.0481 19.5203 9.96429 19.6918L9.1869 21.2821C8.75407 22.1676 9.09701 23.223 9.96762 23.6849L11.5313 24.5145C11.7 24.604 11.8156 24.7633 11.8486 24.9513L12.1545 26.6949C12.3095 27.5786 13.0672 28.1983 13.9381 28.1983C14.0239 28.1983 14.111 28.1922 14.1984 28.1799L15.9511 27.9319C16.1401 27.9051 16.3273 27.9661 16.4646 28.0988L17.7368 29.3295C18.091 29.6722 18.5454 29.8435 19 29.8435C19.4544 29.8435 19.9091 29.6721 20.2632 29.3295L21.5355 28.0988C21.6727 27.9661 21.8598 27.9054 22.0489 27.9319L23.8016 28.1799C24.7777 28.3179 25.6753 27.6656 25.8455 26.6948L26.1514 24.9514C26.1844 24.7633 26.3001 24.6041 26.4687 24.5145L28.0324 23.6849C28.903 23.223 29.2459 22.1675 28.8131 21.282L28.0357 19.6917ZM16.5957 14.0121C17.8109 14.0121 18.7996 15.0008 18.7996 16.216C18.7996 17.4313 17.8109 18.42 16.5957 18.42C15.3804 18.42 14.3917 17.4313 14.3917 16.216C14.3917 15.0008 15.3804 14.0121 16.5957 14.0121ZM15.4581 23.8137C15.3407 23.9311 15.1869 23.9898 15.0331 23.9898C14.8793 23.9898 14.7254 23.9311 14.6081 23.8137C14.3733 23.579 14.3733 23.1984 14.6081 22.9636L22.5419 15.0298C22.7766 14.7951 23.1572 14.7951 23.3919 15.0298C23.6267 15.2645 23.6267 15.6451 23.3919 15.8799L15.4581 23.8137ZM21.4043 24.8315C20.189 24.8315 19.2003 23.8428 19.2003 22.6275C19.2003 21.4123 20.189 20.4236 21.4043 20.4236C22.6195 20.4236 23.6082 21.4123 23.6082 22.6275C23.6082 23.8428 22.6195 24.8315 21.4043 24.8315Z" fill="white"/>
<path d="M21.4042 21.626C20.8518 21.626 20.4023 22.0754 20.4023 22.6278C20.4023 23.1801 20.8517 23.6295 21.4042 23.6295C21.9566 23.6295 22.4059 23.1801 22.4059 22.6278C22.4059 22.0754 21.9566 21.626 21.4042 21.626Z" fill="white"/>
<path d="M16.5958 15.2139C16.0434 15.2139 15.594 15.6633 15.594 16.2156C15.594 16.768 16.0434 17.2175 16.5958 17.2175C17.1482 17.2175 17.5976 16.7681 17.5976 16.2156C17.5976 15.6633 17.1482 15.2139 16.5958 15.2139Z" fill="white"/>
</svg>
