<svg width="38" height="38" viewBox="0 0 38 38" fill="none" xmlns="http://www.w3.org/2000/svg">
<circle cx="19" cy="19" r="19" fill="#FF7B0D"/>
<path d="M19.0002 17.6957C20.8492 17.6957 22.348 16.1968 22.348 14.3478C22.348 12.4989 20.8492 11 19.0002 11C17.1512 11 15.6523 12.4989 15.6523 14.3478C15.6523 16.1968 17.1512 17.6957 19.0002 17.6957Z" fill="white"/>
<path d="M25.6957 19.6088C27.0164 19.6088 28.087 18.5381 28.087 17.2175C28.087 15.8968 27.0164 14.8262 25.6957 14.8262C24.3751 14.8262 23.3044 15.8968 23.3044 17.2175C23.3044 18.5381 24.3751 19.6088 25.6957 19.6088Z" fill="white"/>
<path d="M12.3722 19.6088C13.6929 19.6088 14.7635 18.5381 14.7635 17.2175C14.7635 15.8968 13.6929 14.8262 12.3722 14.8262C11.0516 14.8262 9.98096 15.8968 9.98096 17.2175C9.98096 18.5381 11.0516 19.6088 12.3722 19.6088Z" fill="white"/>
<path d="M19.0001 18.6523C15.5719 18.6523 12.7827 21.4416 12.7827 24.8698C12.7827 25.1338 12.997 25.348 13.261 25.348H24.7393C25.0033 25.348 25.2175 25.1338 25.2175 24.8698C25.2175 21.4416 22.4283 18.6523 19.0001 18.6523Z" fill="white"/>
<path d="M13.1968 20.6687C12.9041 20.6065 12.6066 20.5654 12.3044 20.5654C9.93122 20.5654 8 22.4966 8 24.8698C8 25.1338 8.21428 25.3481 8.47828 25.3481H11.9141C11.8605 25.1979 11.8261 25.0381 11.8261 24.8698C11.8261 23.3001 12.3388 21.851 13.1968 20.6687Z" fill="white"/>
<path d="M25.6957 20.5654C25.3934 20.5654 25.0959 20.6065 24.8032 20.6687C25.6612 21.851 26.1739 23.3001 26.1739 24.8698C26.1739 25.0381 26.1395 25.1979 26.0859 25.3481H29.5217C29.7857 25.3481 30 25.1338 30 24.8698C30 22.4966 28.0688 20.5654 25.6957 20.5654Z" fill="white"/>
<path d="M19.0002 17.6957C20.8492 17.6957 22.348 16.1968 22.348 14.3478C22.348 12.4989 20.8492 11 19.0002 11C17.1512 11 15.6523 12.4989 15.6523 14.3478C15.6523 16.1968 17.1512 17.6957 19.0002 17.6957Z" fill="white"/>
<path d="M25.6957 19.6088C27.0164 19.6088 28.087 18.5381 28.087 17.2175C28.087 15.8968 27.0164 14.8262 25.6957 14.8262C24.3751 14.8262 23.3044 15.8968 23.3044 17.2175C23.3044 18.5381 24.3751 19.6088 25.6957 19.6088Z" fill="white"/>
<path d="M12.3722 19.6088C13.6929 19.6088 14.7635 18.5381 14.7635 17.2175C14.7635 15.8968 13.6929 14.8262 12.3722 14.8262C11.0516 14.8262 9.98096 15.8968 9.98096 17.2175C9.98096 18.5381 11.0516 19.6088 12.3722 19.6088Z" fill="white"/>
<path d="M19.0001 18.6523C15.5719 18.6523 12.7827 21.4416 12.7827 24.8698C12.7827 25.1338 12.997 25.348 13.261 25.348H24.7393C25.0033 25.348 25.2175 25.1338 25.2175 24.8698C25.2175 21.4416 22.4283 18.6523 19.0001 18.6523Z" fill="white"/>
<path d="M13.1968 20.6687C12.9041 20.6065 12.6066 20.5654 12.3044 20.5654C9.93122 20.5654 8 22.4966 8 24.8698C8 25.1338 8.21428 25.3481 8.47828 25.3481H11.9141C11.8605 25.1979 11.8261 25.0381 11.8261 24.8698C11.8261 23.3001 12.3388 21.851 13.1968 20.6687Z" fill="white"/>
<path d="M25.6957 20.5654C25.3934 20.5654 25.0959 20.6065 24.8032 20.6687C25.6612 21.851 26.1739 23.3001 26.1739 24.8698C26.1739 25.0381 26.1395 25.1979 26.0859 25.3481H29.5217C29.7857 25.3481 30 25.1338 30 24.8698C30 22.4966 28.0688 20.5654 25.6957 20.5654Z" fill="white"/>
</svg>
