<svg width="38" height="38" viewBox="0 0 38 38" fill="none" xmlns="http://www.w3.org/2000/svg">
<circle cx="19" cy="19" r="19" fill="#FB3F5C"/>
<path d="M17.9232 17.7871L9.26136 14.14C9.13727 14.0877 9 14.1788 9 14.3135V24.0637C9 24.3101 9.15 24.5317 9.37879 24.6232L17.7802 27.9837C17.9039 28.0332 18.0385 27.9421 18.0385 27.8089V17.9606C18.0385 17.8849 17.9931 17.8165 17.9232 17.7871Z" fill="white"/>
<path d="M18.7144 16.7514L27.0868 13.2261C27.2373 13.1628 27.2414 12.951 27.0934 12.8819L18.8961 9.05652C18.7346 8.98116 18.548 8.98116 18.3865 9.05652L10.1892 12.8819C10.0413 12.9509 10.0453 13.1627 10.1958 13.2261L18.5683 16.7513C18.615 16.771 18.6677 16.771 18.7144 16.7514Z" fill="white"/>
<path d="M24.0642 18.6406C25.6576 18.6406 27.0925 19.3316 28.0855 20.4295C28.1549 20.5062 28.2821 20.4574 28.2821 20.354V14.3135C28.2821 14.1788 28.1449 14.0877 28.0208 14.14L19.3589 17.7871C19.2891 17.8165 19.2437 17.8848 19.2437 17.9606V21.154C19.2437 21.2676 19.3924 21.31 19.4523 21.2134C20.4094 19.6704 22.1187 18.6406 24.0642 18.6406Z" fill="white"/>
<path d="M23.5937 19.8491C21.2698 19.9423 19.455 21.9087 19.5481 24.2326C19.6413 26.5566 21.6078 28.3714 23.9317 28.2782C26.2557 28.185 28.0705 26.2186 27.9773 23.8946C27.8841 21.5706 25.9177 19.7559 23.5937 19.8491ZM25.5573 24.5122L23.751 24.5846C23.4821 24.5954 23.2552 24.386 23.2444 24.1169L23.172 22.3107C23.1612 22.0417 23.3706 21.8148 23.6395 21.804C23.9086 21.7932 24.1355 22.0026 24.1462 22.2717L24.1991 23.5907L25.5182 23.5378C25.7872 23.527 26.0141 23.7364 26.0248 24.0055C26.0356 24.2745 25.8264 24.5014 25.5573 24.5122Z" fill="white"/>
</svg>
