<svg width="12" height="12" viewBox="0 0 12 12" fill="none" xmlns="http://www.w3.org/2000/svg">
<path d="M8.05 0.925326C5.775 -0.358008 2.975 0.0503256 1.16667 1.80033V0.750326C1.16667 0.400326 0.933334 0.166992 0.583333 0.166992C0.233333 0.166992 0 0.400326 0 0.750326V3.37533C0 3.72533 0.233333 3.95866 0.583333 3.95866H3.20833C3.55833 3.95866 3.79167 3.72533 3.79167 3.37533C3.79167 3.02533 3.55833 2.79199 3.20833 2.79199H1.80833C2.625 1.85866 3.85 1.33366 5.19167 1.33366C7.75833 1.33366 9.85833 3.43366 9.85833 6.00033C9.85833 8.56699 7.75833 10.667 5.19167 10.667C4.84167 10.667 4.60833 10.9003 4.60833 11.2503C4.60833 11.6003 4.84167 11.8337 5.19167 11.8337C7.29167 11.8337 9.21667 10.7253 10.2667 8.91699C11.8417 6.11699 10.85 2.55866 8.05 0.925326ZM5.13333 3.66699C4.78333 3.66699 4.55 3.90033 4.55 4.25033V6.00033C4.55 6.35033 4.78333 6.58366 5.13333 6.58366H6.3C6.65 6.58366 6.88333 6.35033 6.88333 6.00033C6.88333 5.65033 6.65 5.41699 6.3 5.41699H5.71667V4.25033C5.71667 3.90033 5.48333 3.66699 5.13333 3.66699Z" fill="#E04F5F"/>
</svg>
