<svg width="65" height="65" viewBox="0 0 65 65" fill="none" xmlns="http://www.w3.org/2000/svg">
<path d="M54.7276 11.8441V54.4267C54.7276 55.1287 54.1602 55.6962 53.4581 55.6962H10.8755C10.1734 55.6962 9.60596 55.1287 9.60596 54.4267V11.8441C9.60596 11.142 10.1734 10.5745 10.8755 10.5745H53.4581C54.1602 10.5745 54.7276 11.142 54.7276 11.8441Z" fill="#FFA8CF"/>
<path d="M54.7274 19.7278V36.0083H42.1705C41.5903 36.0083 41.1218 35.5385 41.1218 34.9596V20.7764C41.1218 20.1975 41.5903 19.7278 42.1705 19.7278H54.7274Z" fill="#FE7D11"/>
<path d="M9.60571 13.631H54.7274V15.3791H9.60571V13.631Z" fill="#FE7D11"/>
<path d="M36.0715 25.5561H28.2617C27.9112 25.5561 27.627 25.2718 27.627 24.9213V10.5736H36.7063V24.9213C36.7063 25.2718 36.422 25.5561 36.0715 25.5561Z" fill="#FFDBED"/>
<path d="M31.0391 10.5739H33.2937V25.5557H31.0391V10.5739Z" fill="#FFC4DF"/>
<path d="M50.3811 47.5181H42.9395C42.5888 47.5181 42.3047 47.234 42.3047 46.8833V44.9629C42.3047 44.6124 42.5888 44.3282 42.9395 44.3282H50.3811C50.7316 44.3282 51.0158 44.6124 51.0158 44.9629V46.8833C51.0158 47.2339 50.7316 47.5181 50.3811 47.5181Z" fill="#6583FE"/>
<path d="M50.3808 51.8648H42.9392C42.5886 51.8648 42.3044 51.5807 42.3044 51.2301V49.3097C42.3044 48.9591 42.5886 48.6749 42.9392 48.6749H50.3808C50.7313 48.6749 51.0156 48.9591 51.0156 49.3097V51.2301C51.0156 51.5806 50.7313 51.8648 50.3808 51.8648Z" fill="#6583FE"/>
<path d="M22.41 51.8648H14.8892C14.5386 51.8648 14.2544 51.5807 14.2544 51.23V35.722C14.2544 35.3714 14.5386 35.0872 14.8892 35.0872H22.41C22.7605 35.0872 23.0448 35.3714 23.0448 35.722V51.23C23.0448 51.5806 22.7606 51.8648 22.41 51.8648Z" fill="white"/>
<path d="M24.1512 38.49H16.7139C16.3634 38.49 16.0791 38.2057 16.0791 37.8552C16.0791 37.5047 16.3634 37.2204 16.7139 37.2204H24.1512C24.5017 37.2204 24.7859 37.5047 24.7859 37.8552C24.7859 38.2057 24.5018 38.49 24.1512 38.49Z" fill="#FE7D11"/>
<path d="M20.3426 41.0699H16.7139C16.3634 41.0699 16.0791 40.7856 16.0791 40.4351C16.0791 40.0846 16.3634 39.8003 16.7139 39.8003H20.3426C20.6931 39.8003 20.9773 40.0846 20.9773 40.4351C20.9773 40.7856 20.6932 41.0699 20.3426 41.0699Z" fill="#9FB0FE"/>
<path d="M20.3426 43.2688H16.7139C16.3634 43.2688 16.0791 42.9846 16.0791 42.6341C16.0791 42.2835 16.3634 41.9993 16.7139 41.9993H20.3426C20.6931 41.9993 20.9773 42.2835 20.9773 42.6341C20.9773 42.9847 20.6932 43.2688 20.3426 43.2688Z" fill="#9FB0FE"/>
<path d="M20.3426 46.8575H16.7139C16.3634 46.8575 16.0791 46.5733 16.0791 46.2227C16.0791 45.8722 16.3634 45.588 16.7139 45.588H20.3426C20.6931 45.588 20.9773 45.8722 20.9773 46.2227C20.9773 46.5734 20.6932 46.8575 20.3426 46.8575Z" fill="#9FB0FE"/>
<path d="M20.3426 49.0566H16.7139C16.3634 49.0566 16.0791 48.7724 16.0791 48.4218C16.0791 48.0713 16.3634 47.7871 16.7139 47.7871H20.3426C20.6931 47.7871 20.9773 48.0713 20.9773 48.4218C20.9773 48.7724 20.6932 49.0566 20.3426 49.0566Z" fill="#9FB0FE"/>
<path d="M54.7274 11.8435V54.4261C54.7274 55.1281 54.1599 55.6956 53.4579 55.6956H10.8752C10.1732 55.6956 9.60571 55.1281 9.60571 54.4261V11.8435C9.60571 11.1414 10.1732 10.5739 10.8752 10.5739H53.4579C54.1599 10.5739 54.7274 11.1414 54.7274 11.8435Z" fill="url(#paint0_linear)"/>
<path d="M46.8903 20.0649V9.50181C46.8903 7.8358 48.2457 6.48045 49.9118 6.48045C51.5778 6.48045 52.9333 7.8358 52.9333 9.50181V20.0648H56.0797V9.50181C56.0797 6.10086 53.3127 3.33405 49.9118 3.33405C46.5108 3.33405 43.7439 6.10099 43.7439 9.50181V20.0648H46.8903V20.0649Z" fill="#DCFDEE"/>
<path d="M57.6527 32.7956H42.1703C41.5911 32.7956 41.1216 32.326 41.1216 31.7468V17.5644C41.1216 16.9851 41.5912 16.5156 42.1703 16.5156H57.6527C58.2319 16.5156 58.7014 16.9852 58.7014 17.5644V31.7468C58.7015 32.326 58.2319 32.7956 57.6527 32.7956Z" fill="#01ECA5"/>
<path d="M58.7015 18.5437V17.5644C58.7015 16.9851 58.2319 16.5156 57.6528 16.5156H42.1703C41.5911 16.5156 41.1216 16.9852 41.1216 17.5644V18.5437H58.7015Z" fill="#B9F9DE"/>
<path d="M41.1216 30.7675V31.7468C41.1216 32.3261 41.5912 32.7956 42.1703 32.7956H57.6527C58.2319 32.7956 58.7014 32.326 58.7014 31.7468V30.7675H41.1216Z" fill="#B9F9DE"/>
<path d="M41.1216 22.3939H58.7015V26.9172H41.1216V22.3939Z" fill="#02FFB3"/>
<path d="M52.439 22.9837C52.439 21.5408 51.2301 20.3803 49.7697 20.46C48.5191 20.5283 47.4877 21.5351 47.3915 22.7838C47.3131 23.8018 47.8395 24.7023 48.6476 25.1704V27.5912C48.6476 28.2892 49.2134 28.8551 49.9114 28.8551C50.6094 28.8551 51.1752 28.2892 51.1752 27.5912V25.1704C51.9301 24.7331 52.439 23.9187 52.439 22.9837Z" fill="#F19EFF"/>
<path d="M52.4384 22.9836C52.4384 23.24 52.4003 23.4863 52.3292 23.7187C52.0004 22.6396 50.9696 21.8664 49.7699 21.9324C48.7047 21.9908 47.7983 22.7297 47.4936 23.7187C47.4035 23.4267 47.3654 23.1118 47.3908 22.7843C47.4873 21.5351 48.5194 20.5283 49.7699 20.4598C51.2298 20.3798 52.4384 21.5401 52.4384 22.9836Z" fill="#F19EFF"/>
<defs>
<linearGradient id="paint0_linear" x1="-13.5" y1="17" x2="49.4482" y2="61.5723" gradientUnits="userSpaceOnUse">
<stop offset="0.0028" stop-color="#FC6B1A" stop-opacity="0.9"/>
<stop offset="1" stop-color="#FFB649" stop-opacity="0.74"/>
</linearGradient>
</defs>
</svg>
