<svg width="482" height="198" viewBox="0 0 482 198" fill="none" xmlns="http://www.w3.org/2000/svg">
<path d="M184.191 89.0911H143.952L143.526 76.7191C143.507 76.1828 143.605 75.6489 143.813 75.154C144.021 74.6592 144.333 74.2153 144.729 73.8528C145.125 73.4903 145.594 73.2178 146.105 73.0541C146.616 72.8904 147.157 72.8395 147.689 72.9047L171.105 75.772H171.108C174.58 75.7813 177.906 77.1663 180.358 79.6236C182.811 82.0808 184.189 85.4099 184.191 88.8815V89.0911Z" fill="#FF7B0D"/>
<path d="M166.257 45.2059H138.192C137.819 45.2058 137.449 45.2792 137.104 45.422C136.76 45.5648 136.446 45.7741 136.182 46.038C135.918 46.302 135.709 46.6153 135.566 46.9602C135.423 47.305 135.35 47.6746 135.35 48.0479V76.1124C135.35 76.4856 135.423 76.8552 135.566 77.2C135.709 77.5449 135.918 77.8582 136.182 78.1222C136.446 78.3861 136.76 78.5954 137.104 78.7382C137.449 78.881 137.819 78.9544 138.192 78.9543H166.257C166.63 78.9544 166.999 78.881 167.344 78.7382C167.689 78.5954 168.002 78.3861 168.266 78.1222C168.53 77.8582 168.74 77.5449 168.882 77.2001C169.025 76.8552 169.099 76.4856 169.099 76.1124V48.0479C169.099 47.6746 169.025 47.305 168.882 46.9602C168.74 46.6153 168.53 46.302 168.266 46.038C168.002 45.7741 167.689 45.5648 167.344 45.422C166.999 45.2792 166.63 45.2058 166.257 45.2059Z" fill="#CCCCCC"/>
<path d="M159.936 66.1913L146.686 68.7717C145.9 68.9238 145.085 68.758 144.422 68.3105C143.758 67.8631 143.298 67.1706 143.144 66.3849L142.126 61.1545C141.974 60.3685 142.14 59.5543 142.587 58.8904C143.034 58.2265 143.727 57.7673 144.513 57.6134L157.763 55.033C158.549 54.8809 159.363 55.0467 160.027 55.4942C160.691 55.9416 161.15 56.6341 161.304 57.4198L162.323 62.6502C162.475 63.4362 162.309 64.2504 161.862 64.9143C161.414 65.5781 160.722 66.0374 159.936 66.1913Z" fill="#3F3D56"/>
<path d="M157.285 60.0123L147.173 61.9816C146.988 62.0176 146.796 61.9786 146.64 61.8733C146.484 61.768 146.376 61.6049 146.34 61.42C146.304 61.235 146.343 61.0433 146.448 60.887C146.553 60.7308 146.716 60.6228 146.901 60.5868L157.014 58.6175C157.199 58.5815 157.39 58.6205 157.546 58.7258C157.703 58.8311 157.811 58.9942 157.847 59.1791C157.883 59.3641 157.844 59.5558 157.739 59.712C157.633 59.8683 157.47 59.9763 157.285 60.0123Z" fill="white"/>
<path d="M155.319 62.9283L150.089 63.9468C149.904 63.9829 149.712 63.9439 149.556 63.8386C149.4 63.7333 149.292 63.5702 149.256 63.3852C149.22 63.2003 149.259 63.0086 149.364 62.8523C149.469 62.6961 149.632 62.5881 149.817 62.552L155.048 61.5335C155.139 61.5157 155.234 61.516 155.325 61.5346C155.416 61.5532 155.503 61.5896 155.581 61.6417C155.658 61.6939 155.724 61.7607 155.776 61.8385C155.827 61.9163 155.863 62.0035 155.881 62.0951C155.899 62.1867 155.898 62.2809 155.88 62.3723C155.861 62.4637 155.825 62.5506 155.773 62.628C155.721 62.7053 155.654 62.7717 155.576 62.8232C155.498 62.8747 155.411 62.9104 155.319 62.9283Z" fill="white"/>
<path d="M169.099 48.0479V51.7779H135.35V48.0479C135.35 47.6746 135.423 47.305 135.566 46.9602C135.709 46.6153 135.918 46.302 136.182 46.038C136.446 45.7741 136.76 45.5648 137.104 45.422C137.449 45.2792 137.819 45.2058 138.192 45.2059H166.257C166.63 45.2058 166.999 45.2792 167.344 45.422C167.689 45.5648 168.002 45.7741 168.266 46.038C168.53 46.302 168.74 46.6153 168.882 46.9602C169.025 47.305 169.099 47.6746 169.099 48.0479Z" fill="#B3B3B3"/>
<path d="M236.491 52.9458C236.296 52.3169 235.966 51.7384 235.523 51.2509C235.081 50.7635 234.537 50.379 233.929 50.1246C233.322 49.8702 232.666 49.7521 232.008 49.7785C231.351 49.8049 230.706 49.9752 230.121 50.2775L191.511 36.4248L189.811 46.0703L228.298 56.654C228.871 57.603 229.772 58.3089 230.831 58.6379C231.889 58.9668 233.032 58.8961 234.042 58.439C235.052 57.9819 235.859 57.1703 236.31 56.1579C236.762 55.1454 236.826 54.0026 236.491 52.9458Z" fill="#FFB8B8"/>
<path opacity="0.2" d="M236.491 52.9458C236.296 52.3169 235.966 51.7384 235.523 51.2509C235.081 50.7635 234.537 50.379 233.929 50.1246C233.322 49.8702 232.666 49.7521 232.008 49.7785C231.351 49.8049 230.706 49.9752 230.121 50.2775L191.511 36.4248L189.811 46.0703L228.298 56.654C228.871 57.603 229.772 58.3089 230.831 58.6379C231.889 58.9668 233.032 58.8961 234.042 58.439C235.052 57.9819 235.859 57.1703 236.31 56.1579C236.762 55.1454 236.826 54.0026 236.491 52.9458Z" fill="black"/>
<path d="M198.364 38.1824L194.718 47.7075C194.615 47.9785 194.454 48.224 194.247 48.4272C194.039 48.6304 193.791 48.7866 193.518 48.8851C193.245 48.9836 192.954 49.0221 192.665 48.998C192.376 48.9739 192.095 48.8878 191.842 48.7455L182.981 43.7581C181.597 43.2194 180.484 42.1541 179.885 40.7958C179.286 39.4374 179.249 37.8969 179.784 36.5119C180.319 35.1269 181.381 34.0105 182.738 33.4074C184.094 32.8043 185.635 32.7637 187.021 33.2946L196.916 35.4892C197.2 35.5521 197.466 35.6753 197.697 35.8505C197.929 36.0256 198.12 36.2486 198.257 36.5042C198.394 36.7598 198.475 37.042 198.494 37.3316C198.512 37.6212 198.468 37.9114 198.364 38.1824Z" fill="#FF7B0D"/>
<path d="M239.53 61.7656L225.695 68.0541L227.512 74.8922C231.019 88.0972 231.95 101.854 230.253 115.411L240.369 117.524L248.753 96.1429L245.819 71.8272L239.53 61.7656Z" fill="#FF7B0D"/>
<path d="M266.676 93.418C257.586 93.418 250.178 100.026 249.819 108.301H283.533C283.173 100.026 275.766 93.418 266.676 93.418Z" fill="#3F3D56"/>
<path d="M259.6 94.8442C259.127 57.4909 237.853 60.9273 237.853 60.9273C237.853 60.9273 238.251 72.5541 238.442 72.9157C251.999 98.5644 229.626 128.634 201.147 123.102C200.61 122.998 200.094 122.892 199.6 122.785C195.991 122.031 192.805 119.932 190.69 116.913C188.574 113.894 187.688 110.183 188.212 106.534C191.017 84.0059 177.064 84.4045 177.064 84.4045H156.661L146.066 74.8687C145.692 74.5321 145.241 74.2922 144.753 74.1701C144.265 74.048 143.754 74.0473 143.266 74.1681C142.777 74.2889 142.326 74.5276 141.951 74.8632C141.576 75.1988 141.289 75.6211 141.115 76.0932L139.752 79.793C139.752 79.793 119.629 81.8891 121.306 101.593H127.527C127.512 102.153 127.535 102.713 127.594 103.27L174.025 102.893C176.747 102.871 179.149 105.076 179.16 107.798C179.163 108.46 179.032 109.117 178.775 109.727C178.519 110.338 178.141 110.891 177.666 111.353C177.191 111.814 176.627 112.175 176.009 112.414C175.391 112.653 174.731 112.765 174.069 112.743L166.583 112.493C164.277 122.765 169.937 129.682 176.173 134.032C182.045 138.067 189.012 140.207 196.136 140.163H216.472C242.884 140.163 247.496 117.943 247.496 117.943C261.33 112.074 259.6 94.8442 259.6 94.8442Z" fill="#535668" fill-opacity="0.7"/>
<path d="M259.39 94.8468L259.39 94.856L259.391 94.8651L259.391 94.8656L259.391 94.8676L259.392 94.8762L259.395 94.9119C259.397 94.9262 259.398 94.9436 259.4 94.9641C259.402 94.9895 259.404 95.0196 259.407 95.0543C259.416 95.1799 259.428 95.3657 259.438 95.6048C259.458 96.0829 259.471 96.7737 259.444 97.6214C259.391 99.3175 259.176 101.639 258.533 104.141C257.246 109.144 254.25 114.85 247.414 117.75L247.313 117.793L247.29 117.901L247.29 117.901L247.29 117.904L247.287 117.915L247.277 117.961C247.268 118.002 247.254 118.063 247.234 118.143C247.194 118.303 247.133 118.539 247.045 118.839C246.869 119.441 246.588 120.302 246.168 121.336C245.329 123.405 243.937 126.164 241.725 128.922C237.307 134.432 229.609 139.953 216.472 139.953L196.136 139.953L196.135 139.953C189.053 139.997 182.128 137.87 176.292 133.859C170.124 129.557 164.571 122.767 166.75 112.709L174.062 112.952C174.752 112.975 175.44 112.859 176.085 112.61C176.729 112.361 177.317 111.984 177.812 111.503C178.308 111.022 178.701 110.446 178.969 109.809C179.236 109.172 179.373 108.488 179.37 107.797C179.358 104.95 176.852 102.66 174.023 102.683L127.784 103.059C127.739 102.574 127.724 102.086 127.737 101.599L127.743 101.384H127.527H121.499C121.123 96.5879 122.057 92.8654 123.664 89.9762C125.293 87.0469 127.623 84.9617 130.011 83.4823C132.399 82.0025 134.842 81.1315 136.689 80.6307C137.612 80.3804 138.385 80.2229 138.927 80.128C139.198 80.0806 139.41 80.0488 139.555 80.029C139.627 80.0191 139.683 80.0121 139.72 80.0077L139.761 80.0029L139.771 80.0018L139.773 80.0015L139.774 80.0015L139.752 79.793L139.774 80.0015L139.904 79.9879L139.949 79.8654L141.312 76.1657C141.474 75.7257 141.742 75.3321 142.091 75.0193C142.44 74.7066 142.861 74.4842 143.316 74.3716C143.771 74.259 144.247 74.2596 144.702 74.3734C145.157 74.4873 145.577 74.7108 145.926 75.0245L156.521 84.5603L156.581 84.6142H156.661H177.064V84.6142L177.07 84.6141L177.07 84.6141L177.071 84.614L177.078 84.6139L177.105 84.6137C177.115 84.6137 177.127 84.6137 177.142 84.6138C177.162 84.614 177.187 84.6144 177.215 84.6151C177.312 84.6176 177.456 84.6241 177.64 84.6402C178.007 84.6725 178.53 84.7434 179.15 84.8977C180.39 85.2063 182.014 85.8479 183.553 87.1797C186.619 89.8342 189.401 95.2846 188.004 106.506C187.474 110.207 188.372 113.971 190.518 117.033C192.664 120.095 195.896 122.225 199.556 122.99C200.052 123.097 200.569 123.203 201.107 123.308C229.754 128.872 252.26 98.6321 238.634 72.8297C238.633 72.8258 238.632 72.8193 238.63 72.8094C238.625 72.7832 238.619 72.7454 238.612 72.6949C238.599 72.5945 238.586 72.4547 238.571 72.2795C238.542 71.9298 238.511 71.4481 238.479 70.8782C238.415 69.7389 238.347 68.2529 238.286 66.7772C238.224 65.3017 238.168 63.8374 238.128 62.742C238.108 62.1943 238.091 61.7388 238.08 61.4202L238.069 61.1111C238.083 61.1096 238.098 61.108 238.114 61.1064C238.265 61.0908 238.49 61.0725 238.776 61.0621C239.349 61.0415 240.17 61.0529 241.157 61.1819C243.133 61.4399 245.773 62.168 248.428 64.0493C253.73 67.8061 259.154 76.2074 259.39 94.8468Z" stroke="black" stroke-opacity="0.3" stroke-width="0.419236"/>
<path d="M285.856 128.738C285.856 140.026 276.705 149.176 265.418 149.176C254.13 149.176 244.98 140.026 244.98 128.738C244.98 117.451 254.13 108.301 265.418 108.301C276.705 108.301 285.856 117.451 285.856 128.738Z" stroke="#3F3D56" stroke-width="6.28853"/>
<path d="M265.418 134.518C268.61 134.518 271.198 131.931 271.198 128.738C271.198 125.546 268.61 122.959 265.418 122.959C262.226 122.959 259.638 125.546 259.638 128.738C259.638 131.931 262.226 134.518 265.418 134.518Z" fill="white"/>
<path d="M170.356 125.175C170.356 138.431 159.611 149.176 146.355 149.176C133.1 149.176 122.354 138.431 122.354 125.175C122.354 111.92 133.1 101.174 146.355 101.174C159.611 101.174 170.356 111.92 170.356 125.175Z" stroke="#3F3D56" stroke-width="6.28853"/>
<path d="M146.355 131.828C150.03 131.828 153.009 128.85 153.009 125.175C153.009 121.501 150.03 118.522 146.355 118.522C142.681 118.522 139.702 121.501 139.702 125.175C139.702 128.85 142.681 131.828 146.355 131.828Z" fill="white"/>
<path d="M225.735 69.9122L220.757 56.3921C220.497 55.6875 220.379 54.9386 220.409 54.1884C220.439 53.4381 220.617 52.7011 220.932 52.0194C221.246 51.3377 221.692 50.7247 222.244 50.2154C222.796 49.7061 223.443 49.3104 224.147 49.051L238.418 43.7974C239.658 43.3409 240.975 43.133 242.296 43.1857C243.616 43.2383 244.913 43.5505 246.112 44.1044C247.312 44.6582 248.39 45.4429 249.286 46.4136C250.183 47.3844 250.879 48.5221 251.335 49.7619C251.747 50.8747 251.957 52.0519 251.956 53.2384C251.951 54.745 251.61 56.2314 250.958 57.5897C250.307 58.948 249.36 60.144 248.188 61.0907C247.342 61.7698 246.39 62.3064 245.371 62.6792L225.735 69.9122Z" fill="#3F3D56"/>
<path d="M251.747 53.2384C251.746 54.7143 251.413 56.1711 250.775 57.5017C250.137 58.8323 249.208 60.0028 248.057 60.9272C246.292 60.4616 244.649 59.6171 243.244 58.4525C241.838 57.2879 240.702 55.8311 239.916 54.1834C239.13 52.5357 238.713 50.7365 238.692 48.9111C238.672 47.0856 239.049 45.2776 239.798 43.6127C241.236 43.3 242.726 43.3134 244.158 43.6517C245.59 43.9901 246.929 44.6449 248.075 45.5681C249.221 46.4913 250.145 47.6594 250.781 48.9868C251.416 50.3141 251.746 51.7668 251.747 53.2384Z" fill="#FF7B0D"/>
<path d="M124.869 104.318C128.111 104.318 130.739 101.127 130.739 97.1911C130.739 93.255 128.111 90.0641 124.869 90.0641C121.628 90.0641 119 93.255 119 97.1911C119 101.127 121.628 104.318 124.869 104.318Z" fill="#FF7B0D"/>
<path d="M202.453 122.419H207.593L210.039 109.089L202.453 109.089L202.453 122.419Z" fill="#FFB8B8"/>
<path d="M201.142 120.741L211.264 120.74H211.265C212.112 120.74 212.951 120.907 213.733 121.231C214.516 121.555 215.227 122.031 215.826 122.63C216.425 123.229 216.9 123.94 217.224 124.722C217.548 125.505 217.715 126.344 217.715 127.191V127.4L201.143 127.401L201.142 120.741Z" fill="#55546A"/>
<path d="M208.419 116.948C208.36 116.948 208.299 116.945 208.239 116.939L201.126 116.421C200.838 116.394 200.561 116.302 200.314 116.151C200.068 116 199.86 115.795 199.706 115.55C199.551 115.306 199.455 115.03 199.424 114.742C199.394 114.455 199.43 114.165 199.529 113.893L209.049 92.5063C209.117 92.3156 209.144 92.1129 209.13 91.911C209.116 91.709 209.06 91.5122 208.966 91.3329C208.873 91.1515 208.741 90.9919 208.582 90.8648C208.422 90.7376 208.237 90.6457 208.039 90.5952C203.563 89.4251 192.078 86.3095 182.136 82.6641C177.877 81.1022 175.194 78.8451 174.163 75.9555C172.803 72.1459 174.815 68.6717 174.901 68.5259L174.968 68.4117L184.323 69.262L194.465 70.1247L216.69 82.0426C218.553 83.0497 219.967 84.7213 220.652 86.7245C221.338 88.7278 221.243 90.9156 220.387 92.8522L210.141 115.83C209.993 116.162 209.751 116.445 209.446 116.643C209.14 116.842 208.784 116.947 208.419 116.948Z" fill="#55546A"/>
<path d="M185.95 26.9492C191.637 26.9492 196.247 22.3391 196.247 16.6523C196.247 10.9655 191.637 6.35547 185.95 6.35547C180.263 6.35547 175.653 10.9655 175.653 16.6523C175.653 22.3391 180.263 26.9492 185.95 26.9492Z" fill="#FFB8B8"/>
<path d="M199.519 123.677H204.659L207.104 110.346L199.518 110.347L199.519 123.677Z" fill="#FFB8B8"/>
<path d="M198.208 121.999L208.33 121.998H208.33C209.177 121.998 210.016 122.165 210.799 122.489C211.581 122.813 212.292 123.289 212.891 123.888C213.49 124.487 213.966 125.198 214.29 125.98C214.614 126.763 214.781 127.602 214.781 128.449V128.658L198.208 128.659L198.208 121.999Z" fill="#55546A"/>
<path d="M205.485 118.206C205.425 118.206 205.365 118.203 205.305 118.197L198.192 117.679C197.904 117.652 197.626 117.56 197.38 117.409C197.134 117.258 196.925 117.052 196.771 116.808C196.617 116.564 196.52 116.288 196.49 116C196.459 115.713 196.495 115.423 196.595 115.151L206.114 93.7642C206.182 93.5735 206.21 93.3709 206.196 93.1689C206.181 92.967 206.126 92.7702 206.032 92.5908C205.938 92.4094 205.807 92.2499 205.647 92.1227C205.487 91.9956 205.302 91.9037 205.105 91.8531C200.628 90.683 189.143 87.5674 179.202 83.922C174.942 82.3601 172.26 80.103 171.228 77.2134C169.869 73.4038 171.88 69.9296 171.966 69.7838L172.034 69.6696L181.389 70.52L191.531 71.3826L213.756 83.3005C215.618 84.3076 217.033 85.9792 217.718 87.9825C218.403 89.9857 218.308 92.1735 217.453 94.1101L207.206 117.087C207.058 117.42 206.817 117.703 206.511 117.901C206.206 118.1 205.849 118.205 205.485 118.206Z" fill="#55546A"/>
<path d="M189.126 32.7876L178.226 29.0145C178.226 29.0145 171.383 34.2717 174.67 47.3136C176.386 54.0436 175.886 61.1477 173.245 67.5711C172.927 68.3659 172.56 69.1403 172.147 69.89C172.147 69.89 184.305 84.5632 195.624 73.6631L191.222 52.4917C191.222 52.4917 198.139 38.4473 189.126 32.7876Z" fill="#FF7B0D"/>
<path d="M187.229 27.2992C185.763 25.1057 184.606 22.064 186.22 19.9769C187.813 17.9167 190.954 18.2202 193.393 17.3086C196.791 16.0389 198.761 12.0475 198.147 8.47295C197.532 4.8984 194.663 1.93521 191.244 0.722772C187.826 -0.48967 183.971 -0.0953554 180.624 1.30085C176.503 3.01959 172.968 6.34437 171.486 10.556C170.004 14.7676 170.796 19.8245 173.871 23.0616C177.168 26.5322 182.342 27.4571 187.128 27.401" fill="#55546A"/>
<path d="M177.65 8.5877C175.804 10.091 172.986 9.42331 171.004 8.10395C169.022 6.7846 167.413 4.90591 165.268 3.87149C161.487 2.04784 156.916 3.26015 153.236 5.28016C149.556 7.30018 146.293 10.0909 142.406 11.6761C138.519 13.2613 133.559 13.3396 130.615 10.3464C129.891 12.4451 129.832 14.7161 130.446 16.8496C131.06 18.9831 132.317 20.8752 134.046 22.2678C135.775 23.6603 137.892 24.4855 140.107 24.6308C142.322 24.776 144.529 24.2342 146.425 23.0792C150.684 20.4848 153.036 15.0451 157.814 13.6132C160.457 12.8208 163.296 13.459 165.967 14.1502C168.639 14.8415 171.425 15.5884 174.121 14.9999C176.817 14.4115 179.339 11.9885 178.996 9.25021L177.65 8.5877Z" fill="#55546A"/>
<path d="M235.979 52.5266C235.708 51.9265 235.309 51.3932 234.809 50.9641C234.31 50.535 233.722 50.2206 233.088 50.043C232.454 49.8655 231.789 49.8291 231.14 49.9365C230.49 50.0439 229.872 50.2924 229.329 50.6645L189.304 41.6815L188.807 51.4631L228.306 57.2173C228.992 58.0884 229.973 58.6777 231.064 58.8735C232.155 59.0694 233.28 58.8582 234.226 58.28C235.172 57.7018 235.872 56.7968 236.196 55.7364C236.519 54.676 236.442 53.5339 235.979 52.5266Z" fill="#FFB8B8"/>
<path d="M196.322 42.5801L193.879 52.4823C193.809 52.764 193.68 53.0275 193.499 53.2547C193.319 53.4819 193.092 53.6675 192.833 53.799C192.574 53.9304 192.29 54.0045 192 54.0163C191.71 54.0281 191.421 53.9772 191.153 53.8672L181.744 50.0112C180.304 49.6482 179.066 48.7286 178.303 47.4543C177.54 46.1799 177.314 44.6549 177.674 43.2138C178.034 41.7728 178.951 40.5334 180.223 39.7676C181.496 39.0018 183.021 38.7722 184.462 39.1291L194.552 40.0861C194.841 40.1135 195.121 40.203 195.372 40.3483C195.623 40.4935 195.84 40.6912 196.008 40.9279C196.176 41.1646 196.291 41.4347 196.345 41.7198C196.399 42.0049 196.391 42.2983 196.322 42.58V42.5801Z" fill="#FF7B0D"/>
<path d="M231.355 60.2983C232.976 60.2983 234.29 58.9844 234.29 57.3636C234.29 55.7428 232.976 54.429 231.355 54.429C229.734 54.429 228.42 55.7428 228.42 57.3636C228.42 58.9844 229.734 60.2983 231.355 60.2983Z" fill="#FF7B0D"/>
<g filter="url(#filter0_d)">
<rect x="282" y="108" width="140" height="40" rx="5" fill="#313446"/>
</g>
<path d="M327.432 123L326.2 120.824H325.672V123H324.552V117.416H326.648C327.08 117.416 327.448 117.493 327.752 117.648C328.056 117.797 328.283 118.003 328.432 118.264C328.587 118.52 328.664 118.808 328.664 119.128C328.664 119.496 328.557 119.829 328.344 120.128C328.131 120.421 327.813 120.624 327.392 120.736L328.728 123H327.432ZM325.672 119.984H326.608C326.912 119.984 327.139 119.912 327.288 119.768C327.437 119.619 327.512 119.413 327.512 119.152C327.512 118.896 327.437 118.699 327.288 118.56C327.139 118.416 326.912 118.344 326.608 118.344H325.672V119.984ZM333.797 120.688C333.797 120.848 333.786 120.992 333.765 121.12H330.525C330.552 121.44 330.664 121.691 330.861 121.872C331.058 122.053 331.301 122.144 331.589 122.144C332.005 122.144 332.301 121.965 332.477 121.608H333.685C333.557 122.035 333.312 122.387 332.949 122.664C332.586 122.936 332.141 123.072 331.613 123.072C331.186 123.072 330.802 122.979 330.461 122.792C330.125 122.6 329.861 122.331 329.669 121.984C329.482 121.637 329.389 121.237 329.389 120.784C329.389 120.325 329.482 119.923 329.669 119.576C329.856 119.229 330.117 118.963 330.453 118.776C330.789 118.589 331.176 118.496 331.613 118.496C332.034 118.496 332.41 118.587 332.741 118.768C333.077 118.949 333.336 119.208 333.517 119.544C333.704 119.875 333.797 120.256 333.797 120.688ZM332.637 120.368C332.632 120.08 332.528 119.851 332.325 119.68C332.122 119.504 331.874 119.416 331.581 119.416C331.304 119.416 331.069 119.501 330.877 119.672C330.69 119.837 330.576 120.069 330.533 120.368H332.637ZM335.735 117.08V123H334.615V117.08H335.735ZM337.409 118.04C337.212 118.04 337.046 117.979 336.913 117.856C336.785 117.728 336.721 117.571 336.721 117.384C336.721 117.197 336.785 117.043 336.913 116.92C337.046 116.792 337.212 116.728 337.409 116.728C337.606 116.728 337.769 116.792 337.897 116.92C338.03 117.043 338.097 117.197 338.097 117.384C338.097 117.571 338.03 117.728 337.897 117.856C337.769 117.979 337.606 118.04 337.409 118.04ZM337.961 118.568V123H336.841V118.568H337.961ZM338.78 120.768C338.78 120.32 338.868 119.923 339.044 119.576C339.225 119.229 339.468 118.963 339.772 118.776C340.081 118.589 340.425 118.496 340.804 118.496C341.134 118.496 341.422 118.563 341.668 118.696C341.918 118.829 342.118 118.997 342.268 119.2V118.568H343.396V123H342.268V122.352C342.124 122.56 341.924 122.733 341.668 122.872C341.417 123.005 341.126 123.072 340.796 123.072C340.422 123.072 340.081 122.976 339.772 122.784C339.468 122.592 339.225 122.323 339.044 121.976C338.868 121.624 338.78 121.221 338.78 120.768ZM342.268 120.784C342.268 120.512 342.214 120.28 342.108 120.088C342.001 119.891 341.857 119.741 341.676 119.64C341.494 119.533 341.3 119.48 341.092 119.48C340.884 119.48 340.692 119.531 340.516 119.632C340.34 119.733 340.196 119.883 340.084 120.08C339.977 120.272 339.924 120.501 339.924 120.768C339.924 121.035 339.977 121.269 340.084 121.472C340.196 121.669 340.34 121.821 340.516 121.928C340.697 122.035 340.889 122.088 341.092 122.088C341.3 122.088 341.494 122.037 341.676 121.936C341.857 121.829 342.001 121.68 342.108 121.488C342.214 121.291 342.268 121.056 342.268 120.784ZM345.61 119.216C345.754 119.003 345.951 118.829 346.202 118.696C346.458 118.563 346.748 118.496 347.074 118.496C347.452 118.496 347.794 118.589 348.098 118.776C348.407 118.963 348.65 119.229 348.826 119.576C349.007 119.917 349.098 120.315 349.098 120.768C349.098 121.221 349.007 121.624 348.826 121.976C348.65 122.323 348.407 122.592 348.098 122.784C347.794 122.976 347.452 123.072 347.074 123.072C346.743 123.072 346.452 123.008 346.202 122.88C345.956 122.747 345.759 122.576 345.61 122.368V123H344.49V117.08H345.61V119.216ZM347.954 120.768C347.954 120.501 347.898 120.272 347.786 120.08C347.679 119.883 347.535 119.733 347.354 119.632C347.178 119.531 346.986 119.48 346.778 119.48C346.575 119.48 346.383 119.533 346.202 119.64C346.026 119.741 345.882 119.891 345.77 120.088C345.663 120.285 345.61 120.517 345.61 120.784C345.61 121.051 345.663 121.283 345.77 121.48C345.882 121.677 346.026 121.829 346.202 121.936C346.383 122.037 346.575 122.088 346.778 122.088C346.986 122.088 347.178 122.035 347.354 121.928C347.535 121.821 347.679 121.669 347.786 121.472C347.898 121.275 347.954 121.04 347.954 120.768ZM351.031 117.08V123H349.911V117.08H351.031ZM356.258 120.688C356.258 120.848 356.247 120.992 356.226 121.12H352.986C353.013 121.44 353.125 121.691 353.322 121.872C353.519 122.053 353.762 122.144 354.05 122.144C354.466 122.144 354.762 121.965 354.938 121.608H356.146C356.018 122.035 355.773 122.387 355.41 122.664C355.047 122.936 354.602 123.072 354.074 123.072C353.647 123.072 353.263 122.979 352.922 122.792C352.586 122.6 352.322 122.331 352.13 121.984C351.943 121.637 351.85 121.237 351.85 120.784C351.85 120.325 351.943 119.923 352.13 119.576C352.317 119.229 352.578 118.963 352.914 118.776C353.25 118.589 353.637 118.496 354.074 118.496C354.495 118.496 354.871 118.587 355.202 118.768C355.538 118.949 355.797 119.208 355.978 119.544C356.165 119.875 356.258 120.256 356.258 120.688ZM355.098 120.368C355.093 120.08 354.989 119.851 354.786 119.68C354.583 119.504 354.335 119.416 354.042 119.416C353.765 119.416 353.53 119.501 353.338 119.672C353.151 119.837 353.037 120.069 352.994 120.368H355.098Z" fill="white"/>
<path d="M324.9 129.148V130.714H326.49V131.062H324.9V132.652H326.67V133H324.48V128.8H326.67V129.148H324.9ZM329.214 133L328.368 131.68L327.552 133H327.108L328.164 131.362L327.12 129.724H327.594L328.428 131.026L329.238 129.724H329.676L328.632 131.344L329.688 133H329.214ZM330.671 130.444C330.775 130.224 330.939 130.042 331.163 129.898C331.391 129.75 331.661 129.676 331.973 129.676C332.269 129.676 332.535 129.746 332.771 129.886C333.011 130.022 333.197 130.218 333.329 130.474C333.465 130.726 333.533 131.02 333.533 131.356C333.533 131.692 333.465 131.988 333.329 132.244C333.197 132.5 333.011 132.698 332.771 132.838C332.535 132.978 332.269 133.048 331.973 133.048C331.665 133.048 331.397 132.976 331.169 132.832C330.941 132.684 330.775 132.5 330.671 132.28V134.548H330.257V129.724H330.671V130.444ZM333.107 131.356C333.107 131.084 333.053 130.85 332.945 130.654C332.841 130.454 332.697 130.302 332.513 130.198C332.329 130.094 332.121 130.042 331.889 130.042C331.665 130.042 331.459 130.096 331.271 130.204C331.087 130.312 330.941 130.466 330.833 130.666C330.725 130.866 330.671 131.098 330.671 131.362C330.671 131.626 330.725 131.858 330.833 132.058C330.941 132.258 331.087 132.412 331.271 132.52C331.459 132.628 331.665 132.682 331.889 132.682C332.121 132.682 332.329 132.63 332.513 132.526C332.697 132.418 332.841 132.264 332.945 132.064C333.053 131.86 333.107 131.624 333.107 131.356ZM337.27 131.194C337.27 131.338 337.266 131.448 337.258 131.524H334.54C334.552 131.772 334.612 131.984 334.72 132.16C334.828 132.336 334.97 132.47 335.146 132.562C335.322 132.65 335.514 132.694 335.722 132.694C335.994 132.694 336.222 132.628 336.406 132.496C336.594 132.364 336.718 132.186 336.778 131.962H337.222C337.142 132.282 336.97 132.544 336.706 132.748C336.446 132.948 336.118 133.048 335.722 133.048C335.414 133.048 335.138 132.98 334.894 132.844C334.65 132.704 334.458 132.508 334.318 132.256C334.182 132 334.114 131.702 334.114 131.362C334.114 131.022 334.182 130.724 334.318 130.468C334.454 130.212 334.644 130.016 334.888 129.88C335.132 129.744 335.41 129.676 335.722 129.676C336.034 129.676 336.306 129.744 336.538 129.88C336.774 130.016 336.954 130.2 337.078 130.432C337.206 130.66 337.27 130.914 337.27 131.194ZM336.844 131.182C336.848 130.938 336.798 130.73 336.694 130.558C336.594 130.386 336.456 130.256 336.28 130.168C336.104 130.08 335.912 130.036 335.704 130.036C335.392 130.036 335.126 130.136 334.906 130.336C334.686 130.536 334.564 130.818 334.54 131.182H336.844ZM338.459 130.306C338.551 130.102 338.691 129.944 338.879 129.832C339.071 129.72 339.305 129.664 339.581 129.664V130.102H339.467C339.163 130.102 338.919 130.184 338.735 130.348C338.551 130.512 338.459 130.786 338.459 131.17V133H338.039V129.724H338.459V130.306ZM340.422 129.106C340.338 129.106 340.266 129.076 340.206 129.016C340.146 128.956 340.116 128.882 340.116 128.794C340.116 128.706 340.146 128.634 340.206 128.578C340.266 128.518 340.338 128.488 340.422 128.488C340.506 128.488 340.578 128.518 340.638 128.578C340.698 128.634 340.728 128.706 340.728 128.794C340.728 128.882 340.698 128.956 340.638 129.016C340.578 129.076 340.506 129.106 340.422 129.106ZM340.632 129.724V133H340.212V129.724H340.632ZM344.548 131.194C344.548 131.338 344.544 131.448 344.536 131.524H341.818C341.83 131.772 341.89 131.984 341.998 132.16C342.106 132.336 342.248 132.47 342.424 132.562C342.6 132.65 342.792 132.694 343 132.694C343.272 132.694 343.5 132.628 343.684 132.496C343.872 132.364 343.996 132.186 344.056 131.962H344.5C344.42 132.282 344.248 132.544 343.984 132.748C343.724 132.948 343.396 133.048 343 133.048C342.692 133.048 342.416 132.98 342.172 132.844C341.928 132.704 341.736 132.508 341.596 132.256C341.46 132 341.392 131.702 341.392 131.362C341.392 131.022 341.46 130.724 341.596 130.468C341.732 130.212 341.922 130.016 342.166 129.88C342.41 129.744 342.688 129.676 343 129.676C343.312 129.676 343.584 129.744 343.816 129.88C344.052 130.016 344.232 130.2 344.356 130.432C344.484 130.66 344.548 130.914 344.548 131.194ZM344.122 131.182C344.126 130.938 344.076 130.73 343.972 130.558C343.872 130.386 343.734 130.256 343.558 130.168C343.382 130.08 343.19 130.036 342.982 130.036C342.67 130.036 342.404 130.136 342.184 130.336C341.964 130.536 341.842 130.818 341.818 131.182H344.122ZM346.852 129.664C347.244 129.664 347.564 129.786 347.812 130.03C348.06 130.27 348.184 130.62 348.184 131.08V133H347.77V131.128C347.77 130.772 347.68 130.5 347.5 130.312C347.324 130.124 347.082 130.03 346.774 130.03C346.458 130.03 346.206 130.13 346.018 130.33C345.83 130.53 345.736 130.824 345.736 131.212V133H345.316V129.724H345.736V130.282C345.84 130.082 345.99 129.93 346.186 129.826C346.382 129.718 346.604 129.664 346.852 129.664ZM348.921 131.362C348.921 131.022 348.989 130.726 349.125 130.474C349.261 130.218 349.449 130.022 349.689 129.886C349.929 129.746 350.203 129.676 350.511 129.676C350.915 129.676 351.247 129.776 351.507 129.976C351.771 130.176 351.941 130.448 352.017 130.792H351.567C351.511 130.556 351.389 130.372 351.201 130.24C351.017 130.104 350.787 130.036 350.511 130.036C350.291 130.036 350.093 130.086 349.917 130.186C349.741 130.286 349.601 130.436 349.497 130.636C349.397 130.832 349.347 131.074 349.347 131.362C349.347 131.65 349.397 131.894 349.497 132.094C349.601 132.294 349.741 132.444 349.917 132.544C350.093 132.644 350.291 132.694 350.511 132.694C350.787 132.694 351.017 132.628 351.201 132.496C351.389 132.36 351.511 132.172 351.567 131.932H352.017C351.941 132.268 351.771 132.538 351.507 132.742C351.243 132.946 350.911 133.048 350.511 133.048C350.203 133.048 349.929 132.98 349.689 132.844C349.449 132.704 349.261 132.508 349.125 132.256C348.989 132 348.921 131.702 348.921 131.362ZM355.757 131.194C355.757 131.338 355.753 131.448 355.745 131.524H353.027C353.039 131.772 353.099 131.984 353.207 132.16C353.315 132.336 353.457 132.47 353.633 132.562C353.809 132.65 354.001 132.694 354.209 132.694C354.481 132.694 354.709 132.628 354.893 132.496C355.081 132.364 355.205 132.186 355.265 131.962H355.709C355.629 132.282 355.457 132.544 355.193 132.748C354.933 132.948 354.605 133.048 354.209 133.048C353.901 133.048 353.625 132.98 353.381 132.844C353.137 132.704 352.945 132.508 352.805 132.256C352.669 132 352.601 131.702 352.601 131.362C352.601 131.022 352.669 130.724 352.805 130.468C352.941 130.212 353.131 130.016 353.375 129.88C353.619 129.744 353.897 129.676 354.209 129.676C354.521 129.676 354.793 129.744 355.025 129.88C355.261 130.016 355.441 130.2 355.565 130.432C355.693 130.66 355.757 130.914 355.757 131.194ZM355.331 131.182C355.335 130.938 355.285 130.73 355.181 130.558C355.081 130.386 354.943 130.256 354.767 130.168C354.591 130.08 354.399 130.036 354.191 130.036C353.879 130.036 353.613 130.136 353.393 130.336C353.173 130.536 353.051 130.818 353.027 131.182H355.331ZM361.009 129.724V133H360.589V132.424C360.493 132.628 360.345 132.784 360.145 132.892C359.945 133 359.721 133.054 359.473 133.054C359.081 133.054 358.761 132.934 358.513 132.694C358.265 132.45 358.141 132.098 358.141 131.638V129.724H358.555V131.59C358.555 131.946 358.643 132.218 358.819 132.406C358.999 132.594 359.243 132.688 359.551 132.688C359.867 132.688 360.119 132.588 360.307 132.388C360.495 132.188 360.589 131.894 360.589 131.506V129.724H361.009ZM362.514 130.078V132.112C362.514 132.312 362.552 132.45 362.628 132.526C362.704 132.602 362.838 132.64 363.03 132.64H363.414V133H362.964C362.668 133 362.448 132.932 362.304 132.796C362.16 132.656 362.088 132.428 362.088 132.112V130.078H361.632V129.724H362.088V128.902H362.514V129.724H363.414V130.078H362.514ZM364.317 129.106C364.233 129.106 364.161 129.076 364.101 129.016C364.041 128.956 364.011 128.882 364.011 128.794C364.011 128.706 364.041 128.634 364.101 128.578C364.161 128.518 364.233 128.488 364.317 128.488C364.401 128.488 364.473 128.518 364.533 128.578C364.593 128.634 364.623 128.706 364.623 128.794C364.623 128.882 364.593 128.956 364.533 129.016C364.473 129.076 364.401 129.106 364.317 129.106ZM364.527 129.724V133H364.107V129.724H364.527ZM365.898 128.56V133H365.478V128.56H365.898ZM367.059 129.106C366.975 129.106 366.903 129.076 366.843 129.016C366.783 128.956 366.753 128.882 366.753 128.794C366.753 128.706 366.783 128.634 366.843 128.578C366.903 128.518 366.975 128.488 367.059 128.488C367.143 128.488 367.215 128.518 367.275 128.578C367.335 128.634 367.365 128.706 367.365 128.794C367.365 128.882 367.335 128.956 367.275 129.016C367.215 129.076 367.143 129.106 367.059 129.106ZM367.269 129.724V133H366.849V129.724H367.269ZM368.766 130.078V132.112C368.766 132.312 368.804 132.45 368.88 132.526C368.956 132.602 369.09 132.64 369.282 132.64H369.666V133H369.216C368.92 133 368.7 132.932 368.556 132.796C368.412 132.656 368.34 132.428 368.34 132.112V130.078H367.884V129.724H368.34V128.902H368.766V129.724H369.666V130.078H368.766ZM373.059 129.724L371.115 134.542H370.677L371.313 132.982L369.969 129.724H370.431L371.547 132.52L372.627 129.724H373.059ZM375.083 131.356C375.083 131.02 375.149 130.726 375.281 130.474C375.417 130.218 375.603 130.022 375.839 129.886C376.079 129.746 376.349 129.676 376.649 129.676C376.961 129.676 377.229 129.748 377.453 129.892C377.681 130.036 377.845 130.22 377.945 130.444V129.724H378.365V133H377.945V132.274C377.841 132.498 377.675 132.684 377.447 132.832C377.223 132.976 376.955 133.048 376.643 133.048C376.347 133.048 376.079 132.978 375.839 132.838C375.603 132.698 375.417 132.5 375.281 132.244C375.149 131.988 375.083 131.692 375.083 131.356ZM377.945 131.362C377.945 131.098 377.891 130.866 377.783 130.666C377.675 130.466 377.527 130.312 377.339 130.204C377.155 130.096 376.951 130.042 376.727 130.042C376.495 130.042 376.287 130.094 376.103 130.198C375.919 130.302 375.773 130.454 375.665 130.654C375.561 130.85 375.509 131.084 375.509 131.356C375.509 131.624 375.561 131.86 375.665 132.064C375.773 132.264 375.919 132.418 376.103 132.526C376.287 132.63 376.495 132.682 376.727 132.682C376.951 132.682 377.155 132.628 377.339 132.52C377.527 132.412 377.675 132.258 377.783 132.058C377.891 131.858 377.945 131.626 377.945 131.362ZM380.86 129.664C381.252 129.664 381.572 129.786 381.82 130.03C382.068 130.27 382.192 130.62 382.192 131.08V133H381.778V131.128C381.778 130.772 381.688 130.5 381.508 130.312C381.332 130.124 381.09 130.03 380.782 130.03C380.466 130.03 380.214 130.13 380.026 130.33C379.838 130.53 379.744 130.824 379.744 131.212V133H379.324V129.724H379.744V130.282C379.848 130.082 379.998 129.93 380.194 129.826C380.39 129.718 380.612 129.664 380.86 129.664ZM382.929 131.356C382.929 131.02 382.997 130.726 383.133 130.474C383.269 130.218 383.455 130.022 383.691 129.886C383.931 129.746 384.201 129.676 384.501 129.676C384.789 129.676 385.049 129.746 385.281 129.886C385.513 130.026 385.683 130.208 385.791 130.432V128.56H386.211V133H385.791V132.268C385.691 132.496 385.527 132.684 385.299 132.832C385.071 132.976 384.803 133.048 384.495 133.048C384.195 133.048 383.925 132.978 383.685 132.838C383.449 132.698 383.263 132.5 383.127 132.244C382.995 131.988 382.929 131.692 382.929 131.356ZM385.791 131.362C385.791 131.098 385.737 130.866 385.629 130.666C385.521 130.466 385.373 130.312 385.185 130.204C385.001 130.096 384.797 130.042 384.573 130.042C384.341 130.042 384.133 130.094 383.949 130.198C383.765 130.302 383.619 130.454 383.511 130.654C383.407 130.85 383.355 131.084 383.355 131.356C383.355 131.624 383.407 131.86 383.511 132.064C383.619 132.264 383.765 132.418 383.949 132.526C384.133 132.63 384.341 132.682 384.573 132.682C384.797 132.682 385.001 132.628 385.185 132.52C385.373 132.412 385.521 132.258 385.629 132.058C385.737 131.858 385.791 131.626 385.791 131.362ZM389.98 132.592L391.084 129.724H391.528L390.214 133H389.74L388.426 129.724H388.876L389.98 132.592ZM391.905 131.356C391.905 131.02 391.971 130.726 392.103 130.474C392.239 130.218 392.425 130.022 392.661 129.886C392.901 129.746 393.171 129.676 393.471 129.676C393.783 129.676 394.051 129.748 394.275 129.892C394.503 130.036 394.667 130.22 394.767 130.444V129.724H395.187V133H394.767V132.274C394.663 132.498 394.497 132.684 394.269 132.832C394.045 132.976 393.777 133.048 393.465 133.048C393.169 133.048 392.901 132.978 392.661 132.838C392.425 132.698 392.239 132.5 392.103 132.244C391.971 131.988 391.905 131.692 391.905 131.356ZM394.767 131.362C394.767 131.098 394.713 130.866 394.605 130.666C394.497 130.466 394.349 130.312 394.161 130.204C393.977 130.096 393.773 130.042 393.549 130.042C393.317 130.042 393.109 130.094 392.925 130.198C392.741 130.302 392.595 130.454 392.487 130.654C392.383 130.85 392.331 131.084 392.331 131.356C392.331 131.624 392.383 131.86 392.487 132.064C392.595 132.264 392.741 132.418 392.925 132.526C393.109 132.63 393.317 132.682 393.549 132.682C393.773 132.682 393.977 132.628 394.161 132.52C394.349 132.412 394.497 132.258 394.605 132.058C394.713 131.858 394.767 131.626 394.767 131.362ZM396.566 128.56V133H396.146V128.56H396.566ZM400.355 129.724V133H399.935V132.424C399.839 132.628 399.691 132.784 399.491 132.892C399.291 133 399.067 133.054 398.819 133.054C398.427 133.054 398.107 132.934 397.859 132.694C397.611 132.45 397.487 132.098 397.487 131.638V129.724H397.901V131.59C397.901 131.946 397.989 132.218 398.165 132.406C398.345 132.594 398.589 132.688 398.897 132.688C399.213 132.688 399.465 132.588 399.653 132.388C399.841 132.188 399.935 131.894 399.935 131.506V129.724H400.355ZM404.278 131.194C404.278 131.338 404.274 131.448 404.266 131.524H401.548C401.56 131.772 401.62 131.984 401.728 132.16C401.836 132.336 401.978 132.47 402.154 132.562C402.33 132.65 402.522 132.694 402.73 132.694C403.002 132.694 403.23 132.628 403.414 132.496C403.602 132.364 403.726 132.186 403.786 131.962H404.23C404.15 132.282 403.978 132.544 403.714 132.748C403.454 132.948 403.126 133.048 402.73 133.048C402.422 133.048 402.146 132.98 401.902 132.844C401.658 132.704 401.466 132.508 401.326 132.256C401.19 132 401.122 131.702 401.122 131.362C401.122 131.022 401.19 130.724 401.326 130.468C401.462 130.212 401.652 130.016 401.896 129.88C402.14 129.744 402.418 129.676 402.73 129.676C403.042 129.676 403.314 129.744 403.546 129.88C403.782 130.016 403.962 130.2 404.086 130.432C404.214 130.66 404.278 130.914 404.278 131.194ZM403.852 131.182C403.856 130.938 403.806 130.73 403.702 130.558C403.602 130.386 403.464 130.256 403.288 130.168C403.112 130.08 402.92 130.036 402.712 130.036C402.4 130.036 402.134 130.136 401.914 130.336C401.694 130.536 401.572 130.818 401.548 131.182H403.852ZM406.903 129.106C406.819 129.106 406.747 129.076 406.687 129.016C406.627 128.956 406.597 128.882 406.597 128.794C406.597 128.706 406.627 128.634 406.687 128.578C406.747 128.518 406.819 128.488 406.903 128.488C406.987 128.488 407.059 128.518 407.119 128.578C407.179 128.634 407.209 128.706 407.209 128.794C407.209 128.882 407.179 128.956 407.119 129.016C407.059 129.076 406.987 129.106 406.903 129.106ZM407.113 129.724V133H406.693V129.724H407.113ZM409.6 129.664C409.992 129.664 410.312 129.786 410.56 130.03C410.808 130.27 410.932 130.62 410.932 131.08V133H410.518V131.128C410.518 130.772 410.428 130.5 410.248 130.312C410.072 130.124 409.83 130.03 409.522 130.03C409.206 130.03 408.954 130.13 408.766 130.33C408.578 130.53 408.484 130.824 408.484 131.212V133H408.064V129.724H408.484V130.282C408.588 130.082 408.738 129.93 408.934 129.826C409.13 129.718 409.352 129.664 409.6 129.664ZM324.288 140.356C324.288 140.02 324.354 139.726 324.486 139.474C324.622 139.218 324.808 139.022 325.044 138.886C325.284 138.746 325.554 138.676 325.854 138.676C326.166 138.676 326.434 138.748 326.658 138.892C326.886 139.036 327.05 139.22 327.15 139.444V138.724H327.57V142H327.15V141.274C327.046 141.498 326.88 141.684 326.652 141.832C326.428 141.976 326.16 142.048 325.848 142.048C325.552 142.048 325.284 141.978 325.044 141.838C324.808 141.698 324.622 141.5 324.486 141.244C324.354 140.988 324.288 140.692 324.288 140.356ZM327.15 140.362C327.15 140.098 327.096 139.866 326.988 139.666C326.88 139.466 326.732 139.312 326.544 139.204C326.36 139.096 326.156 139.042 325.932 139.042C325.7 139.042 325.492 139.094 325.308 139.198C325.124 139.302 324.978 139.454 324.87 139.654C324.766 139.85 324.714 140.084 324.714 140.356C324.714 140.624 324.766 140.86 324.87 141.064C324.978 141.264 325.124 141.418 325.308 141.526C325.492 141.63 325.7 141.682 325.932 141.682C326.156 141.682 326.36 141.628 326.544 141.52C326.732 141.412 326.88 141.258 326.988 141.058C327.096 140.858 327.15 140.626 327.15 140.362ZM329.983 140.356C329.983 140.02 330.051 139.726 330.187 139.474C330.323 139.218 330.509 139.022 330.745 138.886C330.985 138.746 331.255 138.676 331.555 138.676C331.843 138.676 332.103 138.746 332.335 138.886C332.567 139.026 332.737 139.208 332.845 139.432V137.56H333.265V142H332.845V141.268C332.745 141.496 332.581 141.684 332.353 141.832C332.125 141.976 331.857 142.048 331.549 142.048C331.249 142.048 330.979 141.978 330.739 141.838C330.503 141.698 330.317 141.5 330.181 141.244C330.049 140.988 329.983 140.692 329.983 140.356ZM332.845 140.362C332.845 140.098 332.791 139.866 332.683 139.666C332.575 139.466 332.427 139.312 332.239 139.204C332.055 139.096 331.851 139.042 331.627 139.042C331.395 139.042 331.187 139.094 331.003 139.198C330.819 139.302 330.673 139.454 330.565 139.654C330.461 139.85 330.409 140.084 330.409 140.356C330.409 140.624 330.461 140.86 330.565 141.064C330.673 141.264 330.819 141.418 331.003 141.526C331.187 141.63 331.395 141.682 331.627 141.682C331.851 141.682 332.055 141.628 332.239 141.52C332.427 141.412 332.575 141.258 332.683 141.058C332.791 140.858 332.845 140.626 332.845 140.362ZM334.434 138.106C334.35 138.106 334.278 138.076 334.218 138.016C334.158 137.956 334.128 137.882 334.128 137.794C334.128 137.706 334.158 137.634 334.218 137.578C334.278 137.518 334.35 137.488 334.434 137.488C334.518 137.488 334.59 137.518 334.65 137.578C334.71 137.634 334.74 137.706 334.74 137.794C334.74 137.882 334.71 137.956 334.65 138.016C334.59 138.076 334.518 138.106 334.434 138.106ZM334.644 138.724V142H334.224V138.724H334.644ZM336.885 139.078H336.123V142H335.703V139.078H335.247V138.724H335.703V138.496C335.703 138.14 335.793 137.878 335.973 137.71C336.157 137.542 336.453 137.458 336.861 137.458V137.818C336.589 137.818 336.397 137.87 336.285 137.974C336.177 138.078 336.123 138.252 336.123 138.496V138.724H336.885V139.078ZM338.836 139.078H338.074V142H337.654V139.078H337.198V138.724H337.654V138.496C337.654 138.14 337.744 137.878 337.924 137.71C338.108 137.542 338.404 137.458 338.812 137.458V137.818C338.54 137.818 338.348 137.87 338.236 137.974C338.128 138.078 338.074 138.252 338.074 138.496V138.724H338.836V139.078ZM342.462 140.194C342.462 140.338 342.458 140.448 342.45 140.524H339.732C339.744 140.772 339.804 140.984 339.912 141.16C340.02 141.336 340.162 141.47 340.338 141.562C340.514 141.65 340.706 141.694 340.914 141.694C341.186 141.694 341.414 141.628 341.598 141.496C341.786 141.364 341.91 141.186 341.97 140.962H342.414C342.334 141.282 342.162 141.544 341.898 141.748C341.638 141.948 341.31 142.048 340.914 142.048C340.606 142.048 340.33 141.98 340.086 141.844C339.842 141.704 339.65 141.508 339.51 141.256C339.374 141 339.306 140.702 339.306 140.362C339.306 140.022 339.374 139.724 339.51 139.468C339.646 139.212 339.836 139.016 340.08 138.88C340.324 138.744 340.602 138.676 340.914 138.676C341.226 138.676 341.498 138.744 341.73 138.88C341.966 139.016 342.146 139.2 342.27 139.432C342.398 139.66 342.462 139.914 342.462 140.194ZM342.036 140.182C342.04 139.938 341.99 139.73 341.886 139.558C341.786 139.386 341.648 139.256 341.472 139.168C341.296 139.08 341.104 139.036 340.896 139.036C340.584 139.036 340.318 139.136 340.098 139.336C339.878 139.536 339.756 139.818 339.732 140.182H342.036ZM343.65 139.306C343.742 139.102 343.882 138.944 344.07 138.832C344.262 138.72 344.496 138.664 344.772 138.664V139.102H344.658C344.354 139.102 344.11 139.184 343.926 139.348C343.742 139.512 343.65 139.786 343.65 140.17V142H343.23V138.724H343.65V139.306ZM348.368 140.194C348.368 140.338 348.364 140.448 348.356 140.524H345.638C345.65 140.772 345.71 140.984 345.818 141.16C345.926 141.336 346.068 141.47 346.244 141.562C346.42 141.65 346.612 141.694 346.82 141.694C347.092 141.694 347.32 141.628 347.504 141.496C347.692 141.364 347.816 141.186 347.876 140.962H348.32C348.24 141.282 348.068 141.544 347.804 141.748C347.544 141.948 347.216 142.048 346.82 142.048C346.512 142.048 346.236 141.98 345.992 141.844C345.748 141.704 345.556 141.508 345.416 141.256C345.28 141 345.212 140.702 345.212 140.362C345.212 140.022 345.28 139.724 345.416 139.468C345.552 139.212 345.742 139.016 345.986 138.88C346.23 138.744 346.508 138.676 346.82 138.676C347.132 138.676 347.404 138.744 347.636 138.88C347.872 139.016 348.052 139.2 348.176 139.432C348.304 139.66 348.368 139.914 348.368 140.194ZM347.942 140.182C347.946 139.938 347.896 139.73 347.792 139.558C347.692 139.386 347.554 139.256 347.378 139.168C347.202 139.08 347.01 139.036 346.802 139.036C346.49 139.036 346.224 139.136 346.004 139.336C345.784 139.536 345.662 139.818 345.638 140.182H347.942ZM350.672 138.664C351.064 138.664 351.384 138.786 351.632 139.03C351.88 139.27 352.004 139.62 352.004 140.08V142H351.59V140.128C351.59 139.772 351.5 139.5 351.32 139.312C351.144 139.124 350.902 139.03 350.594 139.03C350.278 139.03 350.026 139.13 349.838 139.33C349.65 139.53 349.556 139.824 349.556 140.212V142H349.136V138.724H349.556V139.282C349.66 139.082 349.81 138.93 350.006 138.826C350.202 138.718 350.424 138.664 350.672 138.664ZM353.479 139.078V141.112C353.479 141.312 353.517 141.45 353.593 141.526C353.669 141.602 353.803 141.64 353.995 141.64H354.379V142H353.929C353.633 142 353.413 141.932 353.269 141.796C353.125 141.656 353.053 141.428 353.053 141.112V139.078H352.597V138.724H353.053V137.902H353.479V138.724H354.379V139.078H353.479ZM361.038 138.724L360.012 142H359.592L358.686 139.252L357.78 142H357.354L356.328 138.724H356.754L357.57 141.574L358.488 138.724H358.908L359.814 141.58L360.624 138.724H361.038ZM361.419 140.356C361.419 140.02 361.485 139.726 361.617 139.474C361.753 139.218 361.939 139.022 362.175 138.886C362.415 138.746 362.685 138.676 362.985 138.676C363.297 138.676 363.565 138.748 363.789 138.892C364.017 139.036 364.181 139.22 364.281 139.444V138.724H364.701V142H364.281V141.274C364.177 141.498 364.011 141.684 363.783 141.832C363.559 141.976 363.291 142.048 362.979 142.048C362.683 142.048 362.415 141.978 362.175 141.838C361.939 141.698 361.753 141.5 361.617 141.244C361.485 140.988 361.419 140.692 361.419 140.356ZM364.281 140.362C364.281 140.098 364.227 139.866 364.119 139.666C364.011 139.466 363.863 139.312 363.675 139.204C363.491 139.096 363.287 139.042 363.063 139.042C362.831 139.042 362.623 139.094 362.439 139.198C362.255 139.302 362.109 139.454 362.001 139.654C361.897 139.85 361.845 140.084 361.845 140.356C361.845 140.624 361.897 140.86 362.001 141.064C362.109 141.264 362.255 141.418 362.439 141.526C362.623 141.63 362.831 141.682 363.063 141.682C363.287 141.682 363.491 141.628 363.675 141.52C363.863 141.412 364.011 141.258 364.119 141.058C364.227 140.858 364.281 140.626 364.281 140.362ZM368.36 138.724L366.416 143.542H365.978L366.614 141.982L365.27 138.724H365.732L366.848 141.52L367.928 138.724H368.36Z" fill="white" fill-opacity="0.7"/>
<rect x="291" y="117" width="24" height="23" rx="3" fill="#FF8F31"/>
<g clip-path="url(#clip0)">
<path d="M308 129.906C307.989 129.713 307.904 129.532 307.762 129.401C307.621 129.269 307.434 129.197 307.241 129.2H306.923C307.021 129.2 307.117 129.18 307.207 129.142C307.297 129.104 307.378 129.048 307.446 128.978C307.514 128.908 307.568 128.825 307.603 128.734C307.638 128.643 307.655 128.546 307.652 128.449C307.641 128.256 307.556 128.074 307.414 127.943C307.273 127.811 307.086 127.739 306.893 127.742H304.621C304.554 127.743 304.488 127.725 304.43 127.692C304.372 127.659 304.324 127.611 304.291 127.553C304.258 127.495 304.241 127.429 304.242 127.362C304.243 127.295 304.261 127.23 304.296 127.173L304.299 127.168C304.467 126.913 304.738 126.746 305.008 126.604C305.278 126.461 305.636 126.098 305.83 125.862C306.301 125.289 306.285 124.345 305.948 123.763C305.909 123.693 305.856 123.631 305.791 123.582C305.727 123.534 305.653 123.499 305.574 123.481C305.199 123.407 304.937 123.718 304.811 124.025C304.193 125.545 302.956 126.047 301.817 126.517L299.782 127.742L299.703 132.7L302.526 133.53H306.502C306.69 133.533 306.871 133.463 307.008 133.335C307.146 133.208 307.228 133.032 307.239 132.844C307.242 132.75 307.226 132.656 307.191 132.567C307.157 132.479 307.106 132.398 307.04 132.33C306.974 132.262 306.895 132.208 306.808 132.171C306.72 132.134 306.627 132.115 306.532 132.115H306.893C307.086 132.118 307.273 132.046 307.414 131.915C307.556 131.783 307.641 131.602 307.652 131.409C307.655 131.311 307.638 131.214 307.603 131.123C307.568 131.032 307.515 130.949 307.447 130.879C307.379 130.809 307.297 130.753 307.208 130.715C307.118 130.677 307.021 130.658 306.923 130.658H307.271C307.369 130.658 307.466 130.638 307.555 130.6C307.645 130.562 307.727 130.506 307.795 130.436C307.863 130.366 307.916 130.283 307.951 130.192C307.986 130.101 308.003 130.004 308 129.906Z" fill="white"/>
<path d="M299.802 127.072H297.313C297.14 127.072 297 127.212 297 127.384V132.783C297 132.956 297.14 133.096 297.313 133.096H299.802C299.975 133.096 300.115 132.956 300.115 132.783V127.384C300.115 127.212 299.975 127.072 299.802 127.072Z" fill="#F0C191"/>
</g>
<g filter="url(#filter1_d)">
<rect y="20.9999" width="143" height="40" rx="5" fill="#313446"/>
</g>
<path d="M46 30.4159V31.3199H43.672V32.7519H45.456V33.6399H43.672V35.9999H42.552V30.4159H46ZM46.5062 33.7679C46.5062 33.3199 46.5942 32.9226 46.7702 32.5759C46.9515 32.2293 47.1942 31.9626 47.4982 31.7759C47.8075 31.5893 48.1515 31.4959 48.5302 31.4959C48.8609 31.4959 49.1489 31.5626 49.3942 31.6959C49.6449 31.8293 49.8449 31.9973 49.9942 32.1999V31.5679H51.1222V35.9999H49.9942V35.3519C49.8502 35.5599 49.6502 35.7333 49.3942 35.8719C49.1435 36.0053 48.8529 36.0719 48.5222 36.0719C48.1489 36.0719 47.8075 35.9759 47.4982 35.7839C47.1942 35.5919 46.9515 35.3226 46.7702 34.9759C46.5942 34.6239 46.5062 34.2213 46.5062 33.7679ZM49.9942 33.7839C49.9942 33.5119 49.9409 33.2799 49.8342 33.0879C49.7275 32.8906 49.5835 32.7413 49.4022 32.6399C49.2209 32.5333 49.0262 32.4799 48.8182 32.4799C48.6102 32.4799 48.4182 32.5306 48.2422 32.6319C48.0662 32.7333 47.9222 32.8826 47.8102 33.0799C47.7035 33.2719 47.6502 33.5013 47.6502 33.7679C47.6502 34.0346 47.7035 34.2693 47.8102 34.4719C47.9222 34.6693 48.0662 34.8213 48.2422 34.9279C48.4235 35.0346 48.6155 35.0879 48.8182 35.0879C49.0262 35.0879 49.2209 35.0373 49.4022 34.9359C49.5835 34.8293 49.7275 34.6799 49.8342 34.4879C49.9409 34.2906 49.9942 34.0559 49.9942 33.7839ZM53.9121 36.0719C53.5494 36.0719 53.2241 36.0079 52.9361 35.8799C52.6481 35.7466 52.4187 35.5679 52.2481 35.3439C52.0827 35.1199 51.9921 34.8719 51.9761 34.5999H53.1041C53.1254 34.7706 53.2081 34.9119 53.3521 35.0239C53.5014 35.1359 53.6854 35.1919 53.9041 35.1919C54.1174 35.1919 54.2827 35.1493 54.4001 35.0639C54.5227 34.9786 54.5841 34.8693 54.5841 34.7359C54.5841 34.5919 54.5094 34.4853 54.3601 34.4159C54.2161 34.3413 53.9841 34.2613 53.6641 34.1759C53.3334 34.0959 53.0614 34.0133 52.8481 33.9279C52.6401 33.8426 52.4587 33.7119 52.3041 33.5359C52.1547 33.3599 52.0801 33.1226 52.0801 32.8239C52.0801 32.5786 52.1494 32.3546 52.2881 32.1519C52.4321 31.9493 52.6347 31.7893 52.8961 31.6719C53.1627 31.5546 53.4747 31.4959 53.8321 31.4959C54.3601 31.4959 54.7814 31.6293 55.0961 31.8959C55.4107 32.1573 55.5841 32.5119 55.6161 32.9599H54.5441C54.5281 32.7839 54.4534 32.6453 54.3201 32.5439C54.1921 32.4373 54.0187 32.3839 53.8001 32.3839C53.5974 32.3839 53.4401 32.4213 53.3281 32.4959C53.2214 32.5706 53.1681 32.6746 53.1681 32.8079C53.1681 32.9573 53.2427 33.0719 53.3921 33.1519C53.5414 33.2266 53.7734 33.3039 54.0881 33.3839C54.4081 33.4639 54.6721 33.5466 54.8801 33.6319C55.0881 33.7173 55.2667 33.8506 55.4161 34.0319C55.5707 34.2079 55.6507 34.4426 55.6561 34.7359C55.6561 34.9919 55.5841 35.2213 55.4401 35.4239C55.3014 35.6266 55.0987 35.7866 54.8321 35.9039C54.5707 36.0159 54.2641 36.0719 53.9121 36.0719ZM57.8794 32.4879V34.6319C57.8794 34.7813 57.9141 34.8906 57.9834 34.9599C58.0581 35.0239 58.1808 35.0559 58.3514 35.0559H58.8714V35.9999H58.1674C57.2234 35.9999 56.7514 35.5413 56.7514 34.6239V32.4879H56.2234V31.5679H56.7514V30.4719H57.8794V31.5679H58.8714V32.4879H57.8794Z" fill="white"/>
<path d="M42.9 41.1479V42.7139H44.49V43.0619H42.9V44.6519H44.67V44.9999H42.48V40.7999H44.67V41.1479H42.9ZM47.2136 44.9999L46.3676 43.6799L45.5516 44.9999H45.1076L46.1636 43.3619L45.1196 41.7239H45.5936L46.4276 43.0259L47.2376 41.7239H47.6756L46.6316 43.3439L47.6876 44.9999H47.2136ZM48.6713 42.4439C48.7753 42.2239 48.9393 42.0419 49.1633 41.8979C49.3913 41.7499 49.6613 41.6759 49.9733 41.6759C50.2693 41.6759 50.5353 41.7459 50.7713 41.8859C51.0113 42.0219 51.1973 42.2179 51.3293 42.4739C51.4653 42.7259 51.5333 43.0199 51.5333 43.3559C51.5333 43.6919 51.4653 43.9879 51.3293 44.2439C51.1973 44.4999 51.0113 44.6979 50.7713 44.8379C50.5353 44.9779 50.2693 45.0479 49.9733 45.0479C49.6653 45.0479 49.3973 44.9759 49.1693 44.8319C48.9413 44.6839 48.7753 44.4999 48.6713 44.2799V46.5479H48.2573V41.7239H48.6713V42.4439ZM51.1073 43.3559C51.1073 43.0839 51.0533 42.8499 50.9453 42.6539C50.8413 42.4539 50.6973 42.3019 50.5133 42.1979C50.3293 42.0939 50.1213 42.0419 49.8893 42.0419C49.6653 42.0419 49.4593 42.0959 49.2713 42.2039C49.0873 42.3119 48.9413 42.4659 48.8333 42.6659C48.7253 42.8659 48.6713 43.0979 48.6713 43.3619C48.6713 43.6259 48.7253 43.8579 48.8333 44.0579C48.9413 44.2579 49.0873 44.4119 49.2713 44.5199C49.4593 44.6279 49.6653 44.6819 49.8893 44.6819C50.1213 44.6819 50.3293 44.6299 50.5133 44.5259C50.6973 44.4179 50.8413 44.2639 50.9453 44.0639C51.0533 43.8599 51.1073 43.6239 51.1073 43.3559ZM55.2702 43.1939C55.2702 43.3379 55.2662 43.4479 55.2582 43.5239H52.5402C52.5522 43.7719 52.6122 43.9839 52.7202 44.1599C52.8282 44.3359 52.9702 44.4699 53.1462 44.5619C53.3222 44.6499 53.5142 44.6939 53.7222 44.6939C53.9942 44.6939 54.2222 44.6279 54.4062 44.4959C54.5942 44.3639 54.7182 44.1859 54.7782 43.9619H55.2222C55.1422 44.2819 54.9702 44.5439 54.7062 44.7479C54.4462 44.9479 54.1182 45.0479 53.7222 45.0479C53.4142 45.0479 53.1382 44.9799 52.8942 44.8439C52.6502 44.7039 52.4582 44.5079 52.3182 44.2559C52.1822 43.9999 52.1142 43.7019 52.1142 43.3619C52.1142 43.0219 52.1822 42.7239 52.3182 42.4679C52.4542 42.2119 52.6442 42.0159 52.8882 41.8799C53.1322 41.7439 53.4102 41.6759 53.7222 41.6759C54.0342 41.6759 54.3062 41.7439 54.5382 41.8799C54.7742 42.0159 54.9542 42.1999 55.0782 42.4319C55.2062 42.6599 55.2702 42.9139 55.2702 43.1939ZM54.8442 43.1819C54.8482 42.9379 54.7982 42.7299 54.6942 42.5579C54.5942 42.3859 54.4562 42.2559 54.2802 42.1679C54.1042 42.0799 53.9122 42.0359 53.7042 42.0359C53.3922 42.0359 53.1262 42.1359 52.9062 42.3359C52.6862 42.5359 52.5642 42.8179 52.5402 43.1819H54.8442ZM56.4586 42.3059C56.5506 42.1019 56.6906 41.9439 56.8786 41.8319C57.0706 41.7199 57.3046 41.6639 57.5806 41.6639V42.1019H57.4666C57.1626 42.1019 56.9186 42.1839 56.7346 42.3479C56.5506 42.5119 56.4586 42.7859 56.4586 43.1699V44.9999H56.0386V41.7239H56.4586V42.3059ZM58.4224 41.1059C58.3384 41.1059 58.2664 41.0759 58.2064 41.0159C58.1464 40.9559 58.1164 40.8819 58.1164 40.7939C58.1164 40.7059 58.1464 40.6339 58.2064 40.5779C58.2664 40.5179 58.3384 40.4879 58.4224 40.4879C58.5064 40.4879 58.5784 40.5179 58.6384 40.5779C58.6984 40.6339 58.7284 40.7059 58.7284 40.7939C58.7284 40.8819 58.6984 40.9559 58.6384 41.0159C58.5784 41.0759 58.5064 41.1059 58.4224 41.1059ZM58.6324 41.7239V44.9999H58.2124V41.7239H58.6324ZM62.5475 43.1939C62.5475 43.3379 62.5435 43.4479 62.5355 43.5239H59.8175C59.8295 43.7719 59.8895 43.9839 59.9975 44.1599C60.1055 44.3359 60.2475 44.4699 60.4235 44.5619C60.5995 44.6499 60.7915 44.6939 60.9995 44.6939C61.2715 44.6939 61.4995 44.6279 61.6835 44.4959C61.8715 44.3639 61.9955 44.1859 62.0555 43.9619H62.4995C62.4195 44.2819 62.2475 44.5439 61.9835 44.7479C61.7235 44.9479 61.3955 45.0479 60.9995 45.0479C60.6915 45.0479 60.4155 44.9799 60.1715 44.8439C59.9275 44.7039 59.7355 44.5079 59.5955 44.2559C59.4595 43.9999 59.3915 43.7019 59.3915 43.3619C59.3915 43.0219 59.4595 42.7239 59.5955 42.4679C59.7315 42.2119 59.9215 42.0159 60.1655 41.8799C60.4095 41.7439 60.6875 41.6759 60.9995 41.6759C61.3115 41.6759 61.5835 41.7439 61.8155 41.8799C62.0515 42.0159 62.2315 42.1999 62.3555 42.4319C62.4835 42.6599 62.5475 42.9139 62.5475 43.1939ZM62.1215 43.1819C62.1255 42.9379 62.0755 42.7299 61.9715 42.5579C61.8715 42.3859 61.7335 42.2559 61.5575 42.1679C61.3815 42.0799 61.1895 42.0359 60.9815 42.0359C60.6695 42.0359 60.4035 42.1359 60.1835 42.3359C59.9635 42.5359 59.8415 42.8179 59.8175 43.1819H62.1215ZM64.8519 41.6639C65.2439 41.6639 65.5639 41.7859 65.8119 42.0299C66.0599 42.2699 66.1839 42.6199 66.1839 43.0799V44.9999H65.7699V43.1279C65.7699 42.7719 65.6799 42.4999 65.4999 42.3119C65.3239 42.1239 65.0819 42.0299 64.7739 42.0299C64.4579 42.0299 64.2059 42.1299 64.0179 42.3299C63.8299 42.5299 63.7359 42.8239 63.7359 43.2119V44.9999H63.3159V41.7239H63.7359V42.2819C63.8399 42.0819 63.9899 41.9299 64.1859 41.8259C64.3819 41.7179 64.6039 41.6639 64.8519 41.6639ZM66.9208 43.3619C66.9208 43.0219 66.9888 42.7259 67.1248 42.4739C67.2608 42.2179 67.4488 42.0219 67.6888 41.8859C67.9288 41.7459 68.2028 41.6759 68.5108 41.6759C68.9148 41.6759 69.2468 41.7759 69.5068 41.9759C69.7708 42.1759 69.9408 42.4479 70.0168 42.7919H69.5668C69.5108 42.5559 69.3888 42.3719 69.2008 42.2399C69.0168 42.1039 68.7868 42.0359 68.5108 42.0359C68.2908 42.0359 68.0928 42.0859 67.9168 42.1859C67.7408 42.2859 67.6008 42.4359 67.4968 42.6359C67.3968 42.8319 67.3468 43.0739 67.3468 43.3619C67.3468 43.6499 67.3968 43.8939 67.4968 44.0939C67.6008 44.2939 67.7408 44.4439 67.9168 44.5439C68.0928 44.6439 68.2908 44.6939 68.5108 44.6939C68.7868 44.6939 69.0168 44.6279 69.2008 44.4959C69.3888 44.3599 69.5108 44.1719 69.5668 43.9319H70.0168C69.9408 44.2679 69.7708 44.5379 69.5068 44.7419C69.2428 44.9459 68.9108 45.0479 68.5108 45.0479C68.2028 45.0479 67.9288 44.9799 67.6888 44.8439C67.4488 44.7039 67.2608 44.5079 67.1248 44.2559C66.9888 43.9999 66.9208 43.7019 66.9208 43.3619ZM73.7565 43.1939C73.7565 43.3379 73.7525 43.4479 73.7445 43.5239H71.0265C71.0385 43.7719 71.0985 43.9839 71.2065 44.1599C71.3145 44.3359 71.4565 44.4699 71.6325 44.5619C71.8085 44.6499 72.0005 44.6939 72.2085 44.6939C72.4805 44.6939 72.7085 44.6279 72.8925 44.4959C73.0805 44.3639 73.2045 44.1859 73.2645 43.9619H73.7085C73.6285 44.2819 73.4565 44.5439 73.1925 44.7479C72.9325 44.9479 72.6045 45.0479 72.2085 45.0479C71.9005 45.0479 71.6245 44.9799 71.3805 44.8439C71.1365 44.7039 70.9445 44.5079 70.8045 44.2559C70.6685 43.9999 70.6005 43.7019 70.6005 43.3619C70.6005 43.0219 70.6685 42.7239 70.8045 42.4679C70.9405 42.2119 71.1305 42.0159 71.3745 41.8799C71.6185 41.7439 71.8965 41.6759 72.2085 41.6759C72.5205 41.6759 72.7925 41.7439 73.0245 41.8799C73.2605 42.0159 73.4405 42.1999 73.5645 42.4319C73.6925 42.6599 73.7565 42.9139 73.7565 43.1939ZM73.3305 43.1819C73.3345 42.9379 73.2845 42.7299 73.1805 42.5579C73.0805 42.3859 72.9425 42.2559 72.7665 42.1679C72.5905 42.0799 72.3985 42.0359 72.1905 42.0359C71.8785 42.0359 71.6125 42.1359 71.3925 42.3359C71.1725 42.5359 71.0505 42.8179 71.0265 43.1819H73.3305ZM75.9794 43.3559C75.9794 43.0199 76.0454 42.7259 76.1774 42.4739C76.3134 42.2179 76.4994 42.0219 76.7354 41.8859C76.9754 41.7459 77.2454 41.6759 77.5454 41.6759C77.8574 41.6759 78.1254 41.7479 78.3494 41.8919C78.5774 42.0359 78.7414 42.2199 78.8414 42.4439V41.7239H79.2614V44.9999H78.8414V44.2739C78.7374 44.4979 78.5714 44.6839 78.3434 44.8319C78.1194 44.9759 77.8514 45.0479 77.5394 45.0479C77.2434 45.0479 76.9754 44.9779 76.7354 44.8379C76.4994 44.6979 76.3134 44.4999 76.1774 44.2439C76.0454 43.9879 75.9794 43.6919 75.9794 43.3559ZM78.8414 43.3619C78.8414 43.0979 78.7874 42.8659 78.6794 42.6659C78.5714 42.4659 78.4234 42.3119 78.2354 42.2039C78.0514 42.0959 77.8474 42.0419 77.6234 42.0419C77.3914 42.0419 77.1834 42.0939 76.9994 42.1979C76.8154 42.3019 76.6694 42.4539 76.5614 42.6539C76.4574 42.8499 76.4054 43.0839 76.4054 43.3559C76.4054 43.6239 76.4574 43.8599 76.5614 44.0639C76.6694 44.2639 76.8154 44.4179 76.9994 44.5259C77.1834 44.6299 77.3914 44.6819 77.6234 44.6819C77.8474 44.6819 78.0514 44.6279 78.2354 44.5199C78.4234 44.4119 78.5714 44.2579 78.6794 44.0579C78.7874 43.8579 78.8414 43.6259 78.8414 43.3619ZM81.5942 41.6759C81.9022 41.6759 82.1702 41.7479 82.3982 41.8919C82.6262 42.0359 82.7902 42.2179 82.8902 42.4379V41.7239H83.3102V45.0839C83.3102 45.3839 83.2442 45.6499 83.1122 45.8819C82.9842 46.1139 82.8042 46.2919 82.5722 46.4159C82.3402 46.5439 82.0762 46.6079 81.7802 46.6079C81.3602 46.6079 81.0102 46.5079 80.7302 46.3079C80.4542 46.1079 80.2822 45.8359 80.2142 45.4919H80.6282C80.7002 45.7199 80.8362 45.9019 81.0362 46.0379C81.2402 46.1739 81.4882 46.2419 81.7802 46.2419C81.9922 46.2419 82.1822 46.1959 82.3502 46.1039C82.5182 46.0159 82.6502 45.8839 82.7462 45.7079C82.8422 45.5319 82.8902 45.3239 82.8902 45.0839V44.2739C82.7862 44.4979 82.6202 44.6839 82.3922 44.8319C82.1682 44.9759 81.9022 45.0479 81.5942 45.0479C81.2942 45.0479 81.0242 44.9779 80.7842 44.8379C80.5482 44.6979 80.3622 44.4999 80.2262 44.2439C80.0942 43.9879 80.0282 43.6919 80.0282 43.3559C80.0282 43.0199 80.0942 42.7259 80.2262 42.4739C80.3622 42.2179 80.5482 42.0219 80.7842 41.8859C81.0242 41.7459 81.2942 41.6759 81.5942 41.6759ZM82.8902 43.3619C82.8902 43.0979 82.8362 42.8659 82.7282 42.6659C82.6202 42.4659 82.4722 42.3119 82.2842 42.2039C82.1002 42.0959 81.8962 42.0419 81.6722 42.0419C81.4402 42.0419 81.2322 42.0939 81.0482 42.1979C80.8642 42.3019 80.7182 42.4539 80.6102 42.6539C80.5062 42.8499 80.4542 43.0839 80.4542 43.3559C80.4542 43.6239 80.5062 43.8599 80.6102 44.0639C80.7182 44.2639 80.8642 44.4179 81.0482 44.5259C81.2322 44.6299 81.4402 44.6819 81.6722 44.6819C81.8962 44.6819 82.1002 44.6279 82.2842 44.5199C82.4722 44.4119 82.6202 44.2579 82.7282 44.0579C82.8362 43.8579 82.8902 43.6259 82.8902 43.3619ZM84.4791 41.1059C84.3951 41.1059 84.3231 41.0759 84.2631 41.0159C84.2031 40.9559 84.1731 40.8819 84.1731 40.7939C84.1731 40.7059 84.2031 40.6339 84.2631 40.5779C84.3231 40.5179 84.3951 40.4879 84.4791 40.4879C84.5631 40.4879 84.6351 40.5179 84.6951 40.5779C84.7551 40.6339 84.7851 40.7059 84.7851 40.7939C84.7851 40.8819 84.7551 40.9559 84.6951 41.0159C84.6351 41.0759 84.5631 41.1059 84.4791 41.1059ZM84.6891 41.7239V44.9999H84.2691V41.7239H84.6891ZM86.0602 40.5599V44.9999H85.6402V40.5599H86.0602ZM87.2213 41.1059C87.1373 41.1059 87.0653 41.0759 87.0053 41.0159C86.9453 40.9559 86.9153 40.8819 86.9153 40.7939C86.9153 40.7059 86.9453 40.6339 87.0053 40.5779C87.0653 40.5179 87.1373 40.4879 87.2213 40.4879C87.3053 40.4879 87.3773 40.5179 87.4373 40.5779C87.4973 40.6339 87.5273 40.7059 87.5273 40.7939C87.5273 40.8819 87.4973 40.9559 87.4373 41.0159C87.3773 41.0759 87.3053 41.1059 87.2213 41.1059ZM87.4313 41.7239V44.9999H87.0113V41.7239H87.4313ZM88.9283 42.0779V44.1119C88.9283 44.3119 88.9663 44.4499 89.0423 44.5259C89.1183 44.6019 89.2523 44.6399 89.4443 44.6399H89.8283V44.9999H89.3783C89.0823 44.9999 88.8623 44.9319 88.7183 44.7959C88.5743 44.6559 88.5023 44.4279 88.5023 44.1119V42.0779H88.0463V41.7239H88.5023V40.9019H88.9283V41.7239H89.8283V42.0779H88.9283ZM93.221 41.7239L91.277 46.5419H90.839L91.475 44.9819L90.131 41.7239H90.593L91.709 44.5199L92.789 41.7239H93.221ZM95.647 41.1059C95.563 41.1059 95.491 41.0759 95.431 41.0159C95.371 40.9559 95.341 40.8819 95.341 40.7939C95.341 40.7059 95.371 40.6339 95.431 40.5779C95.491 40.5179 95.563 40.4879 95.647 40.4879C95.731 40.4879 95.803 40.5179 95.863 40.5779C95.923 40.6339 95.953 40.7059 95.953 40.7939C95.953 40.8819 95.923 40.9559 95.863 41.0159C95.803 41.0759 95.731 41.1059 95.647 41.1059ZM95.857 41.7239V44.9999H95.437V41.7239H95.857ZM98.3441 41.6639C98.7361 41.6639 99.0561 41.7859 99.3041 42.0299C99.5521 42.2699 99.6761 42.6199 99.6761 43.0799V44.9999H99.2621V43.1279C99.2621 42.7719 99.1721 42.4999 98.9921 42.3119C98.8161 42.1239 98.5741 42.0299 98.2661 42.0299C97.9501 42.0299 97.6981 42.1299 97.5101 42.3299C97.3221 42.5299 97.2281 42.8239 97.2281 43.2119V44.9999H96.8081V41.7239H97.2281V42.2819C97.3321 42.0819 97.4821 41.9299 97.6781 41.8259C97.8741 41.7179 98.0961 41.6639 98.3441 41.6639ZM102.059 43.3559C102.059 43.0199 102.125 42.7259 102.257 42.4739C102.393 42.2179 102.579 42.0219 102.815 41.8859C103.055 41.7459 103.325 41.6759 103.625 41.6759C103.937 41.6759 104.205 41.7479 104.429 41.8919C104.657 42.0359 104.821 42.2199 104.921 42.4439V41.7239H105.341V44.9999H104.921V44.2739C104.817 44.4979 104.651 44.6839 104.423 44.8319C104.199 44.9759 103.931 45.0479 103.619 45.0479C103.323 45.0479 103.055 44.9779 102.815 44.8379C102.579 44.6979 102.393 44.4999 102.257 44.2439C102.125 43.9879 102.059 43.6919 102.059 43.3559ZM104.921 43.3619C104.921 43.0979 104.867 42.8659 104.759 42.6659C104.651 42.4659 104.503 42.3119 104.315 42.2039C104.131 42.0959 103.927 42.0419 103.703 42.0419C103.471 42.0419 103.263 42.0939 103.079 42.1979C102.895 42.3019 102.749 42.4539 102.641 42.6539C102.537 42.8499 102.485 43.0839 102.485 43.3559C102.485 43.6239 102.537 43.8599 102.641 44.0639C102.749 44.2639 102.895 44.4179 103.079 44.5259C103.263 44.6299 103.471 44.6819 103.703 44.6819C103.927 44.6819 104.131 44.6279 104.315 44.5199C104.503 44.4119 104.651 44.2579 104.759 44.0579C104.867 43.8579 104.921 43.6259 104.921 43.3619ZM107.755 43.3559C107.755 43.0199 107.823 42.7259 107.959 42.4739C108.095 42.2179 108.281 42.0219 108.517 41.8859C108.757 41.7459 109.027 41.6759 109.327 41.6759C109.615 41.6759 109.875 41.7459 110.107 41.8859C110.339 42.0259 110.509 42.2079 110.617 42.4319V40.5599H111.037V44.9999H110.617V44.2679C110.517 44.4959 110.353 44.6839 110.125 44.8319C109.897 44.9759 109.629 45.0479 109.321 45.0479C109.021 45.0479 108.751 44.9779 108.511 44.8379C108.275 44.6979 108.089 44.4999 107.953 44.2439C107.821 43.9879 107.755 43.6919 107.755 43.3559ZM110.617 43.3619C110.617 43.0979 110.563 42.8659 110.455 42.6659C110.347 42.4659 110.199 42.3119 110.011 42.2039C109.827 42.0959 109.623 42.0419 109.399 42.0419C109.167 42.0419 108.959 42.0939 108.775 42.1979C108.591 42.3019 108.445 42.4539 108.337 42.6539C108.233 42.8499 108.181 43.0839 108.181 43.3559C108.181 43.6239 108.233 43.8599 108.337 44.0639C108.445 44.2639 108.591 44.4179 108.775 44.5259C108.959 44.6299 109.167 44.6819 109.399 44.6819C109.623 44.6819 109.827 44.6279 110.011 44.5199C110.199 44.4119 110.347 44.2579 110.455 44.0579C110.563 43.8579 110.617 43.6259 110.617 43.3619ZM112.206 41.1059C112.122 41.1059 112.05 41.0759 111.99 41.0159C111.93 40.9559 111.9 40.8819 111.9 40.7939C111.9 40.7059 111.93 40.6339 111.99 40.5779C112.05 40.5179 112.122 40.4879 112.206 40.4879C112.29 40.4879 112.362 40.5179 112.422 40.5779C112.482 40.6339 112.512 40.7059 112.512 40.7939C112.512 40.8819 112.482 40.9559 112.422 41.0159C112.362 41.0759 112.29 41.1059 112.206 41.1059ZM112.416 41.7239V44.9999H111.996V41.7239H112.416ZM114.657 42.0779H113.895V44.9999H113.475V42.0779H113.019V41.7239H113.475V41.4959C113.475 41.1399 113.565 40.8779 113.745 40.7099C113.929 40.5419 114.225 40.4579 114.633 40.4579V40.8179C114.361 40.8179 114.169 40.8699 114.057 40.9739C113.949 41.0779 113.895 41.2519 113.895 41.4959V41.7239H114.657V42.0779ZM116.608 42.0779H115.846V44.9999H115.426V42.0779H114.97V41.7239H115.426V41.4959C115.426 41.1399 115.516 40.8779 115.696 40.7099C115.88 40.5419 116.176 40.4579 116.584 40.4579V40.8179C116.312 40.8179 116.12 40.8699 116.008 40.9739C115.9 41.0779 115.846 41.2519 115.846 41.4959V41.7239H116.608V42.0779ZM120.233 43.1939C120.233 43.3379 120.229 43.4479 120.221 43.5239H117.503C117.515 43.7719 117.575 43.9839 117.683 44.1599C117.791 44.3359 117.933 44.4699 118.109 44.5619C118.285 44.6499 118.477 44.6939 118.685 44.6939C118.957 44.6939 119.185 44.6279 119.369 44.4959C119.557 44.3639 119.681 44.1859 119.741 43.9619H120.185C120.105 44.2819 119.933 44.5439 119.669 44.7479C119.409 44.9479 119.081 45.0479 118.685 45.0479C118.377 45.0479 118.101 44.9799 117.857 44.8439C117.613 44.7039 117.421 44.5079 117.281 44.2559C117.145 43.9999 117.077 43.7019 117.077 43.3619C117.077 43.0219 117.145 42.7239 117.281 42.4679C117.417 42.2119 117.607 42.0159 117.851 41.8799C118.095 41.7439 118.373 41.6759 118.685 41.6759C118.997 41.6759 119.269 41.7439 119.501 41.8799C119.737 42.0159 119.917 42.1999 120.041 42.4319C120.169 42.6599 120.233 42.9139 120.233 43.1939ZM119.807 43.1819C119.811 42.9379 119.761 42.7299 119.657 42.5579C119.557 42.3859 119.419 42.2559 119.243 42.1679C119.067 42.0799 118.875 42.0359 118.667 42.0359C118.355 42.0359 118.089 42.1359 117.869 42.3359C117.649 42.5359 117.527 42.8179 117.503 43.1819H119.807ZM121.421 42.3059C121.513 42.1019 121.653 41.9439 121.841 41.8319C122.033 41.7199 122.267 41.6639 122.543 41.6639V42.1019H122.429C122.125 42.1019 121.881 42.1839 121.697 42.3479C121.513 42.5119 121.421 42.7859 121.421 43.1699V44.9999H121.001V41.7239H121.421V42.3059ZM126.139 43.1939C126.139 43.3379 126.135 43.4479 126.127 43.5239H123.409C123.421 43.7719 123.481 43.9839 123.589 44.1599C123.697 44.3359 123.839 44.4699 124.015 44.5619C124.191 44.6499 124.383 44.6939 124.591 44.6939C124.863 44.6939 125.091 44.6279 125.275 44.4959C125.463 44.3639 125.587 44.1859 125.647 43.9619H126.091C126.011 44.2819 125.839 44.5439 125.575 44.7479C125.315 44.9479 124.987 45.0479 124.591 45.0479C124.283 45.0479 124.007 44.9799 123.763 44.8439C123.519 44.7039 123.327 44.5079 123.187 44.2559C123.051 43.9999 122.983 43.7019 122.983 43.3619C122.983 43.0219 123.051 42.7239 123.187 42.4679C123.323 42.2119 123.513 42.0159 123.757 41.8799C124.001 41.7439 124.279 41.6759 124.591 41.6759C124.903 41.6759 125.175 41.7439 125.407 41.8799C125.643 42.0159 125.823 42.1999 125.947 42.4319C126.075 42.6599 126.139 42.9139 126.139 43.1939ZM125.713 43.1819C125.717 42.9379 125.667 42.7299 125.563 42.5579C125.463 42.3859 125.325 42.2559 125.149 42.1679C124.973 42.0799 124.781 42.0359 124.573 42.0359C124.261 42.0359 123.995 42.1359 123.775 42.3359C123.555 42.5359 123.433 42.8179 123.409 43.1819H125.713ZM128.444 41.6639C128.836 41.6639 129.156 41.7859 129.404 42.0299C129.652 42.2699 129.776 42.6199 129.776 43.0799V44.9999H129.362V43.1279C129.362 42.7719 129.272 42.4999 129.092 42.3119C128.916 42.1239 128.674 42.0299 128.366 42.0299C128.05 42.0299 127.798 42.1299 127.61 42.3299C127.422 42.5299 127.328 42.8239 127.328 43.2119V44.9999H126.908V41.7239H127.328V42.2819C127.432 42.0819 127.582 41.9299 127.778 41.8259C127.974 41.7179 128.196 41.6639 128.444 41.6639ZM131.251 42.0779V44.1119C131.251 44.3119 131.289 44.4499 131.365 44.5259C131.441 44.6019 131.575 44.6399 131.767 44.6399H132.151V44.9999H131.701C131.405 44.9999 131.185 44.9319 131.041 44.7959C130.897 44.6559 130.825 44.4279 130.825 44.1119V42.0779H130.369V41.7239H130.825V40.9019H131.251V41.7239H132.151V42.0779H131.251ZM46.8 50.7239L45.774 53.9999H45.354L44.448 51.2519L43.542 53.9999H43.116L42.09 50.7239H42.516L43.332 53.5739L44.25 50.7239H44.67L45.576 53.5799L46.386 50.7239H46.8ZM47.1806 52.3559C47.1806 52.0199 47.2466 51.7259 47.3786 51.4739C47.5146 51.2179 47.7006 51.0219 47.9366 50.8859C48.1766 50.7459 48.4466 50.6759 48.7466 50.6759C49.0586 50.6759 49.3266 50.7479 49.5506 50.8919C49.7786 51.0359 49.9426 51.2199 50.0426 51.4439V50.7239H50.4626V53.9999H50.0426V53.2739C49.9386 53.4979 49.7726 53.6839 49.5446 53.8319C49.3206 53.9759 49.0526 54.0479 48.7406 54.0479C48.4446 54.0479 48.1766 53.9779 47.9366 53.8379C47.7006 53.6979 47.5146 53.4999 47.3786 53.2439C47.2466 52.9879 47.1806 52.6919 47.1806 52.3559ZM50.0426 52.3619C50.0426 52.0979 49.9886 51.8659 49.8806 51.6659C49.7726 51.4659 49.6246 51.3119 49.4366 51.2039C49.2526 51.0959 49.0486 51.0419 48.8246 51.0419C48.5926 51.0419 48.3846 51.0939 48.2006 51.1979C48.0166 51.3019 47.8706 51.4539 47.7626 51.6539C47.6586 51.8499 47.6066 52.0839 47.6066 52.3559C47.6066 52.6239 47.6586 52.8599 47.7626 53.0639C47.8706 53.2639 48.0166 53.4179 48.2006 53.5259C48.3846 53.6299 48.5926 53.6819 48.8246 53.6819C49.0486 53.6819 49.2526 53.6279 49.4366 53.5199C49.6246 53.4119 49.7726 53.2579 49.8806 53.0579C49.9886 52.8579 50.0426 52.6259 50.0426 52.3619ZM54.1214 50.7239L52.1774 55.5419H51.7394L52.3754 53.9819L51.0314 50.7239H51.4934L52.6094 53.5199L53.6894 50.7239H54.1214Z" fill="white" fill-opacity="0.7"/>
<rect x="11" y="30.0002" width="24" height="23" rx="3" fill="#2FA038"/>
<path d="M26.1401 36.2975L25.5436 36.6146L22.4976 33.8677C21.9812 33.4052 21.2307 33.3097 20.6197 33.6345L18.7285 34.6398L19.5018 36.0945L21.393 35.0893L24.0016 37.4343L20.5029 39.294L19.8544 38.7059L20.6618 38.2767L19.8885 36.8219L16.2516 38.7552L17.0249 40.2099L18.2978 39.5333L21.5549 42.4665L21.0675 42.7255C19.8853 41.2736 17.8871 40.7965 16.1425 41.6212C14.0517 42.602 13.1705 45.2441 14.2532 47.2808C15.3358 49.3174 17.7866 50.067 19.8233 48.9844C21.6126 48.0332 22.4067 46.0345 21.8408 44.1803L24.8958 42.5564C26.0781 44.0083 28.0763 44.4854 29.8209 43.6607C31.9078 42.6726 32.7928 40.0378 31.7063 37.9939C30.6276 35.9645 28.1767 35.2149 26.1401 36.2975ZM20.3279 44.9845C20.4893 45.9902 20.0174 47.0154 19.05 47.5296C17.828 48.1792 16.3575 47.7294 15.7079 46.5075C15.0583 45.2855 15.5081 43.8149 16.7301 43.1654C17.6975 42.6511 18.8113 42.8334 19.5546 43.5298L17.5034 44.6201L18.2767 46.0749L20.3279 44.9845ZM24.1225 41.1016L23.1042 41.6429L21.7999 40.4704L24.0039 39.2989C23.9081 39.8909 23.9344 40.5019 24.1225 41.1016ZM29.2333 42.1165C28.0113 42.7661 26.5408 42.3163 25.8912 41.0943C25.5316 40.4179 25.5205 39.6775 25.7734 39.0299L27.4924 40.579L28.597 39.3575L26.859 37.7905C26.8736 37.7827 26.8916 37.7639 26.9134 37.7523C28.1354 37.1027 29.6059 37.5524 30.2555 38.7744C30.905 39.9964 30.4553 41.4669 29.2333 42.1165Z" fill="white"/>
<path d="M25.3474 48.8467L22.4379 50.3933L27.9621 50.2555L27.1888 48.8008L30.0983 47.2542L24.5741 47.3919L25.3474 48.8467Z" fill="white"/>
<defs>
<filter id="filter0_d" x="282" y="98" width="200" height="100" filterUnits="userSpaceOnUse" color-interpolation-filters="sRGB">
<feFlood flood-opacity="0" result="BackgroundImageFix"/>
<feColorMatrix in="SourceAlpha" type="matrix" values="0 0 0 0 0 0 0 0 0 0 0 0 0 0 0 0 0 0 127 0"/>
<feOffset dx="30" dy="20"/>
<feGaussianBlur stdDeviation="15"/>
<feColorMatrix type="matrix" values="0 0 0 0 0.0875 0 0 0 0 0.0550521 0 0 0 0 0.0550521 0 0 0 0.1 0"/>
<feBlend mode="normal" in2="BackgroundImageFix" result="effect1_dropShadow"/>
<feBlend mode="normal" in="SourceGraphic" in2="effect1_dropShadow" result="shape"/>
</filter>
<filter id="filter1_d" x="0" y="10.9999" width="203" height="100" filterUnits="userSpaceOnUse" color-interpolation-filters="sRGB">
<feFlood flood-opacity="0" result="BackgroundImageFix"/>
<feColorMatrix in="SourceAlpha" type="matrix" values="0 0 0 0 0 0 0 0 0 0 0 0 0 0 0 0 0 0 127 0"/>
<feOffset dx="30" dy="20"/>
<feGaussianBlur stdDeviation="15"/>
<feColorMatrix type="matrix" values="0 0 0 0 0.0875 0 0 0 0 0.0550521 0 0 0 0 0.0550521 0 0 0 0.1 0"/>
<feBlend mode="normal" in2="BackgroundImageFix" result="effect1_dropShadow"/>
<feBlend mode="normal" in="SourceGraphic" in2="effect1_dropShadow" result="shape"/>
</filter>
<clipPath id="clip0">
<rect width="11" height="11" fill="white" transform="translate(297 123)"/>
</clipPath>
</defs>
</svg>
