<svg width="61" height="58" viewBox="0 0 61 58" fill="none" xmlns="http://www.w3.org/2000/svg">
<path d="M3.9744 0H20.4006C21.4543 0.00120961 22.4645 0.420328 23.2096 1.16541C23.9547 1.91049 24.3738 2.92069 24.375 3.97439V21.9357C26.1104 21.6842 27.827 21.3164 29.5132 20.835C30.2166 20.6345 30.9679 20.6859 31.6374 20.9805C32.3069 21.2751 32.8524 21.7944 33.1797 22.4485C33.2148 22.5189 33.2416 22.5931 33.2597 22.6696L33.4882 23.6396C33.5063 23.716 33.5154 23.7942 33.5154 23.8728V26.258C33.5156 27.2331 33.1772 28.1781 32.5579 28.9314C31.9386 29.6847 31.0769 30.1996 30.1201 30.388C32.3152 32.9587 33.5194 36.2291 33.5156 39.6094V42.6562H34.9777C37.9803 37.6591 39.3882 31.8653 39.0137 26.0475L38.6494 20.2191C37.4121 19.978 36.3078 19.2878 35.549 18.2812H31.4844C30.6763 18.2812 29.9013 17.9602 29.3299 17.3888C28.7585 16.8174 28.4375 16.0425 28.4375 15.2344C28.4375 14.4263 28.7585 13.6513 29.3299 13.0799C29.9013 12.5085 30.6763 12.1875 31.4844 12.1875H35.549C35.9711 11.6278 36.504 11.1612 37.1145 10.8167C37.7249 10.4722 38.3999 10.2572 39.0971 10.1852L36.9084 5.07812H35.4545C35.1244 6.84925 33.9446 8.125 32.5 8.125C30.7915 8.125 29.4531 6.34055 29.4531 4.0625C29.4531 1.78445 30.7915 0 32.5 0C33.9446 0 35.1244 1.27575 35.4545 3.04688H37.5781C37.7769 3.04686 37.9713 3.10518 38.1373 3.2146C38.3032 3.32403 38.4334 3.47975 38.5117 3.66247L41.2947 10.1562H49.7656C50.035 10.1562 50.2933 10.2633 50.4838 10.4537C50.6742 10.6442 50.7812 10.9025 50.7812 11.1719V19.2969C50.7812 19.5662 50.6742 19.8246 50.4838 20.015C50.2933 20.2055 50.035 20.3125 49.7656 20.3125H45.0811L50.5061 36.5879C53.3333 36.779 55.9826 38.0361 57.9189 40.105C59.8551 42.174 60.934 44.9007 60.9375 47.7344C60.9375 48.0037 60.8305 48.2621 60.64 48.4525C60.4496 48.643 60.1912 48.75 59.9219 48.75H56.5788C56.8951 49.8111 56.9591 50.9314 56.7659 52.0216C56.5726 53.1118 56.1274 54.1419 55.4656 55.0296C54.8039 55.9173 53.944 56.6382 52.9544 57.1348C51.9648 57.6314 50.8728 57.89 49.7656 57.89C48.6584 57.89 47.5665 57.6314 46.5769 57.1348C45.5873 56.6382 44.7274 55.9173 44.0656 55.0296C43.4039 54.1419 42.9587 53.1118 42.7654 52.0216C42.5721 50.9314 42.6362 49.8111 42.9524 48.75H17.9851C18.3013 49.8111 18.3654 50.9314 18.1721 52.0216C17.9788 53.1118 17.5336 54.1419 16.8719 55.0296C16.2101 55.9173 15.3502 56.6382 14.3606 57.1348C13.371 57.6314 12.2791 57.89 11.1719 57.89C10.0647 57.89 8.97274 57.6314 7.98314 57.1348C6.99353 56.6382 6.1336 55.9173 5.47187 55.0296C4.81015 54.1419 4.36491 53.1118 4.17164 52.0216C3.97838 50.9314 4.04242 49.8111 4.35868 48.75H1.01562C0.746265 48.75 0.487934 48.643 0.29747 48.4525C0.107002 48.2621 0 48.0037 0 47.7344V42.6562C-0.0017395 40.8487 0.343021 39.0577 1.01562 37.38V31.3894C1.01653 30.6068 1.32783 29.8565 1.88122 29.3031C2.43462 28.7497 3.18492 28.4384 3.96754 28.4375H6.63965C6.28165 27.8204 6.09311 27.1197 6.09311 26.4062C6.09311 25.6928 6.28165 24.9921 6.63965 24.375H1.01562C0.746265 24.375 0.487934 24.268 0.29747 24.0775C0.107002 23.8871 0 23.6287 0 23.3594V3.97439C0.00120926 2.92069 0.420326 1.91049 1.16541 1.16541C1.91049 0.420328 2.92069 0.00120961 3.9744 0ZM32.5 2.03125C32.0859 2.03125 31.4844 2.82255 31.4844 4.0625C31.4844 5.30245 32.0859 6.09375 32.5 6.09375C32.9141 6.09375 33.5156 5.30245 33.5156 4.0625C33.5156 2.82255 32.9141 2.03125 32.5 2.03125ZM38.5938 14.2188H31.4844C31.215 14.2188 30.9567 14.3258 30.7662 14.5162C30.5758 14.7067 30.4688 14.965 30.4688 15.2344C30.4688 15.5037 30.5758 15.7621 30.7662 15.9525C30.9567 16.143 31.215 16.25 31.4844 16.25H38.5938C38.8631 16.25 39.1214 16.143 39.3119 15.9525C39.5024 15.7621 39.6094 15.5037 39.6094 15.2344C39.6094 14.965 39.5024 14.7067 39.3119 14.5162C39.1214 14.3258 38.8631 14.2188 38.5938 14.2188ZM48.75 18.2812V12.1875H46.7188V16.25H44.6875V12.1875H39.6094C39.4406 12.188 39.2722 12.2027 39.1059 12.2314C39.8148 12.3522 40.4582 12.72 40.9221 13.2696C41.3859 13.8192 41.6404 14.5152 41.6404 15.2344C41.6404 15.9536 41.3859 16.6496 40.9221 17.1992C40.4582 17.7488 39.8148 18.1165 39.1059 18.2373C39.2722 18.266 39.4406 18.2807 39.6094 18.2812H48.75ZM49.7656 55.8594C50.6089 55.8598 51.439 55.65 52.1809 55.2491C52.9228 54.8482 53.5532 54.2688 54.015 53.5632C54.4768 52.8576 54.7555 52.048 54.826 51.2077C54.8965 50.3673 54.7564 49.5227 54.4186 48.75H52.0342C52.427 49.1882 52.6846 49.7307 52.7757 50.3121C52.8669 50.8935 52.7877 51.4888 52.5478 52.0262C52.3079 52.5636 51.9175 53.02 51.4237 53.3402C50.93 53.6605 50.3541 53.8309 49.7656 53.8309C49.1771 53.8309 48.6012 53.6605 48.1075 53.3402C47.6138 53.02 47.2234 52.5636 46.9835 52.0262C46.7435 51.4888 46.6644 50.8935 46.7555 50.3121C46.8467 49.7307 47.1042 49.1882 47.4971 48.75H45.1125C44.7748 49.5227 44.6348 50.3673 44.7053 51.2077C44.7758 52.048 45.0545 52.8575 45.5163 53.5631C45.9782 54.2687 46.6085 54.8481 47.3504 55.249C48.0923 55.6499 48.9223 55.8597 49.7656 55.8594ZM50.7812 50.7812C50.7812 50.5804 50.7217 50.384 50.6101 50.217C50.4985 50.05 50.3399 49.9198 50.1543 49.8429C49.9687 49.7661 49.7645 49.746 49.5675 49.7851C49.3705 49.8243 49.1895 49.9211 49.0475 50.0631C48.9054 50.2051 48.8087 50.3861 48.7695 50.5831C48.7303 50.7801 48.7504 50.9843 48.8273 51.1699C48.9042 51.3555 49.0344 51.5141 49.2014 51.6257C49.3684 51.7373 49.5648 51.7969 49.7656 51.7969C50.0349 51.7966 50.293 51.6895 50.4834 51.4991C50.6738 51.3087 50.7809 51.0505 50.7812 50.7812ZM58.8503 46.7188C58.6004 44.4842 57.5357 42.4201 55.8597 40.9211C54.1838 39.4221 52.0141 38.5933 49.7656 38.5933C47.5171 38.5933 45.3475 39.4221 43.6715 40.9211C41.9956 42.4201 40.9309 44.4842 40.681 46.7188H58.8503ZM11.1719 55.8594C12.0152 55.8597 12.8452 55.6499 13.5871 55.249C14.329 54.8481 14.9593 54.2687 15.4212 53.5631C15.883 52.8575 16.1617 52.048 16.2322 51.2077C16.3027 50.3673 16.1627 49.5227 15.825 48.75H13.4404C13.8333 49.1882 14.0908 49.7307 14.182 50.3121C14.2731 50.8935 14.194 51.4888 13.954 52.0262C13.7141 52.5636 13.3237 53.02 12.83 53.3402C12.3363 53.6605 11.7604 53.8309 11.1719 53.8309C10.5834 53.8309 10.0075 53.6605 9.51376 53.3402C9.02004 53.02 8.62963 52.5636 8.38971 52.0262C8.14979 51.4888 8.07062 50.8935 8.16177 50.3121C8.25292 49.7307 8.51049 49.1882 8.90335 48.75H6.51879C6.181 49.5227 6.04104 50.3673 6.11154 51.2077C6.18204 52.048 6.46079 52.8575 6.9226 53.5631C7.38441 54.2687 8.01473 54.8481 8.75662 55.249C9.49851 55.6499 10.3286 55.8597 11.1719 55.8594ZM12.1875 50.7812C12.1875 50.5804 12.1279 50.384 12.0163 50.217C11.9047 50.05 11.7461 49.9198 11.5605 49.8429C11.375 49.7661 11.1707 49.746 10.9737 49.7851C10.7767 49.8243 10.5958 49.9211 10.4537 50.0631C10.3117 50.2051 10.215 50.3861 10.1758 50.5831C10.1366 50.7801 10.1567 50.9843 10.2336 51.1699C10.3104 51.3555 10.4406 51.5141 10.6076 51.6257C10.7746 51.7373 10.971 51.7969 11.1719 51.7969C11.4411 51.7966 11.6993 51.6895 11.8897 51.4991C12.0801 51.3087 12.1872 51.0505 12.1875 50.7812ZM20.2565 46.7188C20.0066 44.4842 18.9419 42.4201 17.266 40.9211C15.59 39.4221 13.4204 38.5933 11.1719 38.5933C8.92336 38.5933 6.75372 39.4221 5.07777 40.9211C3.40181 42.4201 2.33711 44.4842 2.08724 46.7188H20.2565ZM11.1719 36.5625C13.958 36.566 16.6425 37.609 18.7002 39.4874C20.7578 41.3658 22.0405 43.9445 22.2972 46.7188H38.6403C38.8756 44.1816 39.9696 41.8007 41.7414 39.9695C43.5132 38.1383 45.8568 36.9665 48.3849 36.6478L42.9399 20.3125H40.6905L41.0409 25.9208C41.4547 32.3524 39.8338 38.7511 36.4081 44.2102C36.3168 44.3562 36.1899 44.4767 36.0392 44.5602C35.8886 44.6437 35.7191 44.6875 35.5469 44.6875H32.5C32.2306 44.6875 31.9723 44.5805 31.7818 44.39C31.5914 44.1996 31.4844 43.9412 31.4844 43.6719V39.6094C31.4863 37.88 31.1192 36.1701 30.4077 34.5938C29.6962 33.0176 28.6567 31.6113 27.3584 30.4688H21.5356C23.6397 31.7322 25.3811 33.5186 26.5905 35.6542C27.7999 37.7898 28.4362 40.202 28.4375 42.6562V44.6875H26.4062V42.6562C26.4061 39.5506 25.2203 36.5623 23.0911 34.3014C20.962 32.0406 18.0501 30.6778 14.9501 30.4915C11.85 30.3051 8.79583 31.3092 6.41117 33.2987C4.02652 35.2883 2.49131 38.1131 2.1191 41.1963C3.15331 39.7622 4.51334 38.5943 6.08721 37.7887C7.66109 36.9831 9.4038 36.5628 11.1719 36.5625ZM3.96754 30.4688C3.72345 30.469 3.48943 30.5661 3.31683 30.7387C3.14423 30.9113 3.04714 31.1453 3.04688 31.3894V33.8703C4.11641 32.5133 5.42258 31.3609 6.90231 30.4688H3.96754ZM2.03125 22.3438H14.2188V24.375H10.1562C9.61753 24.375 9.10087 24.589 8.71994 24.9699C8.339 25.3509 8.125 25.8675 8.125 26.4062C8.125 26.945 8.339 27.4616 8.71994 27.8426C9.10087 28.2235 9.61753 28.4375 10.1562 28.4375H29.3048C29.5911 28.4375 29.8745 28.3812 30.139 28.2717C30.4034 28.1621 30.6437 28.0016 30.8461 27.7992C31.0485 27.5968 31.209 27.3565 31.3185 27.0921C31.4281 26.8276 31.4844 26.5442 31.4844 26.258V23.991L31.3143 23.2696C31.1877 23.065 30.9978 22.9073 30.7734 22.8204C30.5491 22.7335 30.3025 22.7222 30.0711 22.7882C26.3866 23.841 22.5732 24.3751 18.7412 24.375H16.25V22.3438H18.7412C19.9455 22.3438 21.1463 22.2881 22.3438 22.1768V6.09375H4.0625V4.0625H22.3438V3.97439C22.3432 3.45922 22.1383 2.9653 21.774 2.60102C21.4097 2.23673 20.9158 2.03182 20.4006 2.03125H3.9744C3.45922 2.03182 2.9653 2.23673 2.60102 2.60102C2.23673 2.9653 2.03182 3.45922 2.03125 3.97439V22.3438Z" fill="white" fill-opacity="0.7"/>
</svg>
