<svg width="65" height="63" viewBox="0 0 65 63" fill="none" xmlns="http://www.w3.org/2000/svg">
<path d="M33.3317 54.281H43.3603L55.2634 43.2763C56.8619 41.5972 57.1941 39.0785 56.0856 37.0424L52.3694 28.29H46.7545C46.7545 28.29 46.4871 39.0757 45.8183 39.6869L37.6995 43.8325C36.0219 42.297 35.0666 40.1273 35.0666 37.853V36.6599L27.0119 33.8793L18.9572 36.6599C16.5505 40.3182 15.7571 44.8063 16.7638 49.0679L17.2577 51.1592L33.3317 54.281Z" fill="#FC8726"/>
<path d="M54.1637 29.4013H52.8603L52.4818 29.2704L50.4974 29.4013H48.1088C45.7097 29.4013 43.7649 27.4565 43.7649 25.0574C43.7649 22.6583 45.7097 20.7135 48.1088 20.7135H54.1637C54.8934 20.7135 55.4851 21.3051 55.4851 22.0349V28.08C55.485 28.8097 54.8934 29.4013 54.1637 29.4013Z" fill="#FE9F50"/>
<path d="M54.1635 20.7135H50.2354C50.9651 20.7135 51.5568 21.3051 51.5568 22.0349V28.08C51.5568 28.8097 50.9652 29.4013 50.2354 29.4013H54.1635C54.8932 29.4013 55.485 28.8097 55.485 28.08V22.0349C55.4848 21.3051 54.8932 20.7135 54.1635 20.7135Z" fill="#FE9F50"/>
<path d="M22.608 62.6725C26.7227 62.6725 30.0583 59.3569 30.0583 55.2668C30.0583 51.1767 26.7227 47.861 22.608 47.861C18.4933 47.861 15.1577 51.1767 15.1577 55.2668C15.1577 59.3569 18.4933 62.6725 22.608 62.6725Z" fill="#7F8A96"/>
<path d="M22.6079 47.861C22.0283 47.861 21.4649 47.9289 20.9233 48.0535C24.2263 48.8126 26.6891 51.7529 26.6891 55.2668C26.6891 58.7808 24.2263 61.7209 20.9233 62.4801C21.4649 62.6046 22.0282 62.6725 22.6079 62.6725C26.7225 62.6725 30.0582 59.3569 30.0582 55.2668C30.0582 51.1766 26.7225 47.861 22.6079 47.861Z" fill="#747E8A"/>
<path d="M22.6081 57.763C23.9949 57.763 25.1192 56.6454 25.1192 55.2668C25.1192 53.8881 23.9949 52.7705 22.6081 52.7705C21.2212 52.7705 20.0969 53.8881 20.0969 55.2668C20.0969 56.6454 21.2212 57.763 22.6081 57.763Z" fill="white"/>
<path d="M30.1621 54.281H12.7058C12.2151 54.281 11.8187 53.8763 11.8344 53.3859C11.9087 51.0559 12.8762 44.8622 20.9003 43.1134C21.4828 42.9864 22.8705 43.1997 22.8705 43.1997C26.4611 44.105 30.1621 47.8248 30.1621 53.8217V54.281Z" fill="#FE9F50"/>
<path d="M22.7084 42.9635C22.0923 42.9635 21.4884 43.0156 20.9004 43.1142C26.0365 43.9751 29.9506 48.4409 29.9506 53.8216V54.2809H33.5665V53.8216C33.5667 47.8248 28.7053 42.9635 22.7084 42.9635Z" fill="#FE9F50"/>
<path d="M54.3409 62.6725C58.4556 62.6725 61.7912 59.3569 61.7912 55.2668C61.7912 51.1767 58.4556 47.861 54.3409 47.861C50.2262 47.861 46.8906 51.1767 46.8906 55.2668C46.8906 59.3569 50.2262 62.6725 54.3409 62.6725Z" fill="#7F8A96"/>
<path d="M54.341 47.861C53.7615 47.861 53.1981 47.9289 52.6565 48.0535C55.9594 48.8126 58.4223 51.7529 58.4223 55.2668C58.4223 58.7808 55.9594 61.7209 52.6565 62.4801C53.1981 62.6046 53.7614 62.6725 54.341 62.6725C58.4557 62.6725 61.7913 59.3569 61.7913 55.2668C61.7913 51.1766 58.4557 47.861 54.341 47.861Z" fill="#747E8A"/>
<path d="M54.341 57.763C55.7279 57.763 56.8521 56.6454 56.8521 55.2668C56.8521 53.8881 55.7279 52.7705 54.341 52.7705C52.9541 52.7705 51.8298 53.8881 51.8298 55.2668C51.8298 56.6454 52.9541 57.763 54.341 57.763Z" fill="white"/>
<path d="M61.2795 54.2811H43.3604V53.8217C43.3604 48.4962 47.1943 44.0662 52.2526 43.141C52.8902 43.0243 53.5238 43.0594 54.1952 43.0594C60.1919 43.0594 61.2795 47.8248 61.2795 53.8217V54.2811Z" fill="#FE9F50"/>
<path d="M54.2185 42.9709C53.5474 42.9709 52.8918 43.035 52.2544 43.1515C57.3132 44.0763 61.1486 48.5035 61.1486 53.8292V54.2885H63.9695C64.5877 54.2885 65.0653 53.7489 64.9927 53.1351C64.6518 50.2536 62.9287 42.9709 54.2185 42.9709Z" fill="#FE9F50"/>
<path d="M33.3441 28.6356H30.9781L30.1621 29.945L29.014 28.6356H25.5561L24.574 29.945L23.592 28.6356H17.4958L18.957 36.6598H23.592L24.574 35.3504L25.5561 36.6598H29.014L30.1621 35.3504L30.9781 36.6598H36.2802C36.645 36.6598 36.9407 36.3641 36.9407 35.9993V34.6791C36.9407 32.6927 37.1167 28.8844 33.3441 28.6356Z" fill="#EDAE86"/>
<path d="M43.8278 26.8672H40.6989C40.2208 26.8672 39.8333 26.4796 39.8333 26.0016V22.6761C39.8333 22.1981 40.2208 21.8105 40.6989 21.8105H43.8278C45.2243 21.8105 46.3562 22.9425 46.3562 24.3389C46.3562 25.7351 45.2243 26.8672 43.8278 26.8672Z" fill="#FFE07D"/>
<path d="M1.2193 17.4426H17.7377C18.4111 17.4426 18.957 17.9885 18.957 18.6619V36.6599H1.2193C0.545885 36.6599 0 36.114 0 35.4406V18.6621C0 17.9886 0.545885 17.4426 1.2193 17.4426Z" fill="#FE9F50"/>
<path d="M17.7377 17.4426H13.8096C14.483 17.4426 15.0289 17.9885 15.0289 18.6619V36.6599H18.957V18.6621C18.957 17.9886 18.4112 17.4426 17.7377 17.4426Z" fill="#FE9F50"/>
<path d="M27.9171 9.26377C27.9171 4.25679 23.7992 0.211557 18.7653 0.329926C14.1212 0.43926 10.1863 4.34845 10.0485 8.99181C9.93809 12.7131 12.1036 15.9413 15.2564 17.3888C15.4328 17.4697 15.5835 17.5977 15.694 17.7571L18.4562 21.7431C18.7101 22.1094 19.2518 22.1094 19.5057 21.7431L22.2678 17.757C22.3787 17.597 22.5301 17.4692 22.707 17.388C25.7817 15.9756 27.9171 12.8692 27.9171 9.26377Z" fill="#FFE07D"/>
<path d="M18.7652 0.329926C18.1275 0.344984 17.5038 0.434022 16.9009 0.584341C20.687 1.39328 23.5853 4.91437 23.7071 9.26377C23.808 12.8677 21.5717 15.9756 18.4969 17.3881C18.32 17.4695 18.1686 17.5971 18.0577 17.7571L16.8757 19.4627L18.456 21.7431C18.7099 22.1094 19.2516 22.1094 19.5054 21.7431L22.2675 17.7571C22.3784 17.5971 22.5298 17.4693 22.7067 17.3881C25.7816 15.9756 27.9169 12.8692 27.9169 9.26377C27.9169 4.25679 23.799 0.211557 18.7652 0.329926Z" fill="#FFD064"/>
<path d="M20.5744 12.7438C22.4576 11.8676 23.2739 9.63072 22.3977 7.74755C21.5215 5.86439 19.2846 5.04807 17.4015 5.92425C15.5183 6.80043 14.702 9.03732 15.5782 10.9205C16.4543 12.8036 18.6912 13.62 20.5744 12.7438Z" fill="#FDFCFC"/>
<path d="M29.0142 28.6356H30.9782V36.6598H29.0142V28.6356Z" fill="#FE9F50"/>
<path d="M23.592 28.6356H25.5561V36.6598H23.592V28.6356Z" fill="#FE9F50"/>
</svg>
