<svg width="60" height="60" viewBox="0 0 60 60" fill="none" xmlns="http://www.w3.org/2000/svg">
<g clip-path="url(#clip0)">
<path d="M24.0449 16.8373H35.2081C36.1789 16.8373 36.9659 16.0503 36.9659 15.0795C36.9659 14.1087 36.1789 13.3217 35.2081 13.3217H24.0449C23.0741 13.3217 22.2871 14.1087 22.2871 15.0795C22.2871 16.0503 23.074 16.8373 24.0449 16.8373Z" fill="white" fill-opacity="0.8"/>
<path d="M42.8941 0H1.75781C0.787031 0 0 0.787031 0 1.75781V58.2422C0 59.213 0.787031 60 1.75781 60H42.8941C43.8649 60 44.652 59.213 44.652 58.2422V1.75781C44.652 0.787031 43.8649 0 42.8941 0ZM41.1363 56.4844H3.51562V3.51562H41.1363V56.4844Z" fill="white" fill-opacity="0.8"/>
<path d="M60.0001 42.5979V5.96613C60.0001 2.67645 57.3236 0 54.0339 0C50.7441 0 48.0677 2.67645 48.0677 5.96613V42.5978C48.0677 43.5149 48.7703 44.2671 49.6665 44.3475L48.1726 48.4748C48.0155 48.9088 48.0353 49.387 48.2279 49.8063L52.4363 58.9753C52.7228 59.5997 53.347 59.9999 54.0339 59.9999C54.7209 59.9999 55.345 59.5997 55.6316 58.9753L59.8399 49.8063C60.0324 49.3869 60.0522 48.9087 59.8952 48.4748L58.4013 44.3475C59.2974 44.2671 60.0001 43.515 60.0001 42.5979ZM51.5833 40.8401V14.6374H56.4844V40.84H51.5833V40.8401ZM54.0339 3.51562C55.3851 3.51562 56.4844 4.61496 56.4844 5.96613V11.1218H51.5833V5.96613C51.5833 4.61496 52.6826 3.51562 54.0339 3.51562ZM54.0339 54.0282L51.7235 48.9943L53.4024 44.3556H54.6653L56.3444 48.9943L54.0339 54.0282Z" fill="white" fill-opacity="0.8"/>
<path d="M10.6294 18.4215C10.959 18.7511 11.4061 18.9364 11.8723 18.9364C12.3384 18.9364 12.7856 18.7511 13.1152 18.4216L18.4546 13.0822C19.1411 12.3957 19.1411 11.2828 18.4546 10.5963C17.7682 9.9098 16.6552 9.9098 15.9687 10.5963L11.8723 14.6927L10.5989 13.4191C9.91266 12.7326 8.79961 12.7326 8.11301 13.4191C7.42652 14.1056 7.42652 15.2185 8.11301 15.905L10.6294 18.4215Z" fill="white" fill-opacity="0.8"/>
<path d="M24.0449 27.5021H35.2081C36.1789 27.5021 36.9659 26.715 36.9659 25.7443C36.9659 24.7735 36.1789 23.9865 35.2081 23.9865H24.0449C23.0741 23.9865 22.2871 24.7735 22.2871 25.7443C22.2871 26.715 23.074 27.5021 24.0449 27.5021Z" fill="white" fill-opacity="0.8"/>
<path d="M10.6294 29.0861C10.959 29.4157 11.4061 29.601 11.8723 29.601C12.3384 29.601 12.7856 29.4157 13.1152 29.0862L18.4546 23.7468C19.1411 23.0603 19.1411 21.9474 18.4546 21.2609C17.7682 20.5744 16.6552 20.5744 15.9687 21.2609L11.8723 25.3573L10.5989 24.0839C9.91266 23.3975 8.79961 23.3975 8.11301 24.0839C7.42652 24.7704 7.42652 25.8834 8.11301 26.5698L10.6294 29.0861Z" fill="white" fill-opacity="0.8"/>
<path d="M24.0449 38.1666H35.2081C36.1789 38.1666 36.9659 37.3795 36.9659 36.4088C36.9659 35.438 36.1789 34.6509 35.2081 34.6509H24.0449C23.0741 34.6509 22.2871 35.438 22.2871 36.4088C22.2871 37.3795 23.074 38.1666 24.0449 38.1666Z" fill="white" fill-opacity="0.8"/>
<path d="M24.0449 49.2397H35.2081C36.1789 49.2397 36.9659 48.4527 36.9659 47.4819C36.9659 46.5111 36.1789 45.7241 35.2081 45.7241H24.0449C23.0741 45.7241 22.2871 46.5111 22.2871 47.4819C22.2871 48.4527 23.074 49.2397 24.0449 49.2397Z" fill="white" fill-opacity="0.8"/>
<path d="M10.6292 39.7507C10.9588 40.0804 11.4059 40.2656 11.8721 40.2656C12.3382 40.2656 12.7854 40.0804 13.115 39.7508L18.4544 34.4115C19.1409 33.7251 19.1409 32.6121 18.4544 31.9256C17.768 31.2392 16.655 31.2393 15.9685 31.9256L11.8721 36.0221L10.5987 34.7485C9.91246 34.062 8.79941 34.062 8.11281 34.7485C7.42621 35.4349 7.42632 36.5479 8.11281 37.2344L10.6292 39.7507Z" fill="white" fill-opacity="0.8"/>
</g>
<defs>
<clipPath id="clip0">
<rect width="60" height="60" fill="white"/>
</clipPath>
</defs>
</svg>
