<svg width="135" height="101" viewBox="0 0 135 101" fill="none" xmlns="http://www.w3.org/2000/svg">
<rect width="4.76673" height="4.76673" transform="matrix(-1 0 0 1 131.877 5.00024)" fill="#FFDC5D" fill-opacity="0.5"/>
<rect width="4.76673" height="4.76673" transform="matrix(-1 0 0 1 120.395 5)" fill="#FFDC5D" fill-opacity="0.5"/>
<rect width="4.76673" height="4.76673" transform="matrix(-1 0 0 1 131.877 15.1829)" fill="#FFDC5D" fill-opacity="0.5"/>
<rect width="4.76673" height="4.76673" transform="matrix(-1 0 0 1 120.395 15.1833)" fill="#FFDC5D" fill-opacity="0.5"/>
<rect width="4.76673" height="4.76673" transform="matrix(-1 0 0 1 131.877 25.3676)" fill="#FFDC5D" fill-opacity="0.5"/>
<rect width="4.76673" height="4.76673" transform="matrix(-1 0 0 1 120.395 25.3672)" fill="#FFDC5D" fill-opacity="0.5"/>
<rect width="4.76673" height="4.76673" transform="matrix(-1 0 0 1 131.877 35.5508)" fill="#FFDC5D" fill-opacity="0.5"/>
<rect width="4.76673" height="4.76673" transform="matrix(-1 0 0 1 120.395 35.5504)" fill="#FFDC5D" fill-opacity="0.5"/>
<rect width="4.76673" height="4.76673" transform="matrix(-1 0 0 1 131.877 45.7336)" fill="#FFDC5D" fill-opacity="0.5"/>
<rect width="4.76673" height="4.76673" transform="matrix(-1 0 0 1 120.395 45.7335)" fill="#FFDC5D" fill-opacity="0.5"/>
<rect width="4.76673" height="4.76673" transform="matrix(-1 0 0 1 131.877 55.9175)" fill="#FFDC5D" fill-opacity="0.5"/>
<rect width="4.76673" height="4.76673" transform="matrix(-1 0 0 1 120.395 55.9174)" fill="#FFDC5D" fill-opacity="0.5"/>
<rect width="4.76673" height="4.76673" transform="matrix(-1 0 0 1 131.877 60.6842)" fill="#FFDC5D" fill-opacity="0.5"/>
<rect width="4.76673" height="4.76673" transform="matrix(-1 0 0 1 120.395 60.6843)" fill="#FFDC5D" fill-opacity="0.5"/>
<rect width="4.76673" height="4.76673" transform="matrix(-1 0 0 1 131.877 70.8687)" fill="#FFDC5D" fill-opacity="0.5"/>
<rect width="4.76673" height="4.76673" transform="matrix(-1 0 0 1 120.395 70.8676)" fill="#FFDC5D" fill-opacity="0.5"/>
<rect width="4.76673" height="4.76673" transform="matrix(-1 0 0 1 108.91 70.8676)" fill="#FFDC5D" fill-opacity="0.5"/>
<rect width="4.76673" height="4.76673" transform="matrix(-1 0 0 1 131.877 81.0511)" fill="#FFDC5D" fill-opacity="0.5"/>
<rect width="4.76673" height="4.76673" transform="matrix(-1 0 0 1 120.395 81.0514)" fill="#FFDC5D" fill-opacity="0.5"/>
<rect width="4.76673" height="4.76673" transform="matrix(-1 0 0 1 108.91 81.0514)" fill="#FFDC5D" fill-opacity="0.5"/>
<rect width="4.76673" height="4.76673" transform="matrix(-1 0 0 1 131.877 85.8181)" fill="#FFDC5D" fill-opacity="0.5"/>
<rect width="4.76673" height="4.76673" transform="matrix(-1 0 0 1 120.392 85.8181)" fill="#FFDC5D" fill-opacity="0.5"/>
<rect width="4.76673" height="4.76673" transform="matrix(-1 0 0 1 108.91 85.8181)" fill="#FFDC5D" fill-opacity="0.5"/>
<rect width="4.76673" height="4.76673" transform="matrix(-1 0 0 1 97.4258 85.8181)" fill="#FFDC5D" fill-opacity="0.5"/>
<rect width="4.76673" height="4.76673" transform="matrix(-1 0 0 1 85.9421 85.8181)" fill="#FFDC5D" fill-opacity="0.5"/>
<rect width="4.76673" height="4.76673" transform="matrix(-1 0 0 1 74.4583 85.8181)" fill="#FFDC5D" fill-opacity="0.5"/>
<rect width="4.76673" height="4.76673" transform="matrix(-1 0 0 1 131.877 96.0022)" fill="#FFDC5D" fill-opacity="0.5"/>
<rect width="4.76673" height="4.76673" transform="matrix(-1 0 0 1 120.393 96.0013)" fill="#FFDC5D" fill-opacity="0.5"/>
<rect width="4.76673" height="4.76673" transform="matrix(-1 0 0 1 108.91 96.0013)" fill="#FFDC5D" fill-opacity="0.5"/>
<rect width="4.76673" height="4.76673" transform="matrix(-1 0 0 1 97.4265 96.0013)" fill="#FFDC5D" fill-opacity="0.5"/>
<rect width="4.76673" height="4.76673" transform="matrix(-1 0 0 1 85.9426 96.0013)" fill="#FFDC5D" fill-opacity="0.5"/>
<rect width="4.76673" height="4.76673" transform="matrix(-1 0 0 1 74.459 96.0013)" fill="#FFDC5D" fill-opacity="0.5"/>
<rect width="4.76673" height="4.76673" transform="matrix(-1 0 0 1 63.1846 85.819)" fill="#FFDC5D" fill-opacity="0.5"/>
<rect width="4.76673" height="4.76673" transform="matrix(-1 0 0 1 51.7021 85.8181)" fill="#FFDC5D" fill-opacity="0.5"/>
<rect width="4.76673" height="4.76673" transform="matrix(-1 0 0 1 40.2183 85.8181)" fill="#FFDC5D" fill-opacity="0.5"/>
<rect width="4.76673" height="4.76673" transform="matrix(-1 0 0 1 28.7344 85.8181)" fill="#FFDC5D" fill-opacity="0.5"/>
<rect width="4.76673" height="4.76673" transform="matrix(-1 0 0 1 17.2517 85.8181)" fill="#FFDC5D" fill-opacity="0.5"/>
<rect width="4.76673" height="4.76673" transform="matrix(-1 0 0 1 5.76685 85.8181)" fill="#FFDC5D" fill-opacity="0.5"/>
<rect width="4.76673" height="4.76673" transform="matrix(-1 0 0 1 63.1848 96.0021)" fill="#FFDC5D" fill-opacity="0.5"/>
<rect width="4.76673" height="4.76673" transform="matrix(-1 0 0 1 51.7024 96.0012)" fill="#FFDC5D" fill-opacity="0.5"/>
<rect width="4.76673" height="4.76673" transform="matrix(-1 0 0 1 40.2185 96.0012)" fill="#FFDC5D" fill-opacity="0.5"/>
<rect width="4.76673" height="4.76673" transform="matrix(-1 0 0 1 28.7349 96.0012)" fill="#FFDC5D" fill-opacity="0.5"/>
<rect width="4.76673" height="4.76673" transform="matrix(-1 0 0 1 17.252 96.0012)" fill="#FFDC5D" fill-opacity="0.5"/>
<rect width="4.76673" height="4.76673" transform="matrix(-1 0 0 1 5.76709 96.0012)" fill="#FFDC5D" fill-opacity="0.5"/>
<rect width="4.76673" height="4.76673" transform="matrix(1 0 0 -1 31.8145 15.1312)" fill="#FFDC5D" fill-opacity="0.5"/>
<rect width="4.76673" height="4.76673" transform="matrix(1 0 0 -1 43.2993 15.1312)" fill="#FFDC5D" fill-opacity="0.5"/>
<rect width="4.76673" height="4.76673" transform="matrix(1 0 0 -1 54.782 15.1312)" fill="#FFDC5D" fill-opacity="0.5"/>
<rect width="4.76673" height="4.76673" transform="matrix(1 0 0 -1 66.2659 15.1312)" fill="#FFDC5D" fill-opacity="0.5"/>
<rect width="4.76673" height="4.76673" transform="matrix(1 0 0 -1 77.7495 15.1312)" fill="#FFDC5D" fill-opacity="0.5"/>
<rect width="4.76673" height="4.76673" transform="matrix(1 0 0 -1 89.2334 15.1312)" fill="#FFDC5D" fill-opacity="0.5"/>
<rect width="4.76673" height="4.76673" transform="matrix(1 0 0 -1 31.8149 4.94714)" fill="#FFDC5D" fill-opacity="0.5"/>
<rect width="4.76673" height="4.76673" transform="matrix(1 0 0 -1 43.2986 4.948)" fill="#FFDC5D" fill-opacity="0.5"/>
<rect width="4.76673" height="4.76673" transform="matrix(1 0 0 -1 54.7812 4.948)" fill="#FFDC5D" fill-opacity="0.5"/>
<rect width="4.76673" height="4.76673" transform="matrix(1 0 0 -1 66.2651 4.948)" fill="#FFDC5D" fill-opacity="0.5"/>
<rect width="4.76673" height="4.76673" transform="matrix(1 0 0 -1 77.749 4.948)" fill="#FFDC5D" fill-opacity="0.5"/>
<rect width="4.76673" height="4.76673" transform="matrix(1 0 0 -1 89.2327 4.948)" fill="#FFDC5D" fill-opacity="0.5"/>
<rect width="4.76673" height="4.76673" transform="matrix(1 0 0 -1 100.507 15.1304)" fill="#FFDC5D" fill-opacity="0.5"/>
<rect width="4.76673" height="4.76673" transform="matrix(1 0 0 -1 111.99 15.1312)" fill="#FFDC5D" fill-opacity="0.5"/>
<rect width="4.76673" height="4.76673" transform="matrix(1 0 0 -1 123.473 15.1312)" fill="#FFDC5D" fill-opacity="0.5"/>
<rect width="4.76673" height="4.76673" transform="matrix(1 0 0 -1 134.957 15.1312)" fill="#FFDC5D" fill-opacity="0.5"/>
<rect width="4.76673" height="4.76673" transform="matrix(1 0 0 -1 100.507 4.94727)" fill="#FFDC5D" fill-opacity="0.5"/>
<rect width="4.76673" height="4.76673" transform="matrix(1 0 0 -1 111.989 4.94812)" fill="#FFDC5D" fill-opacity="0.5"/>
<rect width="4.76673" height="4.76673" transform="matrix(1 0 0 -1 123.473 4.94812)" fill="#FFDC5D" fill-opacity="0.5"/>
<rect width="4.76673" height="4.76673" transform="matrix(1 0 0 -1 134.957 4.94812)" fill="#FFDC5D" fill-opacity="0.5"/>
<rect width="4.76673" height="4.76673" transform="matrix(1 0 0 -1 0 85.8724)" fill="#FFDC5D" fill-opacity="0.5"/>
<rect width="4.76673" height="4.76673" transform="matrix(1 0 0 -1 11.4827 85.8727)" fill="#FFDC5D" fill-opacity="0.5"/>
<rect width="4.76673" height="4.76673" transform="matrix(1 0 0 -1 0 75.6898)" fill="#FFDC5D" fill-opacity="0.5"/>
<rect width="4.76673" height="4.76673" transform="matrix(1 0 0 -1 11.4827 75.6893)" fill="#FFDC5D" fill-opacity="0.5"/>
<rect width="4.76673" height="4.76673" transform="matrix(1 0 0 -1 0 65.5051)" fill="#FFDC5D" fill-opacity="0.5"/>
<rect width="4.76673" height="4.76673" transform="matrix(1 0 0 -1 11.4827 65.5055)" fill="#FFDC5D" fill-opacity="0.5"/>
<rect width="4.76673" height="4.76673" transform="matrix(1 0 0 -1 0 55.3219)" fill="#FFDC5D" fill-opacity="0.5"/>
<rect width="4.76673" height="4.76673" transform="matrix(1 0 0 -1 11.4827 55.3223)" fill="#FFDC5D" fill-opacity="0.5"/>
<rect width="4.76673" height="4.76673" transform="matrix(1 0 0 -1 0 45.139)" fill="#FFDC5D" fill-opacity="0.5"/>
<rect width="4.76673" height="4.76673" transform="matrix(1 0 0 -1 11.4827 45.1392)" fill="#FFDC5D" fill-opacity="0.5"/>
<rect width="4.76673" height="4.76673" transform="matrix(1 0 0 -1 0 34.9552)" fill="#FFDC5D" fill-opacity="0.5"/>
<rect width="4.76673" height="4.76673" transform="matrix(1 0 0 -1 11.4827 34.9553)" fill="#FFDC5D" fill-opacity="0.5"/>
<rect width="4.76673" height="4.76673" transform="matrix(1 0 0 -1 0 25.1339)" fill="#FFDC5D" fill-opacity="0.5"/>
<rect width="4.76673" height="4.76673" transform="matrix(1 0 0 -1 11.4827 25.1338)" fill="#FFDC5D" fill-opacity="0.5"/>
<rect width="4.76673" height="4.76673" transform="matrix(1 0 0 -1 0 14.9495)" fill="#FFDC5D" fill-opacity="0.5"/>
<rect width="4.76673" height="4.76673" transform="matrix(1 0 0 -1 11.4827 14.9506)" fill="#FFDC5D" fill-opacity="0.5"/>
<rect width="4.76673" height="4.76673" transform="matrix(1 0 0 -1 22.9675 14.9506)" fill="#FFDC5D" fill-opacity="0.5"/>
<rect width="4.76673" height="4.76673" transform="matrix(1 0 0 -1 0 4.76697)" fill="#FFDC5D" fill-opacity="0.5"/>
<rect width="4.76673" height="4.76673" transform="matrix(1 0 0 -1 11.4827 4.76672)" fill="#FFDC5D" fill-opacity="0.5"/>
<rect width="4.76673" height="4.76673" transform="matrix(1 0 0 -1 22.9675 4.76672)" fill="#FFDC5D" fill-opacity="0.5"/>
</svg>
