<svg width="444" height="64" viewBox="0 0 444 64" fill="none" xmlns="http://www.w3.org/2000/svg">
<path d="M442.5 32C442.5 33.4572 441.465 35.2229 438.626 37.2228C435.839 39.1861 431.632 41.1406 426.07 43.036C414.966 46.8203 398.817 50.2522 378.764 53.1428C338.68 58.9206 283.255 62.5 222 62.5C160.745 62.5 105.32 58.9206 65.2363 53.1428C45.1831 50.2522 29.0338 46.8203 17.9297 43.036C12.368 41.1406 8.16118 39.1861 5.37407 37.2228C2.53501 35.2229 1.5 33.4572 1.5 32C1.5 30.5428 2.53501 28.7771 5.37407 26.7772C8.16118 24.8139 12.368 22.8594 17.9297 20.964C29.0338 17.1797 45.1831 13.7478 65.2363 10.8572C105.32 5.07942 160.745 1.5 222 1.5C283.255 1.5 338.68 5.07942 378.764 10.8572C398.817 13.7478 414.966 17.1797 426.07 20.964C431.632 22.8594 435.839 24.8139 438.626 26.7772C441.465 28.7771 442.5 30.5428 442.5 32Z" stroke="url(#paint0_radial)" stroke-width="3"/>
<defs>
<radialGradient id="paint0_radial" cx="0" cy="0" r="1" gradientUnits="userSpaceOnUse" gradientTransform="translate(-56.0003 70.5) rotate(14.0879) scale(120.628 556.649)">
<stop stop-color="#D66506"/>
<stop offset="1" stop-color="white" stop-opacity="0"/>
</radialGradient>
</defs>
</svg>
