<svg width="55" height="48" viewBox="0 0 55 48" fill="none" xmlns="http://www.w3.org/2000/svg">
<g filter="url(#filter0_b)">
<path d="M32.4601 47.5601C44.6662 47.5601 54.6127 37.6358 54.6127 25.4076C54.6127 13.2015 44.6662 3.25507 32.4601 3.25507C20.2319 3.25507 10.3076 13.2015 10.3076 25.4076C10.3076 37.4285 19.8984 47.223 31.8404 47.5516L32.4601 47.5601Z" fill="url(#paint0_linear)"/>
</g>
<path d="M32.0397 15.777C28.2823 15.777 25.2434 18.8159 25.2434 22.5732C25.2434 24.2626 25.7289 25.8451 26.6124 27.2724C27.5347 28.7675 28.7483 30.0491 29.6804 31.5443C30.1367 32.2725 30.4668 32.9521 30.8163 33.7385C31.0688 34.2725 31.2727 35.1948 32.0397 35.1948C32.8067 35.1948 33.0106 34.2725 33.2533 33.7385C33.6125 32.9521 33.9329 32.2725 34.3892 31.5443C35.3213 30.0588 36.5349 28.7772 37.4572 27.2724C38.3505 25.8451 38.8359 24.2626 38.8359 22.5732C38.8359 18.8159 35.797 15.777 32.0397 15.777ZM32.0397 25.2432C30.6998 25.2432 29.6124 24.1558 29.6124 22.816C29.6124 21.4761 30.6998 20.3887 32.0397 20.3887C33.3795 20.3887 34.4669 21.4761 34.4669 22.816C34.4669 24.1558 33.3795 25.2432 32.0397 25.2432Z" fill="white"/>
<defs>
<filter id="filter0_b" x="-2.71264" y="-9.76519" width="70.3456" height="70.3456" filterUnits="userSpaceOnUse" color-interpolation-filters="sRGB">
<feFlood flood-opacity="0" result="BackgroundImageFix"/>
<feGaussianBlur in="BackgroundImage" stdDeviation="6.51013"/>
<feComposite in2="SourceAlpha" operator="in" result="effect1_backgroundBlur"/>
<feBlend mode="normal" in="SourceGraphic" in2="effect1_backgroundBlur" result="shape"/>
</filter>
<linearGradient id="paint0_linear" x1="3.5" y1="-23" x2="-15" y2="39.5" gradientUnits="userSpaceOnUse">
<stop stop-color="#4B5DFE"/>
<stop offset="1" stop-color="#4B5DFE" stop-opacity="0"/>
</linearGradient>
</defs>
</svg>
