<svg width="360" height="394" viewBox="0 0 360 394" fill="none" xmlns="http://www.w3.org/2000/svg">
<path d="M190.718 309.069L192.649 311.868H152.445V302.27C152.445 301.381 153.237 300.67 154.228 300.67C154.475 300.67 154.673 300.715 154.871 300.759C155.168 300.848 155.466 301.07 155.664 301.292L157.743 303.87C158.387 304.669 159.377 305.114 160.417 305.114H164.08C165.219 305.114 166.308 304.58 166.903 303.736L168.536 301.381C168.883 300.937 169.428 300.626 170.022 300.626H170.467C170.913 300.626 171.359 300.803 171.705 301.07L173.983 302.981C175.765 304.492 178.092 305.425 180.568 305.558L184.628 305.78C187.153 305.958 189.381 307.158 190.718 309.069Z" fill="white" fill-opacity="0.5"/>
<path d="M109.47 204.422C114.074 196.779 118.679 189.091 123.283 181.404C123.679 181.271 124.422 181.049 125.363 180.871C126.848 180.604 128.928 180.471 131.304 181.049C134.225 181.804 136.206 183.315 137.196 184.292C137.444 184.559 137.691 184.781 137.79 184.915L124.422 211.398C122.64 214.953 119.471 217.797 115.51 219.441L91.2991 229.528L74.4157 262.411C72.6333 262.944 65.8007 264.855 57.9779 262.055C50.8483 259.478 47.3825 254.546 46.3428 252.99L60.5525 214.331C71.8906 218.064 79.8124 212.82 83.7733 209.221C86.447 211.265 90.2098 211.754 93.4281 210.554L109.47 204.422Z" fill="#FF7B0D" fill-opacity="0.8"/>
<path d="M84.9118 182.693C85.4564 182.693 85.9516 183.093 85.9516 183.626C85.9516 184.159 85.5059 184.559 84.9118 184.559C84.3177 184.559 83.8721 184.159 83.8721 183.626C83.8721 183.093 84.3672 182.693 84.9118 182.693Z" fill="white" fill-opacity="0.5"/>
<path d="M82.5847 175.983C81.8915 176.783 81.0003 177.449 80.1586 178.116C79.0198 179.093 77.8811 180.249 77.7821 181.671C77.5345 184.603 81.5944 186.603 81.842 189.58C81.941 191.047 81.0993 192.424 80.3071 193.713C79.515 195.002 78.8218 196.512 79.3169 197.934C79.7625 199.356 81.2479 200.245 82.3866 201.311C83.1788 202.111 83.971 203.089 84.5156 204.2C85.3573 205.799 85.6049 207.532 84.4166 208.688C84.2185 208.866 84.0205 209.043 83.872 209.221C79.9111 212.82 72.0388 218.108 60.6511 214.331C60.6016 214.287 60.5026 214.287 60.4531 214.242C56.8388 208.332 57.5319 203 56.0466 196.423C54.5612 189.847 55.1554 182.648 59.0668 176.872C62.9782 171.095 70.6524 167.229 78.0296 168.384L79.3169 168.251C80.7527 168.429 82.1391 169.095 82.9808 170.206C84.07 171.584 84.2185 173.495 83.3768 175.005C83.1293 175.361 82.8817 175.672 82.5847 175.983Z" fill="white" fill-opacity="0.5"/>
<path d="M42.1836 300.892C42.7777 301.603 42.5797 302.581 41.7875 303.114C41.5895 303.247 41.3914 303.336 41.1934 303.381C41.0448 303.425 40.8963 303.425 40.7478 303.425C40.5497 303.425 40.4012 303.425 40.2031 303.336L36.7869 302.359C35.7471 302.048 34.6579 302.225 33.7667 302.803L30.8455 304.758C29.9048 305.38 29.4097 306.358 29.5087 307.38L29.7067 310.135C29.7562 310.668 29.4592 311.201 28.9641 311.513L28.6175 311.735C28.2709 311.957 27.7758 312.09 27.3302 312.046L24.2605 311.69C21.7849 311.424 19.3094 311.912 17.2299 313.112L13.8136 315.112C11.7341 316.312 9.11001 316.534 6.78298 315.734L3.3667 314.49L35.7966 293.16L42.1836 300.892Z" fill="white" fill-opacity="0.5"/>
<path d="M89.8133 211.621C87.5358 211.621 85.3078 210.91 83.4759 209.532C83.2778 209.354 83.2283 209.088 83.4264 208.91C83.6244 208.732 83.9215 208.688 84.1195 208.866C86.6941 210.776 90.2094 211.265 93.2791 210.11L112.787 202.644C113.034 202.556 113.331 202.644 113.43 202.867C113.529 203.089 113.43 203.355 113.183 203.444L93.6752 210.91C92.3879 211.398 91.1006 211.621 89.8133 211.621Z" fill="white" fill-opacity="0.5"/>
<path d="M86.3976 232.061C86.1996 232.061 86.051 231.972 85.952 231.794C85.853 231.572 85.952 231.306 86.1996 231.217L115.312 219.086C119.125 217.486 122.194 214.731 123.977 211.265L137.246 185.003C137.147 184.87 136.998 184.737 136.85 184.603C135.76 183.581 133.928 182.159 131.156 181.493C129.324 181.049 127.393 180.96 125.462 181.315C124.62 181.448 123.977 181.671 123.63 181.76L118.233 190.736C115.461 195.357 112.688 199.978 109.915 204.6C109.866 204.644 109.866 204.688 109.866 204.688C109.767 204.911 109.47 205 109.222 204.866C108.975 204.777 108.876 204.511 109.024 204.289C109.074 204.244 109.074 204.2 109.123 204.155C111.896 199.578 114.669 194.913 117.441 190.291L122.937 181.182C122.986 181.093 123.086 181.004 123.185 180.96C123.432 180.871 124.274 180.604 125.363 180.426C127.443 180.071 129.522 180.115 131.502 180.649C134.473 181.404 136.454 182.915 137.642 184.026C137.889 184.292 138.137 184.515 138.285 184.692C138.385 184.826 138.434 185.003 138.335 185.137L124.967 211.62C123.135 215.264 119.867 218.197 115.807 219.886L86.6947 232.017C86.4966 232.061 86.4471 232.061 86.3976 232.061Z" fill="white" fill-opacity="0.5"/>
<path d="M171.755 298.582H151.604C151.455 298.582 151.356 298.537 151.257 298.448L115.114 264.233L90.6554 283.784C85.3577 288.228 78.4756 290.672 71.2469 290.672C66.7414 290.672 62.1864 289.694 58.1759 287.828C57.7798 287.65 57.3838 287.473 56.9382 287.206C45.501 281.207 40.1538 268.632 44.2632 257.301L60.1564 214.198C60.2554 213.976 60.503 213.842 60.8 213.931C61.0476 214.02 61.1961 214.242 61.0971 214.509L45.204 257.612C41.2431 268.543 46.3922 280.674 57.4333 286.451C57.8789 286.673 58.275 286.85 58.6215 287.028C62.4834 288.85 66.8404 289.783 71.1974 289.783C78.1785 289.783 84.8625 287.428 89.9622 283.118L114.767 263.255C114.965 263.077 115.263 263.122 115.461 263.299L151.802 297.693H170.715L126.898 246.147C122.689 240.993 114.767 239.704 108.826 243.126L74.6137 262.855C74.4157 262.944 74.1681 262.944 74.0196 262.811C73.871 262.677 73.8215 262.455 73.871 262.277L90.8534 229.261C90.9524 229.039 91.2495 228.95 91.4971 229.039C91.7446 229.128 91.8437 229.395 91.7446 229.617L91.6456 229.75L75.5544 261.255L108.331 242.37C114.718 238.682 123.283 240.104 127.739 245.614L172.151 297.871C172.25 298.004 172.3 298.182 172.201 298.315C172.151 298.493 171.953 298.582 171.755 298.582Z" fill="white" fill-opacity="0.5"/>
<path d="M66.6916 264.011C64.0675 264.011 60.9978 263.611 57.8291 262.5C51.145 260.1 47.5307 255.657 45.9463 253.213L45.8968 253.168C45.7978 252.946 45.8968 252.679 46.1444 252.59C46.3919 252.502 46.6395 252.59 46.788 252.768V252.813C48.2734 255.123 51.7392 259.389 58.1261 261.7C65.3053 264.277 71.7418 262.811 74.2173 262.055C74.4649 261.966 74.7619 262.1 74.861 262.322C74.96 262.544 74.8115 262.811 74.5639 262.9C73.0786 263.3 70.2564 264.011 66.6916 264.011Z" fill="white" fill-opacity="0.5"/>
<path d="M101.597 316.045H37.6781C37.5295 316.045 37.3315 315.956 37.2325 315.823C37.1334 315.689 37.1334 315.512 37.2325 315.378L45.897 300.137C45.996 300.004 46.1445 299.915 46.3426 299.915L80.4064 299.159L58.1263 287.828C57.8787 287.695 57.8292 287.428 57.9282 287.206C58.0767 286.984 58.3738 286.939 58.6214 287.028L82.4363 299.159C82.6344 299.248 82.7334 299.47 82.6839 299.648C82.6344 299.826 82.4363 299.959 82.2383 300.004L46.6891 300.803L38.5198 315.156H101.597C106.895 315.156 111.45 312.446 113.579 308.135C115.658 303.781 114.767 298.937 111.153 295.471L94.7646 279.741C94.5666 279.563 94.6161 279.296 94.8142 279.119C95.0122 278.941 95.3093 278.985 95.5073 279.163L95.6063 279.252L111.846 294.893C115.708 298.626 116.698 303.825 114.47 308.535C112.193 313.157 107.242 316.045 101.597 316.045Z" fill="white" fill-opacity="0.5"/>
<path d="M89.1203 185.403C88.9717 185.403 88.8232 185.359 88.7242 185.226C88.5756 185.003 88.6251 184.737 88.8232 184.603C89.0707 184.426 89.2688 184.248 89.4668 184.026C89.8629 183.581 90.061 183.093 90.16 182.604C90.2095 182.337 90.0115 182.115 89.7144 182.071C86.1991 181.493 83.1789 179.093 82.1392 176.116C82.1392 176.072 82.1392 176.027 82.1392 175.983C82.1392 175.716 82.3372 175.539 82.6343 175.539C82.8818 175.539 83.0799 175.672 83.1294 175.894C84.0701 178.605 86.7932 180.738 89.9124 181.226C90.7541 181.36 91.2988 182.026 91.1997 182.782C91.1007 183.448 90.8036 184.07 90.3085 184.603C90.061 184.87 89.8134 185.137 89.4668 185.359C89.3183 185.359 89.2193 185.403 89.1203 185.403Z" fill="white" fill-opacity="0.5"/>
<path d="M86.0015 197.179C85.853 197.179 85.6549 197.179 85.5064 197.179C84.8627 197.134 84.2191 197.001 83.625 196.823C83.3774 196.734 83.2289 196.468 83.3279 196.246C83.4269 196.024 83.724 195.89 83.9715 195.979C84.5162 196.157 85.0113 196.246 85.5559 196.29C86.7442 196.379 87.982 196.112 88.9722 195.624C90.507 194.868 91.5963 193.491 91.8934 191.935C92.438 189.358 91.1012 187.047 89.3683 184.559C89.2197 184.337 89.3188 184.07 89.5168 183.937C89.7644 183.804 90.0614 183.892 90.21 184.07C91.9924 186.736 93.4282 189.225 92.8341 192.069C92.438 193.846 91.2002 195.446 89.4178 196.379C88.4771 196.912 87.2393 197.179 86.0015 197.179Z" fill="white" fill-opacity="0.5"/>
<path d="M68.2764 216.108C65.8503 216.108 63.2262 215.709 60.4041 214.775L60.206 214.687C59.9585 214.598 59.8099 214.331 59.9089 214.109C60.008 213.887 60.305 213.753 60.5526 213.842L60.7506 213.931C71.1975 217.397 78.8718 213.131 83.4268 208.91C83.6249 208.732 83.8229 208.554 83.9715 208.377C85.1102 207.266 84.6151 205.577 84.021 204.377C83.9219 204.155 84.021 203.889 84.2685 203.8C84.5161 203.711 84.8132 203.8 84.9122 204.022C85.9519 206.066 85.9024 207.843 84.7141 208.999C84.5161 209.176 84.318 209.354 84.12 209.532C80.6047 212.776 75.2575 216.108 68.2764 216.108Z" fill="white" fill-opacity="0.5"/>
<path d="M84.516 204.6C84.318 204.6 84.1694 204.511 84.0704 204.333C83.5753 203.4 82.8821 202.422 82.0404 201.578C81.7434 201.267 81.3968 201 81.0997 200.734C80.2085 199.934 79.2678 199.134 78.8717 198.023C78.3271 196.468 79.1193 194.868 79.9114 193.491L80.06 193.224C80.7531 192.024 81.4958 190.824 81.3968 189.58C81.2978 188.292 80.4066 187.225 79.4163 186.025C78.3271 184.692 77.1883 183.315 77.3369 181.582C77.4854 179.938 78.8222 178.605 79.8619 177.76C80.06 177.582 80.258 177.405 80.4561 177.271C81.0997 176.783 81.7434 176.249 82.2385 175.672C82.486 175.405 82.7336 175.094 82.8821 174.783C83.6248 173.45 83.4763 171.717 82.5355 170.473C81.7929 169.54 80.5551 168.873 79.2183 168.74C78.8717 168.695 78.4756 168.695 78.129 168.74C77.832 168.784 77.6339 168.606 77.5844 168.34C77.5349 168.118 77.7329 167.895 78.03 167.851C78.4756 167.807 78.9212 167.807 79.3668 167.851C80.9512 168.029 82.486 168.829 83.3772 169.984C84.5655 171.495 84.714 173.583 83.8228 175.227C83.6248 175.583 83.3772 175.938 83.0802 176.249C82.5355 176.872 81.8424 177.405 81.1987 177.938C81.0007 178.116 80.8027 178.249 80.6046 178.427C79.7134 179.182 78.5251 180.338 78.3766 181.671C78.2776 183.048 79.2678 184.248 80.258 185.492C81.2483 186.692 82.288 187.981 82.387 189.491C82.486 191.002 81.6939 192.335 80.9512 193.624L80.8026 193.89C80.1095 195.09 79.4163 196.512 79.8619 197.756C80.159 198.645 80.9512 199.356 81.7929 200.067C82.1395 200.334 82.486 200.645 82.7831 200.956C83.6743 201.845 84.4665 202.911 85.0111 203.933C85.1101 204.155 85.0111 204.422 84.7636 204.511C84.615 204.6 84.5655 204.6 84.516 204.6Z" fill="white" fill-opacity="0.5"/>
<path d="M60.404 214.731C60.206 214.731 60.0574 214.642 59.9584 214.509C57.4828 210.421 56.9877 206.599 56.4431 202.511C56.1955 200.6 55.948 198.645 55.5024 196.557C53.819 189.136 54.9578 182.071 58.6216 176.694C62.8796 170.473 70.9004 166.874 78.0795 167.984C78.3271 168.029 78.5252 168.251 78.4756 168.518C78.4261 168.74 78.1786 168.918 77.8815 168.873C71.0489 167.807 63.4737 171.228 59.4138 177.138C55.8985 182.293 54.8092 189.136 56.4431 196.335C56.9382 198.467 57.1858 200.467 57.4333 202.378C57.9284 206.333 58.4235 210.11 60.8001 214.02C60.9486 214.242 60.8496 214.509 60.602 214.642C60.5525 214.687 60.4535 214.731 60.404 214.731Z" fill="white" fill-opacity="0.5"/>
<path d="M84.5157 204.644C84.2681 204.644 84.1196 204.511 84.0206 204.333C83.476 202.911 83.9711 199.401 85.0603 196.646C85.1593 196.423 85.4564 196.29 85.704 196.379C85.9515 196.468 86.1001 196.734 86.001 196.957C84.8623 199.801 84.5157 202.955 84.9613 204.066C84.9613 204.111 85.0108 204.155 85.0108 204.2C85.0108 204.422 84.7632 204.644 84.5157 204.644Z" fill="white" fill-opacity="0.5"/>
<path d="M81.9414 183.715C81.6938 183.715 81.4958 183.537 81.4463 183.315C81.2977 181.982 82.3375 180.604 83.7733 180.249C84.0208 180.16 84.3179 180.338 84.3674 180.56C84.4664 180.782 84.2684 181.049 84.0208 181.093C83.0306 181.36 82.2879 182.293 82.387 183.226C82.4365 183.493 82.2384 183.67 81.9414 183.715Z" fill="white" fill-opacity="0.5"/>
<path d="M89.5663 191.269C89.2197 191.269 88.8236 191.224 88.477 191.091C88.2295 191.002 88.0809 190.736 88.1799 190.513C88.279 190.291 88.576 190.158 88.8236 190.247C89.3682 190.425 90.0119 190.38 90.5565 190.158C91.1011 189.936 91.4972 189.491 91.6952 188.958C91.7943 188.736 92.0418 188.603 92.3389 188.692C92.5864 188.78 92.735 189.003 92.636 189.269C92.3884 190.025 91.7943 190.647 91.0021 190.958C90.5565 191.18 90.0614 191.269 89.5663 191.269Z" fill="white" fill-opacity="0.5"/>
<path d="M192.649 312.312H152.445C152.148 312.312 151.95 312.135 151.95 311.868V302.27C151.95 301.159 152.99 300.226 154.228 300.226C154.525 300.226 154.772 300.27 155.069 300.359C155.466 300.493 155.812 300.759 156.06 301.07L158.139 303.647C158.684 304.314 159.525 304.714 160.417 304.714H164.08C165.071 304.714 165.962 304.27 166.507 303.514L168.14 301.159C168.537 300.581 169.279 300.226 170.071 300.226H170.517C171.111 300.226 171.656 300.448 172.101 300.804L174.379 302.714C176.062 304.181 178.34 305.025 180.667 305.158L184.727 305.38C187.351 305.514 189.777 306.802 191.163 308.802L193.094 311.601C193.193 311.735 193.193 311.913 193.094 312.046C192.995 312.224 192.847 312.312 192.649 312.312ZM152.94 311.424H191.757L190.272 309.291C189.034 307.513 186.905 306.402 184.628 306.269L180.568 306.047C177.993 305.914 175.518 304.936 173.636 303.336L171.359 301.426C171.111 301.203 170.814 301.115 170.467 301.115H170.022C169.576 301.115 169.18 301.292 168.933 301.648L167.299 304.003C166.606 305.025 165.368 305.603 164.031 305.603H160.367C159.129 305.603 157.991 305.069 157.248 304.181L155.168 301.603C155.02 301.426 154.822 301.292 154.624 301.203C153.733 300.892 152.891 301.515 152.891 302.27V311.424H152.94Z" fill="white" fill-opacity="0.5"/>
<path d="M192.649 316.756H152.445C152.148 316.756 151.95 316.578 151.95 316.312V311.868C151.95 311.601 152.148 311.424 152.445 311.424C152.742 311.424 152.94 311.601 152.94 311.868V315.867H192.153V311.868C192.153 311.601 192.351 311.424 192.649 311.424C192.946 311.424 193.144 311.601 193.144 311.868V316.312C193.144 316.534 192.946 316.756 192.649 316.756Z" fill="white" fill-opacity="0.5"/>
<path d="M170.071 301.159C169.824 301.159 169.626 301.026 169.576 300.803L169.081 298.226C169.081 298.182 169.081 298.182 169.081 298.137C169.081 297.871 169.279 297.693 169.576 297.693C169.824 297.693 170.022 297.871 170.071 298.093L170.566 300.626C170.616 300.848 170.418 301.114 170.17 301.159C170.121 301.114 170.071 301.159 170.071 301.159Z" fill="white" fill-opacity="0.5"/>
<path d="M154.921 301.159C154.674 301.159 154.475 301.026 154.426 300.803L153.881 298.226C153.881 298.182 153.881 298.182 153.881 298.137C153.881 297.871 154.079 297.693 154.376 297.693C154.624 297.693 154.822 297.871 154.872 298.093L155.416 300.626C155.466 300.848 155.317 301.114 155.02 301.159C154.971 301.114 154.971 301.159 154.921 301.159Z" fill="white" fill-opacity="0.5"/>
<path d="M9.70425 316.667C8.66451 316.667 7.62477 316.489 6.68405 316.134L3.26777 314.89C3.11924 314.845 2.9707 314.712 2.9707 314.534C2.9707 314.356 3.02021 314.223 3.16875 314.134L35.5987 292.805C35.7967 292.672 36.1433 292.716 36.2918 292.894L42.5798 300.626C43.3224 301.514 43.0749 302.803 42.0847 303.47C41.8371 303.603 41.5896 303.736 41.2925 303.781C40.8964 303.87 40.4013 303.87 40.0052 303.736L36.5889 302.759C35.7472 302.492 34.757 302.67 34.0143 303.114L31.0931 305.069C30.301 305.603 29.8554 306.447 29.9544 307.291L30.2019 310.135C30.2515 310.846 29.9049 311.513 29.2612 311.912L28.9146 312.135C28.4195 312.446 27.8749 312.579 27.2808 312.49L24.2111 312.135C21.884 311.868 19.5075 312.357 17.527 313.512L14.1108 315.512C12.7739 316.267 11.2391 316.667 9.70425 316.667ZM4.40653 314.401L7.03063 315.334C9.20913 316.089 11.6352 315.912 13.5661 314.756L16.9824 312.757C19.1609 311.468 21.785 310.979 24.3596 311.246L27.4293 311.601C27.7759 311.646 28.073 311.557 28.37 311.379L28.7166 311.157C29.0632 310.935 29.2612 310.535 29.2117 310.135L29.0137 307.38C28.9146 306.225 29.5088 305.069 30.5485 304.358L33.4697 302.403C34.4599 301.737 35.7472 301.559 36.886 301.914L40.3023 302.892C40.5003 302.936 40.7974 302.981 40.9954 302.892C41.144 302.848 41.2925 302.803 41.441 302.714C41.9856 302.359 42.1342 301.648 41.7381 301.115L35.6977 293.738L4.40653 314.401Z" fill="white" fill-opacity="0.5"/>
<path d="M3.41628 314.934C3.26775 314.934 3.11921 314.89 3.02019 314.756L0.0990227 311.201C0 311.113 0 310.979 0 310.89C0 310.757 0.0990227 310.668 0.198045 310.579L32.628 289.25C32.727 289.161 32.8755 289.161 32.9746 289.161C33.1231 289.161 33.2221 289.25 33.3211 289.339L36.2423 292.894C36.3908 293.072 36.3413 293.383 36.1433 293.516C35.9452 293.649 35.5987 293.605 35.4501 293.427L32.826 290.228L1.18827 311.024L3.81237 314.223C3.96091 314.401 3.9114 314.712 3.71335 314.845C3.61433 314.934 3.51531 314.934 3.41628 314.934Z" fill="white" fill-opacity="0.5"/>
<path d="M38.6187 313.779C38.5692 313.779 38.5692 313.779 38.5197 313.779L28.9145 312.001C28.6669 311.957 28.4689 311.735 28.5184 311.468C28.5679 311.246 28.8154 311.068 29.1125 311.113L38.7177 312.89C38.9653 312.935 39.1633 313.157 39.1138 313.423C39.0148 313.645 38.8167 313.779 38.6187 313.779Z" fill="white" fill-opacity="0.5"/>
<path d="M44.5601 303.958H41.1934C40.8963 303.958 40.6982 303.781 40.6982 303.514C40.6982 303.247 40.8963 303.07 41.1934 303.07H44.5601C44.8572 303.07 45.0552 303.247 45.0552 303.514C45.0552 303.736 44.8572 303.958 44.5601 303.958Z" fill="white" fill-opacity="0.5"/>
<path d="M154.624 293.605C154.475 293.605 154.327 293.561 154.228 293.427L121.847 258.9C119.025 255.879 113.975 255.301 110.41 257.612L78.2278 278.363C78.0297 278.497 77.6831 278.452 77.5346 278.275C77.3861 278.097 77.4356 277.786 77.6336 277.652L109.816 256.901C113.826 254.324 119.421 254.946 122.59 258.323L154.97 292.85C155.168 293.027 155.119 293.338 154.921 293.472C154.871 293.561 154.723 293.605 154.624 293.605Z" fill="white" fill-opacity="0.5"/>
<path d="M125.313 181.093C125.165 181.093 124.966 181.004 124.867 180.871C123.432 178.693 123.481 175.805 124.966 173.672C126.155 171.939 128.086 170.828 129.819 169.806C130.066 169.673 130.363 169.717 130.512 169.94C130.66 170.162 130.611 170.428 130.363 170.562C128.729 171.495 126.897 172.606 125.808 174.161C124.521 176.027 124.471 178.56 125.709 180.426C125.858 180.649 125.759 180.915 125.511 181.049C125.462 181.093 125.363 181.093 125.313 181.093Z" fill="white" fill-opacity="0.5"/>
<path d="M129.126 172.872C129.076 172.872 129.027 172.872 128.928 172.828C128.68 172.739 128.532 172.472 128.631 172.25C128.977 171.45 129.324 170.695 129.67 170.028C130.958 167.362 132.592 164.829 134.522 162.474C135.859 160.786 137.048 160.697 137.79 160.919C138.483 161.097 139.028 161.674 139.226 162.385C139.424 162.963 139.325 163.63 139.276 164.163C139.078 165.54 138.78 166.873 138.285 168.207C137.889 169.362 137.394 170.473 136.8 171.495C136.651 171.717 136.354 171.806 136.156 171.673C135.909 171.539 135.81 171.273 135.958 171.095C136.552 170.117 136.998 169.051 137.394 167.94C137.84 166.696 138.186 165.363 138.335 164.074C138.384 163.585 138.434 163.096 138.335 162.652C138.186 162.208 137.889 161.897 137.543 161.763C136.701 161.497 135.81 162.43 135.364 163.008C133.483 165.318 131.898 167.807 130.611 170.428C130.265 171.095 129.967 171.85 129.621 172.606C129.522 172.783 129.324 172.872 129.126 172.872Z" fill="white" fill-opacity="0.5"/>
<path d="M138.533 176.161C138.384 176.161 138.285 176.116 138.186 176.027C137.988 175.849 137.988 175.583 138.186 175.405C138.978 174.694 139.473 173.761 139.672 172.739C139.721 172.428 139.721 172.117 139.721 171.806C139.622 170.517 138.879 169.229 137.741 168.429C137.543 168.295 137.493 167.984 137.642 167.807C137.79 167.629 138.137 167.584 138.335 167.718C139.721 168.695 140.563 170.206 140.662 171.761C140.662 172.161 140.662 172.517 140.612 172.872C140.414 174.072 139.82 175.183 138.879 176.027C138.78 176.116 138.681 176.161 138.533 176.161Z" fill="white" fill-opacity="0.5"/>
<path d="M137.146 184.781C137.047 184.781 136.998 184.781 136.899 184.737C136.651 184.603 136.552 184.337 136.701 184.159C137.097 183.493 137.592 182.693 138.136 181.893C138.632 181.093 139.176 180.293 139.523 179.671C140.117 178.649 140.761 177.494 140.959 176.25C141.157 175.005 140.711 173.85 139.82 173.228L139.77 173.183C139.572 173.006 139.572 172.739 139.77 172.561C139.968 172.384 140.265 172.384 140.464 172.561C141.602 173.361 142.196 174.828 141.949 176.383C141.751 177.76 141.058 179.005 140.414 180.115C140.018 180.782 139.523 181.582 138.978 182.382C138.483 183.182 137.938 183.981 137.592 184.603C137.542 184.692 137.344 184.781 137.146 184.781Z" fill="white" fill-opacity="0.5"/>
<path d="M318.309 218.299L319.102 236.118L326.231 226.875L318.309 218.299ZM292.91 191.238C295.435 192.837 299.792 194.57 302.713 194.304C305.783 194.037 308.704 192.704 310.784 190.66H310.833C310.784 190.571 310.734 190.482 310.685 190.438L320.092 193.859C324.251 195.37 327.766 198.081 329.994 201.591L342.322 220.61C345.095 224.92 344.65 230.297 341.184 234.207L319.894 253.759H319.844L319.894 255.225H280.681V229.763L280.433 229.63L277.463 234.34C275.68 237.14 272.363 238.873 268.749 238.873H229.288V238.029V227.719V225.498H260.975L272.511 203.28C274.64 199.147 278.502 195.948 283.255 194.304L292.712 191.06C292.712 191.104 292.811 191.149 292.91 191.238Z" fill="#FF7B0D" fill-opacity="0.8"/>
<path d="M318.31 218.299L326.231 226.875L319.102 236.118L318.31 218.299Z" fill="#1A1D31"/>
<path d="M309.892 163.598C311.328 166.353 310.883 169.553 310.388 172.574C310.14 174.13 309.892 175.729 309.15 177.151C308.902 177.596 308.655 177.996 308.358 178.351C306.971 179.995 304.793 180.84 302.466 180.084C300.238 179.373 299.049 178.173 300.139 176.307C300.931 174.974 302.614 173.774 300.98 172.263C299.891 171.241 298.257 171.863 297.119 171.019C296.227 170.397 296.227 169.153 295.584 168.353C294.791 167.375 293.257 167.153 291.87 167.287C290.534 167.42 289.197 167.82 287.86 167.686C286.969 167.598 286.127 167.287 285.384 166.842C283.998 165.953 283.057 164.443 282.909 162.887C282.711 160.532 284.246 158.222 286.424 156.889C288.603 155.555 291.375 155.156 293.999 155.378C296.623 155.6 299.148 156.444 301.525 157.377C304.991 158.799 308.358 160.621 309.892 163.598Z" fill="white" fill-opacity="0.5"/>
<path d="M299.792 389.022H295.138V393.466H299.792V389.022Z" fill="#FDFDFD" fill-opacity="0.5"/>
<path d="M299.792 383.867V389.022H295.138L297.069 386.222C297.762 385.2 298.703 384.401 299.792 383.867Z" fill="#FBFFFD" fill-opacity="0.5"/>
<path d="M299.792 379.424V383.867C298.703 384.401 297.762 385.2 297.119 386.178L295.188 388.977H259.639L261.57 386.178C262.857 384.267 265.134 383.067 267.61 382.934L271.67 382.712C274.145 382.579 276.473 381.69 278.304 380.135L280.532 378.224C280.879 377.957 281.325 377.78 281.77 377.78H282.216C282.81 377.78 283.404 378.046 283.701 378.535L285.335 380.89C285.929 381.779 287.018 382.268 288.157 382.268H291.821C292.91 382.268 293.901 381.823 294.544 381.023L296.624 378.446C296.822 378.18 297.119 378.002 297.416 377.913C297.614 377.824 297.861 377.824 298.059 377.824C299 377.824 299.792 378.535 299.792 379.424Z" fill="#FBFFFD" fill-opacity="0.5"/>
<path d="M295.138 389.022H259.589V393.466H295.138V389.022Z" fill="#FDFDFD" fill-opacity="0.5"/>
<path d="M335.342 389.466H299.792C299.495 389.466 299.297 389.289 299.297 389.022C299.297 388.755 299.495 388.578 299.792 388.578H334.846V379.424C334.846 378.802 334.252 378.268 333.559 378.268C333.411 378.268 333.262 378.313 333.114 378.357C332.866 378.446 332.668 378.579 332.519 378.757L330.44 381.334C329.697 382.223 328.559 382.756 327.321 382.756H323.657C322.32 382.756 321.132 382.179 320.439 381.157L318.805 378.802C318.557 378.491 318.161 378.268 317.716 378.268H317.27C316.923 378.268 316.626 378.402 316.379 378.579L314.101 380.49C312.22 382.09 309.744 383.067 307.17 383.201L303.11 383.423C302.02 383.467 300.931 383.778 299.99 384.267C299.743 384.401 299.446 384.312 299.297 384.09C299.149 383.867 299.248 383.601 299.495 383.467C300.585 382.89 301.822 382.579 303.06 382.534L307.12 382.312C309.497 382.179 311.725 381.334 313.408 379.868L315.686 377.957C316.082 377.602 316.676 377.38 317.22 377.38H317.666C318.458 377.38 319.151 377.735 319.597 378.313L321.231 380.668C321.775 381.423 322.667 381.868 323.657 381.868H327.321C328.212 381.868 329.103 381.468 329.598 380.801L331.678 378.224C331.925 377.913 332.272 377.646 332.668 377.513C332.916 377.424 333.213 377.38 333.51 377.38C334.747 377.38 335.787 378.268 335.787 379.424V389.022C335.837 389.244 335.589 389.466 335.342 389.466Z" fill="white" fill-opacity="0.5"/>
<path d="M335.342 393.865H299.792C299.495 393.865 299.297 393.688 299.297 393.421C299.297 393.154 299.495 392.977 299.792 392.977H334.847V388.978C334.847 388.711 335.045 388.533 335.342 388.533C335.639 388.533 335.837 388.711 335.837 388.978V393.421C335.837 393.688 335.589 393.865 335.342 393.865Z" fill="white" fill-opacity="0.5"/>
<path d="M317.715 378.268C317.418 378.268 317.22 378.091 317.22 377.824V375.247C317.22 374.98 317.418 374.802 317.715 374.802C318.012 374.802 318.21 374.98 318.21 375.247V377.824C318.21 378.046 317.963 378.268 317.715 378.268Z" fill="white" fill-opacity="0.5"/>
<path d="M332.866 378.268C332.569 378.268 332.371 378.091 332.371 377.824V375.202C332.371 374.936 332.569 374.758 332.866 374.758C333.163 374.758 333.361 374.936 333.361 375.202V377.824C333.361 378.046 333.114 378.268 332.866 378.268Z" fill="white" fill-opacity="0.5"/>
<path d="M299.793 393.865H259.589C259.292 393.865 259.094 393.688 259.094 393.421V388.978C259.094 388.711 259.292 388.533 259.589 388.533C259.886 388.533 260.084 388.711 260.084 388.978V392.977H299.297V388.978C299.297 388.711 299.495 388.533 299.793 388.533C300.09 388.533 300.288 388.711 300.288 388.978V393.421C300.288 393.688 300.04 393.865 299.793 393.865Z" fill="white" fill-opacity="0.5"/>
<path d="M299.792 389.466H259.589C259.391 389.466 259.243 389.378 259.144 389.244C259.045 389.111 259.045 388.933 259.144 388.8L261.075 386C262.461 384.001 264.887 382.712 267.511 382.579L271.571 382.357C273.947 382.223 276.175 381.379 277.859 379.913L280.087 378.002C280.532 377.646 281.077 377.424 281.671 377.424H282.117C282.909 377.424 283.602 377.78 284.048 378.357L285.682 380.713C286.226 381.468 287.118 381.912 288.108 381.912H291.772C292.663 381.912 293.554 381.512 294.049 380.846L296.178 378.269C296.426 377.957 296.772 377.691 297.168 377.558C297.416 377.469 297.713 377.424 298.01 377.424C299.248 377.424 300.288 378.313 300.288 379.468V389.066C300.288 389.244 300.04 389.466 299.792 389.466ZM260.431 388.578H299.248V379.424C299.248 378.802 298.654 378.269 297.961 378.269C297.812 378.269 297.663 378.313 297.515 378.357C297.267 378.446 297.119 378.58 296.97 378.757L294.841 381.335C294.099 382.223 292.96 382.757 291.722 382.757H288.108C286.771 382.757 285.583 382.179 284.89 381.157L283.256 378.802C283.008 378.491 282.612 378.269 282.166 378.269H281.721C281.374 378.269 281.077 378.402 280.83 378.58L278.602 380.49C276.72 382.09 274.245 383.068 271.67 383.201L267.61 383.423C265.283 383.556 263.154 384.667 261.966 386.445L260.431 388.578Z" fill="white" fill-opacity="0.5"/>
<path d="M282.166 378.268C282.117 378.268 282.117 378.268 282.067 378.268C281.82 378.224 281.622 378.002 281.671 377.735L282.166 375.158C282.216 374.936 282.463 374.758 282.76 374.802C283.008 374.847 283.206 375.069 283.157 375.336L282.661 377.913C282.612 378.135 282.364 378.268 282.166 378.268Z" fill="white" fill-opacity="0.5"/>
<path d="M297.317 378.268C297.267 378.268 297.267 378.268 297.218 378.268C296.97 378.224 296.772 378.002 296.822 377.735L297.366 375.158C297.416 374.936 297.663 374.758 297.96 374.802C298.208 374.847 298.406 375.069 298.356 375.336L297.812 377.913C297.713 378.135 297.515 378.268 297.317 378.268Z" fill="white" fill-opacity="0.5"/>
<path d="M334.698 375.647H314.596C314.349 375.647 314.151 375.469 314.101 375.247L304.545 311.126L301.278 375.202C301.278 375.425 301.03 375.647 300.782 375.647H279.641C279.493 375.647 279.394 375.602 279.295 375.513C279.196 375.425 279.146 375.336 279.146 375.202L280.136 255.136C280.136 254.914 280.384 254.692 280.631 254.692H319.894C320.141 254.692 320.339 254.87 320.389 255.092L335.143 375.158C335.143 375.291 335.094 375.425 335.044 375.513C334.945 375.602 334.797 375.647 334.698 375.647ZM315.042 374.758H334.153L319.498 255.581H281.176L280.186 374.758H300.337L304.446 294.551C304.545 292.196 305.288 289.885 306.526 287.797L313.903 275.533C314.051 275.31 314.349 275.221 314.596 275.355C314.844 275.488 314.943 275.755 314.794 275.977L307.417 288.241C306.229 290.196 305.585 292.374 305.437 294.596L304.842 306.149L315.042 374.758Z" fill="white" fill-opacity="0.5"/>
<path d="M280.681 255.581C280.384 255.581 280.186 255.403 280.186 255.136V229.675C280.186 229.408 280.384 229.23 280.681 229.23C280.978 229.23 281.176 229.408 281.176 229.675V255.136C281.176 255.403 280.929 255.581 280.681 255.581Z" fill="white" fill-opacity="0.5"/>
<path d="M319.943 255.581C319.696 255.581 319.448 255.403 319.448 255.136L317.369 209.012C317.369 208.745 317.567 208.567 317.864 208.567C318.161 208.523 318.359 208.745 318.359 209.012L320.438 255.136C320.438 255.358 320.24 255.581 319.943 255.581Z" fill="white" fill-opacity="0.5"/>
<path d="M268.749 239.228H229.288C228.991 239.228 228.793 239.051 228.793 238.784V225.453C228.793 225.187 228.991 225.009 229.288 225.009H263.946C264.243 225.009 264.441 225.187 264.441 225.453C264.441 225.72 264.243 225.898 263.946 225.898H229.783V238.34H268.749C272.165 238.34 275.334 236.696 277.017 234.029L286.573 219.054C286.721 218.832 287.018 218.788 287.266 218.877C287.513 219.01 287.563 219.277 287.464 219.499L277.908 234.474C275.977 237.407 272.511 239.228 268.749 239.228Z" fill="white" fill-opacity="0.5"/>
<path d="M260.926 225.898C260.876 225.898 260.777 225.898 260.728 225.853C260.48 225.764 260.381 225.498 260.48 225.275L272.016 203.057C274.244 198.792 278.106 195.548 283.008 193.859L292.465 190.615C292.712 190.527 293.009 190.66 293.108 190.882C293.207 191.104 293.059 191.371 292.811 191.46L283.355 194.704C278.701 196.303 274.987 199.414 272.908 203.457L261.372 225.675C261.322 225.809 261.124 225.898 260.926 225.898Z" fill="white" fill-opacity="0.5"/>
<path d="M319.944 254.114C319.795 254.114 319.696 254.07 319.597 253.981C319.399 253.803 319.399 253.537 319.597 253.359L340.887 233.807C344.155 230.119 344.6 224.876 341.927 220.743L329.598 201.769C327.42 198.392 323.954 195.726 319.894 194.215L310.487 190.793C310.239 190.704 310.091 190.438 310.239 190.215C310.338 189.993 310.636 189.86 310.883 189.993L320.29 193.415C324.548 194.97 328.163 197.77 330.44 201.324L342.768 220.343C345.64 224.787 345.194 230.43 341.58 234.429L320.29 253.981C320.191 254.07 320.043 254.114 319.944 254.114Z" fill="white" fill-opacity="0.5"/>
<path d="M319.34 237C319.243 237 319.145 236.956 319.048 236.912C318.805 236.78 318.756 236.517 318.902 236.297L319.097 236.077L325.91 227.204L318.123 218.727C317.929 218.551 317.977 218.243 318.172 218.112C318.367 217.936 318.707 217.98 318.853 218.155L319.097 218.419L326.883 226.897C327.029 227.029 327.029 227.248 326.932 227.424L319.729 236.824C319.632 236.956 319.486 237 319.34 237Z" fill="#1A1D31"/>
<path d="M295.485 268.912C292.514 268.867 289.543 267.845 287.365 266.068C285.137 264.335 283.651 261.802 283.206 259.18C283.156 258.958 283.354 258.691 283.602 258.691C283.899 258.647 284.147 258.825 284.147 259.047C284.543 261.446 285.929 263.757 287.959 265.401C289.989 267.001 292.712 267.978 295.435 268.023C295.732 268.023 295.93 268.245 295.93 268.467C295.98 268.689 295.782 268.912 295.485 268.912Z" fill="white" fill-opacity="0.5"/>
<path d="M288.405 368.315C288.108 368.315 287.91 368.093 287.91 367.87L292.118 286.108C292.118 285.842 292.366 285.664 292.613 285.664C292.91 285.664 293.108 285.886 293.108 286.108L288.9 367.87C288.9 368.137 288.702 368.315 288.405 368.315Z" fill="white" fill-opacity="0.5"/>
<path d="M302.119 194.748C299.149 194.748 295.188 193.237 292.663 191.593C292.564 191.549 292.465 191.46 292.366 191.371C292.168 191.238 292.118 190.927 292.267 190.749C292.415 190.571 292.762 190.527 292.96 190.66C293.059 190.704 293.158 190.793 293.257 190.838C295.831 192.482 299.99 194.081 302.763 193.815C305.734 193.548 308.556 192.26 310.536 190.304C310.734 190.127 311.031 190.127 311.229 190.26C311.427 190.438 311.427 190.704 311.279 190.882C309.15 193.015 306.08 194.393 302.862 194.704C302.565 194.748 302.317 194.748 302.119 194.748Z" fill="white" fill-opacity="0.5"/>
<path d="M292.762 191.726C292.564 191.726 292.366 191.637 292.316 191.46C292.217 191.237 292.316 190.971 292.564 190.882C292.613 190.882 292.663 190.838 292.663 190.838C294.346 190.082 295.336 187.683 295.336 185.861C295.336 185.594 295.534 185.416 295.832 185.416C296.079 185.416 296.327 185.594 296.327 185.861C296.376 187.994 295.188 190.704 293.108 191.637C293.059 191.682 292.96 191.682 292.91 191.726C292.91 191.726 292.811 191.726 292.762 191.726Z" fill="white" fill-opacity="0.5"/>
<path d="M310.833 191.06C310.685 191.06 310.536 191.015 310.437 190.882C310.437 190.882 310.437 190.838 310.388 190.838L310.338 190.793C310.289 190.749 310.289 190.704 310.239 190.66C310.239 190.66 310.239 190.615 310.19 190.615C307.862 187.016 307.07 183.017 307.813 178.351C307.862 178.129 308.11 177.951 308.358 177.951C308.605 177.996 308.803 178.218 308.803 178.44C308.11 182.884 308.853 186.705 311.031 190.082L311.081 190.127C311.13 190.171 311.13 190.26 311.18 190.304L311.229 190.349C311.378 190.571 311.328 190.838 311.081 190.971C311.031 191.06 310.932 191.06 310.833 191.06Z" fill="white" fill-opacity="0.5"/>
<path d="M304.149 180.84C303.555 180.84 302.911 180.751 302.317 180.573C300.782 180.084 299.792 179.418 299.396 178.529C299.099 177.818 299.198 177.018 299.693 176.174C299.891 175.863 300.089 175.596 300.337 175.285C301.178 174.174 301.574 173.552 300.634 172.619C300.188 172.219 299.594 172.13 298.901 172.086C298.208 171.997 297.465 171.952 296.821 171.464C296.227 171.019 295.98 170.353 295.732 169.775C295.583 169.375 295.435 169.02 295.187 168.709C294.346 167.731 292.662 167.775 291.969 167.82C291.524 167.864 291.078 167.953 290.632 167.998C289.741 168.131 288.8 168.309 287.86 168.22C286.919 168.131 285.978 167.82 285.137 167.287C283.602 166.309 282.611 164.665 282.463 163.021C282.265 160.621 283.75 158.133 286.226 156.622C288.355 155.333 291.127 154.8 294.148 155.067C297.069 155.333 299.792 156.311 301.871 157.111C304.694 158.222 308.654 160.132 310.387 163.465C311.922 166.442 311.378 169.908 310.932 172.663C310.684 174.174 310.437 175.863 309.645 177.374C309.397 177.862 309.1 178.307 308.753 178.662C307.565 180.04 305.882 180.84 304.149 180.84ZM292.662 166.887C294.148 166.887 295.336 167.331 296.029 168.175C296.376 168.575 296.524 169.02 296.673 169.464C296.871 169.997 297.069 170.442 297.415 170.753C297.861 171.064 298.356 171.108 299 171.197C299.742 171.286 300.634 171.375 301.327 171.997C302.862 173.463 301.921 174.752 301.129 175.774C300.931 176.04 300.733 176.307 300.584 176.574C300.238 177.196 300.138 177.729 300.337 178.173C300.584 178.795 301.376 179.329 302.664 179.729C304.644 180.351 306.624 179.773 308.011 178.129C308.308 177.773 308.555 177.418 308.753 177.018C309.447 175.641 309.694 174.085 309.942 172.574C310.338 169.908 310.882 166.576 309.496 163.865C307.961 160.843 304.396 159.11 301.475 157.955C299.495 157.155 296.871 156.222 294.098 156C291.325 155.778 288.751 156.266 286.869 157.422C284.691 158.71 283.404 160.932 283.552 163.021C283.651 164.398 284.542 165.82 285.78 166.62C286.473 167.064 287.216 167.331 288.008 167.375C288.85 167.42 289.642 167.287 290.533 167.153C290.979 167.064 291.474 167.02 291.969 166.976C292.167 166.887 292.415 166.887 292.662 166.887Z" fill="white" fill-opacity="0.5"/>
<path d="M295.336 186.261C294.89 186.261 294.445 186.216 294.049 186.127C292.91 185.861 291.722 185.194 290.632 184.261C288.404 182.306 286.771 179.506 285.929 176.129C285.186 173.152 285.038 170.086 284.889 167.109C284.889 166.842 285.087 166.664 285.384 166.664C285.681 166.62 285.879 166.842 285.879 167.064C285.978 169.997 286.127 173.063 286.87 175.951C287.711 179.151 289.246 181.817 291.326 183.639C292.316 184.483 293.306 185.061 294.296 185.283C294.791 185.416 295.287 185.416 295.782 185.372C296.425 185.327 297.019 185.105 297.465 184.75C297.663 184.572 298.01 184.616 298.158 184.794C298.356 184.972 298.307 185.283 298.109 185.416C297.515 185.861 296.772 186.127 295.93 186.216C295.732 186.261 295.534 186.261 295.336 186.261Z" fill="white" fill-opacity="0.5"/>
<path d="M229.04 228.119C228.941 228.119 228.793 228.075 228.694 227.986L223.693 223.987C222.951 223.409 222.059 223.054 221.02 223.054C219.188 223.009 218.346 223.542 217.108 224.431C216.811 224.609 216.514 224.831 216.217 225.053C215.969 225.187 215.672 225.142 215.524 224.964C215.375 224.742 215.425 224.476 215.623 224.342C215.92 224.12 216.217 223.942 216.514 223.765C217.752 222.92 218.841 222.165 221.069 222.209C222.307 222.254 223.446 222.654 224.337 223.365L229.338 227.364C229.536 227.542 229.536 227.808 229.387 227.986C229.288 228.075 229.189 228.119 229.04 228.119Z" fill="white" fill-opacity="0.5"/>
<path d="M216.96 230.519C216.91 230.519 216.861 230.519 216.811 230.474C215.029 229.941 212.652 228.919 210.573 227.897C209.286 227.231 207.454 226.253 206.216 225.275C204.879 224.209 204.879 223.365 205.127 222.831C205.374 222.298 205.968 221.898 206.661 221.809C207.206 221.721 207.8 221.809 208.345 221.898C211.018 222.432 213.692 223.187 216.217 224.253C217.455 224.787 218.693 225.364 219.881 225.986C220.128 226.12 220.178 226.386 220.029 226.609C219.881 226.831 219.584 226.875 219.336 226.742C218.198 226.12 217.009 225.542 215.771 225.053C213.296 224.031 210.721 223.276 208.147 222.743C207.701 222.654 207.256 222.565 206.81 222.654C206.414 222.698 206.117 222.876 206.018 223.143C205.82 223.631 206.463 224.253 206.859 224.609C207.8 225.364 209.236 226.209 211.018 227.142C213.048 228.164 215.425 229.141 217.108 229.675C217.356 229.763 217.504 230.03 217.405 230.252C217.356 230.386 217.158 230.519 216.96 230.519Z" fill="white" fill-opacity="0.5"/>
<path d="M218.594 234.34C218.544 234.34 218.544 234.34 218.495 234.34C217.95 234.251 217.356 234.163 216.762 234.074C215.92 233.94 215.029 233.807 214.187 233.629C213.197 233.407 212.454 233.096 211.91 232.696C210.969 232.03 209.781 230.741 209.682 229.319C209.632 228.564 209.88 227.942 210.375 227.408C210.573 227.231 210.87 227.231 211.068 227.364C211.266 227.542 211.266 227.808 211.117 227.986C210.771 228.297 210.622 228.741 210.672 229.23C210.771 230.119 211.513 231.274 212.553 231.985C212.999 232.296 213.642 232.563 214.484 232.785C215.227 232.963 216.118 233.096 216.91 233.185C217.504 233.274 218.098 233.363 218.693 233.452C218.94 233.496 219.138 233.718 219.089 233.985C219.039 234.207 218.841 234.34 218.594 234.34Z" fill="white" fill-opacity="0.5"/>
<path d="M226.169 238.473C224.089 238.473 222.01 238.384 219.98 238.162C218.594 238.029 217.059 237.806 215.771 237.051C214.583 236.34 213.444 234.918 213.84 233.407C213.89 233.185 214.187 233.007 214.435 233.052C214.682 233.096 214.88 233.363 214.831 233.585C214.534 234.696 215.425 235.762 216.366 236.296C217.504 236.918 218.841 237.14 220.178 237.273C223 237.54 225.822 237.629 228.595 237.54C228.892 237.54 229.09 237.717 229.09 237.984C229.09 238.251 228.892 238.428 228.595 238.428C227.753 238.473 226.961 238.473 226.169 238.473Z" fill="white" fill-opacity="0.5"/>
<path d="M231.119 316.045H199.333C199.035 316.045 198.837 315.867 198.837 315.601C198.837 315.334 199.035 315.156 199.333 315.156H231.119C239.041 315.156 245.527 309.38 245.527 302.225V252.057C245.527 251.791 245.725 251.613 246.022 251.613C246.319 251.613 246.517 251.791 246.517 252.057V302.225C246.517 309.868 239.585 316.045 231.119 316.045Z" fill="white" fill-opacity="0.5"/>
<path d="M246.022 112.528C245.725 112.528 245.527 112.351 245.527 112.084V63.6043C245.527 56.4946 239.09 50.6734 231.119 50.6734H113.232C105.311 50.6734 98.8247 56.4501 98.8247 63.6043V75.8242C98.8247 76.0908 98.6267 76.2686 98.3296 76.2686C98.0325 76.2686 97.8345 76.0908 97.8345 75.8242V63.6043C97.8345 56.0058 104.717 49.7847 113.232 49.7847H231.119C239.585 49.7847 246.517 55.9613 246.517 63.6043V112.084C246.517 112.351 246.269 112.528 246.022 112.528Z" fill="white" fill-opacity="0.5"/>
<path d="M98.3789 201.578C98.0818 201.578 97.8838 201.4 97.8838 201.134V112.839C97.8838 112.573 98.0818 112.395 98.3789 112.395C98.676 112.395 98.874 112.573 98.874 112.839V201.134C98.874 201.356 98.6265 201.578 98.3789 201.578Z" fill="white" fill-opacity="0.5"/>
<path d="M231.119 298.715H181.014C180.717 298.715 180.519 298.537 180.519 298.271C180.519 298.004 180.717 297.826 181.014 297.826H231.119C233.842 297.826 236.12 295.827 236.12 293.338V252.057C236.12 251.791 236.318 251.613 236.615 251.613C236.912 251.613 237.11 251.791 237.11 252.057V293.338C237.11 296.315 234.436 298.715 231.119 298.715Z" fill="white" fill-opacity="0.5"/>
<path d="M236.615 112.528C236.318 112.528 236.12 112.351 236.12 112.084V63.6043C236.12 61.1604 233.892 59.1163 231.119 59.1163H113.233C110.509 59.1163 108.232 61.1159 108.232 63.6043V75.8242C108.232 76.0908 108.034 76.2686 107.737 76.2686C107.44 76.2686 107.242 76.0908 107.242 75.8242V63.6043C107.242 60.6716 109.915 58.2276 113.233 58.2276H231.119C234.387 58.2276 237.11 60.6271 237.11 63.6043V112.084C237.11 112.351 236.862 112.528 236.615 112.528Z" fill="white" fill-opacity="0.5"/>
<path d="M107.786 199.045C107.489 199.045 107.291 198.867 107.291 198.601V112.839C107.291 112.573 107.489 112.395 107.786 112.395C108.083 112.395 108.281 112.573 108.281 112.839V198.601C108.281 198.867 108.034 199.045 107.786 199.045Z" fill="white" fill-opacity="0.5"/>
<path d="M135.265 105.863H69.7614C66.048 105.863 63.0278 103.152 63.0278 99.8197V86.1334C63.0278 82.8007 66.048 80.0901 69.7614 80.0901H135.265C138.978 80.0901 141.998 82.8007 141.998 86.1334V99.8197C141.998 103.152 138.978 105.863 135.265 105.863ZM69.7614 80.9789C66.5926 80.9789 64.0181 83.2895 64.0181 86.1334V99.8197C64.0181 102.664 66.5926 104.974 69.7614 104.974H135.265C138.434 104.974 141.008 102.664 141.008 99.8197V86.1334C141.008 83.2895 138.434 80.9789 135.265 80.9789H69.7614Z" fill="white" fill-opacity="0.5"/>
<path d="M243.15 248.522H167.397C161.654 248.522 157 244.345 157 239.19V199.331C157 194.177 161.654 190 167.397 190H243.15C248.893 190 253.547 194.177 253.547 199.331V217.15C253.547 217.417 253.349 217.595 253.052 217.595C252.755 217.595 252.557 217.417 252.557 217.15V199.331C252.557 194.666 248.348 190.889 243.15 190.889H167.397C162.199 190.889 157.99 194.666 157.99 199.331V239.19C157.99 243.856 162.199 247.633 167.397 247.633H243.15C248.348 247.633 252.557 243.856 252.557 239.19C252.557 238.924 252.755 238.746 253.052 238.746C253.349 238.746 253.547 238.924 253.547 239.19C253.547 244.301 248.893 248.522 243.15 248.522Z" fill="white" fill-opacity="0.5"/>
<path d="M176.013 213.462C172.448 213.462 169.576 210.885 169.576 207.686C169.576 204.486 172.448 201.909 176.013 201.909C179.577 201.909 182.449 204.486 182.449 207.686C182.449 210.885 179.528 213.462 176.013 213.462ZM176.013 202.798C172.992 202.798 170.566 204.975 170.566 207.686C170.566 210.396 172.992 212.574 176.013 212.574C179.033 212.574 181.459 210.396 181.459 207.686C181.459 204.975 178.983 202.798 176.013 202.798Z" fill="white" fill-opacity="0.5"/>
<path d="M176.112 209.374C175.963 209.374 175.864 209.329 175.765 209.24L173.389 207.108C173.191 206.93 173.191 206.663 173.389 206.485C173.587 206.308 173.884 206.308 174.082 206.485L176.062 208.263L183.192 201.864C183.39 201.686 183.687 201.686 183.885 201.864C184.083 202.042 184.083 202.308 183.885 202.486L176.409 209.196C176.359 209.329 176.26 209.374 176.112 209.374Z" fill="white" fill-opacity="0.5"/>
<path d="M238.843 206.174H191.164C190.867 206.174 190.668 205.997 190.668 205.73C190.668 205.463 190.867 205.286 191.164 205.286H238.843C239.14 205.286 239.338 205.463 239.338 205.73C239.338 205.997 239.091 206.174 238.843 206.174Z" fill="white" fill-opacity="0.5"/>
<path d="M238.843 210.618H191.164C190.867 210.618 190.668 210.44 190.668 210.174C190.668 209.907 190.867 209.729 191.164 209.729H238.843C239.14 209.729 239.338 209.907 239.338 210.174C239.338 210.44 239.091 210.618 238.843 210.618Z" fill="white" fill-opacity="0.5"/>
<path d="M176.013 233.014C172.448 233.014 169.576 230.437 169.576 227.237C169.576 224.038 172.448 221.461 176.013 221.461C179.577 221.461 182.449 224.038 182.449 227.237C182.449 230.437 179.528 233.014 176.013 233.014ZM176.013 222.349C172.992 222.349 170.566 224.527 170.566 227.237C170.566 229.948 172.992 232.125 176.013 232.125C179.033 232.125 181.459 229.948 181.459 227.237C181.459 224.527 178.983 222.349 176.013 222.349Z" fill="white" fill-opacity="0.5"/>
<path d="M204.284 225.726H191.164C190.867 225.726 190.668 225.548 190.668 225.282C190.668 225.015 190.867 224.837 191.164 224.837H204.284C204.581 224.837 204.779 225.015 204.779 225.282C204.779 225.548 204.532 225.726 204.284 225.726Z" fill="white" fill-opacity="0.5"/>
<path d="M206.512 230.17H191.164C190.867 230.17 190.668 229.992 190.668 229.725C190.668 229.459 190.867 229.281 191.164 229.281H206.512C206.809 229.281 207.007 229.459 207.007 229.725C207.007 229.992 206.809 230.17 206.512 230.17Z" fill="white" fill-opacity="0.5"/>
<path d="M124.323 88.9773H80.0103C79.7132 88.9773 79.5151 88.7995 79.5151 88.5329C79.5151 88.2663 79.7132 88.0886 80.0103 88.0886H124.323C124.62 88.0886 124.818 88.2663 124.818 88.5329C124.818 88.7995 124.62 88.9773 124.323 88.9773Z" fill="white" fill-opacity="0.5"/>
<path d="M124.323 93.4208H91.5464C91.2493 93.4208 91.0513 93.243 91.0513 92.9764C91.0513 92.7098 91.2493 92.532 91.5464 92.532H124.323C124.62 92.532 124.818 92.7098 124.818 92.9764C124.818 93.243 124.62 93.4208 124.323 93.4208Z" fill="white" fill-opacity="0.5"/>
<path d="M86.9418 93.4208H80.0103C79.7132 93.4208 79.5151 93.243 79.5151 92.9764C79.5151 92.7098 79.7132 92.532 80.0103 92.532H86.9418C87.2389 92.532 87.437 92.7098 87.437 92.9764C87.437 93.243 87.2389 93.4208 86.9418 93.4208Z" fill="white" fill-opacity="0.5"/>
<path d="M124.323 97.8645H80.0103C79.7132 97.8645 79.5151 97.6867 79.5151 97.4201C79.5151 97.1535 79.7132 96.9758 80.0103 96.9758H124.323C124.62 96.9758 124.818 97.1535 124.818 97.4201C124.818 97.6867 124.62 97.8645 124.323 97.8645Z" fill="white" fill-opacity="0.5"/>
<path d="M243.201 176.301H157.397C151.654 176.301 147 172.124 147 166.969V133.331C147 128.177 151.654 124 157.397 124H243.201C248.944 124 253.598 128.177 253.598 133.331V166.969C253.598 172.124 248.944 176.301 243.201 176.301ZM157.397 124.933C152.199 124.933 147.99 128.71 147.99 133.376V167.014C147.99 171.68 152.199 175.457 157.397 175.457H243.201C248.399 175.457 252.608 171.68 252.608 167.014V133.376C252.608 128.71 248.399 124.933 243.201 124.933H157.397Z" fill="white" fill-opacity="0.5"/>
<path d="M156.951 164.748C156.753 164.748 156.605 164.748 156.407 164.704C156.159 164.659 155.961 164.437 155.961 164.215C156.01 163.993 156.258 163.815 156.506 163.815C157.991 163.948 159.575 163.326 160.863 162.082C162.051 160.927 162.794 159.46 163.536 158.038L171.062 143.463C171.854 141.952 172.696 140.264 174.082 138.975C175.666 137.509 177.795 136.798 179.627 137.109C181.608 137.464 183.143 138.886 184.232 139.908L193.738 148.884C195.471 150.529 197.253 152.173 199.481 153.195C201.363 154.039 204.185 154.483 206.314 153.195C206.661 152.973 206.958 152.75 207.304 152.484C207.799 152.128 208.294 151.728 208.889 151.462C210.621 150.662 212.949 150.928 215.276 152.173C216.018 152.573 216.711 153.017 217.355 153.461C218.395 154.128 219.335 154.75 220.474 155.194C225.227 157.105 230.624 154.794 233.644 151.817C237.061 148.485 238.793 143.863 240.328 139.819C240.427 139.597 240.675 139.464 240.972 139.553C241.219 139.642 241.368 139.864 241.269 140.131C239.685 144.263 237.952 148.929 234.387 152.439C231.119 155.639 225.277 158.083 220.078 156.039C218.89 155.55 217.85 154.883 216.81 154.217C216.167 153.772 215.474 153.372 214.78 152.973C213.84 152.439 211.364 151.373 209.334 152.306C208.839 152.528 208.393 152.839 207.948 153.195C207.601 153.461 207.255 153.728 206.859 153.95C204.334 155.461 201.165 154.928 199.036 153.995C196.61 152.928 194.728 151.106 192.995 149.507L183.489 140.575C182.152 139.331 180.964 138.264 179.429 137.998C177.597 137.687 175.815 138.62 174.775 139.597C173.488 140.797 172.696 142.352 171.953 143.819L164.427 158.394C163.685 159.86 162.893 161.415 161.605 162.66C160.268 164.037 158.536 164.748 156.951 164.748Z" fill="white" fill-opacity="0.5"/>
<path d="M62.3351 26.056C60.7508 26.056 59.4635 24.9007 59.4635 23.4787C59.4635 22.0568 58.1762 20.9014 56.5918 20.9014H53.6211C52.0368 20.9014 50.7495 22.0568 50.7495 23.4787C50.7495 24.9007 49.4622 26.056 47.8778 26.056C46.2934 26.056 45.0557 27.2113 45.0557 28.6333V31.2994C45.0557 32.7214 46.343 33.8767 47.8778 33.8767C49.4622 33.8767 50.7495 35.0321 50.7495 36.454C50.7495 37.876 52.0368 39.0313 53.6211 39.0313H56.5918C58.1762 39.0313 59.4635 37.876 59.4635 36.454C59.4635 35.0321 60.7508 33.8767 62.3351 33.8767C63.9195 33.8767 65.2068 32.7214 65.2068 31.2994V28.6333C65.2068 27.2113 63.9195 26.056 62.3351 26.056Z" fill="#FF7B0D" fill-opacity="0.8"/>
<path d="M46.2434 33.2546H43.2727C41.4408 33.2546 39.9059 31.9215 39.9059 30.233C39.9059 29.0776 38.8662 28.1 37.5294 28.1C35.6975 28.1 34.1626 26.767 34.1626 25.0784V22.4122C34.1626 20.7681 35.6479 19.3906 37.5294 19.3906C38.8167 19.3906 39.9059 18.4574 39.9059 17.2577C39.9059 15.6135 41.3913 14.236 43.2727 14.236H46.2434C48.0753 14.236 49.6101 15.5691 49.6101 17.2577C49.6101 18.413 50.6499 19.3906 51.9867 19.3906C53.8186 19.3906 55.3535 20.7237 55.3535 22.4122V25.0784C55.3535 26.7225 53.8681 28.1 51.9867 28.1C50.6994 28.1 49.6101 29.0332 49.6101 30.233C49.6101 31.8771 48.0753 33.2546 46.2434 33.2546ZM43.2727 15.2581C41.9854 15.2581 40.8961 16.1912 40.8961 17.391C40.8961 19.0351 39.4108 20.4126 37.5294 20.4126C36.2421 20.4126 35.1528 21.3458 35.1528 22.5455V25.2117C35.1528 26.367 36.1926 27.3446 37.5294 27.3446C39.3613 27.3446 40.8961 28.6777 40.8961 30.3663C40.8961 31.5216 41.9359 32.4992 43.2727 32.4992H46.2434C47.5307 32.4992 48.6199 31.566 48.6199 30.3663C48.6199 28.7221 50.1052 27.3446 51.9867 27.3446C53.274 27.3446 54.3632 26.4115 54.3632 25.2117V22.5455C54.3632 21.3902 53.3235 20.4126 51.9867 20.4126C50.1548 20.4126 48.6199 19.0795 48.6199 17.391C48.6199 16.2356 47.5802 15.2581 46.2434 15.2581H43.2727Z" fill="white" fill-opacity="0.5"/>
<path d="M37.1334 149.366C36.4403 149.366 35.8957 148.877 35.8957 148.255C35.8957 147.633 35.351 147.144 34.6579 147.144H33.3706C32.6774 147.144 32.1328 147.633 32.1328 148.255C32.1328 148.877 31.5882 149.366 30.895 149.366C30.2019 149.366 29.6572 149.854 29.6572 150.477V151.632C29.6572 152.254 30.2019 152.743 30.895 152.743C31.5882 152.743 32.1328 153.232 32.1328 153.854C32.1328 154.476 32.6774 154.965 33.3706 154.965H34.6579C35.351 154.965 35.8957 154.476 35.8957 153.854C35.8957 153.232 36.4403 152.743 37.1334 152.743C37.8266 152.743 38.3712 152.254 38.3712 151.632V150.477C38.3712 149.899 37.8266 149.366 37.1334 149.366Z" fill="#FF7B0D" fill-opacity="0.8"/>
<path d="M37.6286 159.097H36.3413C35.4006 159.097 34.6084 158.386 34.6084 157.542C34.6084 157.186 34.2618 156.875 33.8657 156.875C32.925 156.875 32.1328 156.164 32.1328 155.32V154.165C32.1328 153.321 32.925 152.61 33.8657 152.61C34.2618 152.61 34.6084 152.299 34.6084 151.943C34.6084 151.099 35.4006 150.388 36.3413 150.388H37.6286C38.5693 150.388 39.3615 151.099 39.3615 151.943C39.3615 152.299 39.708 152.61 40.1041 152.61C41.0449 152.61 41.837 153.321 41.837 154.165V155.32C41.837 156.164 41.0449 156.875 40.1041 156.875C39.708 156.875 39.3615 157.186 39.3615 157.542C39.411 158.386 38.6188 159.097 37.6286 159.097ZM36.3413 151.188C35.9452 151.188 35.5986 151.499 35.5986 151.854C35.5986 152.698 34.8064 153.409 33.8657 153.409C33.4696 153.409 33.123 153.72 33.123 154.076V155.231C33.123 155.587 33.4696 155.898 33.8657 155.898C34.8064 155.898 35.5986 156.609 35.5986 157.453C35.5986 157.809 35.9452 158.12 36.3413 158.12H37.6286C38.0247 158.12 38.3712 157.809 38.3712 157.453C38.3712 156.609 39.1634 155.898 40.1041 155.898C40.5002 155.898 40.8468 155.587 40.8468 155.231V154.076C40.8468 153.72 40.5002 153.409 40.1041 153.409C39.1634 153.409 38.3712 152.698 38.3712 151.854C38.3712 151.499 38.0247 151.188 37.6286 151.188H36.3413Z" fill="white" fill-opacity="0.5"/>
<path d="M358.809 196.957C358.116 196.957 357.571 196.468 357.571 195.846C357.571 195.224 357.027 194.735 356.333 194.735H354.997C354.303 194.735 353.759 195.224 353.759 195.846C353.759 196.468 353.214 196.957 352.521 196.957C351.828 196.957 351.283 197.445 351.283 198.067V199.223C351.283 199.845 351.828 200.334 352.521 200.334C353.214 200.334 353.759 200.823 353.759 201.445C353.759 202.067 354.303 202.556 354.997 202.556H356.284C356.977 202.556 357.522 202.067 357.522 201.445C357.522 200.823 358.066 200.334 358.759 200.334C359.453 200.334 359.997 199.845 359.997 199.223V198.067C360.047 197.445 359.502 196.957 358.809 196.957Z" fill="#FF7B0D" fill-opacity="0.8"/>
<path d="M350.491 202.111H349.204C348.263 202.111 347.471 201.4 347.471 200.556C347.471 200.2 347.124 199.889 346.728 199.889C345.787 199.889 344.995 199.178 344.995 198.334V197.179C344.995 196.335 345.787 195.624 346.728 195.624C347.124 195.624 347.471 195.313 347.471 194.957C347.471 194.113 348.263 193.402 349.204 193.402H350.491C351.432 193.402 352.224 194.113 352.224 194.957C352.224 195.313 352.57 195.624 352.966 195.624C353.907 195.624 354.699 196.335 354.699 197.179V198.334C354.699 199.178 353.907 199.889 352.966 199.889C352.57 199.889 352.224 200.2 352.224 200.556C352.224 201.4 351.432 202.111 350.491 202.111ZM349.154 194.202C348.758 194.202 348.411 194.513 348.411 194.868C348.411 195.712 347.619 196.423 346.679 196.423C346.282 196.423 345.936 196.734 345.936 197.09V198.245C345.936 198.601 346.282 198.912 346.679 198.912C347.619 198.912 348.411 199.623 348.411 200.467C348.411 200.823 348.758 201.134 349.154 201.134H350.441C350.837 201.134 351.184 200.823 351.184 200.467C351.184 199.623 351.976 198.912 352.917 198.912C353.313 198.912 353.66 198.601 353.66 198.245V197.09C353.66 196.734 353.313 196.423 352.917 196.423C351.976 196.423 351.184 195.712 351.184 194.868C351.184 194.513 350.837 194.202 350.441 194.202H349.154Z" fill="white" fill-opacity="0.5"/>
<path d="M219.137 29.8774H217.256C216.018 29.8774 214.978 28.9443 214.978 27.8334C214.978 27.2113 214.384 26.678 213.691 26.678C212.453 26.678 211.414 25.7449 211.414 24.634V22.9454C211.414 21.8345 212.453 20.9014 213.691 20.9014C214.384 20.9014 214.978 20.3681 214.978 19.746C214.978 18.6351 216.018 17.702 217.256 17.702H219.137C220.375 17.702 221.415 18.6351 221.415 19.746C221.415 20.3681 222.009 20.9014 222.702 20.9014C223.94 20.9014 224.98 21.8345 224.98 22.9454V24.634C224.98 25.7449 223.94 26.678 222.702 26.678C222.009 26.678 221.415 27.2113 221.415 27.8334C221.415 28.9887 220.425 29.8774 219.137 29.8774ZM217.305 18.5907C216.612 18.5907 216.018 19.1239 216.018 19.746C216.018 20.8569 214.978 21.7901 213.741 21.7901C213.047 21.7901 212.453 22.3233 212.453 22.9454V24.634C212.453 25.2561 213.047 25.7893 213.741 25.7893C214.978 25.7893 216.018 26.7225 216.018 27.8334C216.018 28.4555 216.612 28.9887 217.305 28.9887H219.187C219.88 28.9887 220.474 28.4555 220.474 27.8334C220.474 26.7225 221.514 25.7893 222.752 25.7893C223.445 25.7893 224.039 25.2561 224.039 24.634V22.9454C224.039 22.3233 223.445 21.7901 222.752 21.7901C221.514 21.7901 220.474 20.8569 220.474 19.746C220.474 19.1239 219.88 18.5907 219.187 18.5907H217.305Z" fill="white" fill-opacity="0.5"/>
<path d="M324.943 56.5835H323.656C322.715 56.5835 321.923 55.8726 321.923 55.0283C321.923 54.6728 321.576 54.3617 321.18 54.3617C320.239 54.3617 319.447 53.6508 319.447 52.8065V51.6511C319.447 50.8069 320.239 50.0959 321.18 50.0959C321.576 50.0959 321.923 49.7848 321.923 49.4293C321.923 48.5851 322.715 47.8741 323.656 47.8741H324.943C325.884 47.8741 326.676 48.5851 326.676 49.4293C326.676 49.7848 327.022 50.0959 327.419 50.0959C328.359 50.0959 329.151 50.8069 329.151 51.6511V52.8065C329.151 53.6508 328.359 54.3617 327.419 54.3617C327.022 54.3617 326.676 54.6728 326.676 55.0283C326.725 55.8726 325.933 56.5835 324.943 56.5835ZM323.656 48.6739C323.26 48.6739 322.913 48.985 322.913 49.3405C322.913 50.1848 322.121 50.8957 321.18 50.8957C320.784 50.8957 320.437 51.2068 320.437 51.5623V52.7176C320.437 53.0731 320.784 53.3841 321.18 53.3841C322.121 53.3841 322.913 54.0951 322.913 54.9394C322.913 55.2949 323.26 55.6059 323.656 55.6059H324.943C325.339 55.6059 325.686 55.2949 325.686 54.9394C325.686 54.0951 326.478 53.3841 327.419 53.3841C327.815 53.3841 328.161 53.0731 328.161 52.7176V51.5623C328.161 51.2068 327.815 50.8957 327.419 50.8957C326.478 50.8957 325.686 50.1848 325.686 49.3405C325.686 48.985 325.339 48.6739 324.943 48.6739H323.656Z" fill="white" fill-opacity="0.5"/>
<path d="M35.648 199.712C35.5985 199.712 35.549 199.712 35.4995 199.712C33.4695 199.134 31.4396 198.379 29.5086 197.49C29.2611 197.357 29.162 197.09 29.3106 196.912C29.4591 196.69 29.7562 196.601 29.9542 196.734C31.8357 197.623 33.8161 198.334 35.7966 198.912C36.0441 199.001 36.1927 199.223 36.0936 199.489C36.0441 199.578 35.8461 199.712 35.648 199.712ZM25.0526 194.957C24.9536 194.957 24.8546 194.913 24.7555 194.868C22.9731 193.757 21.2897 192.513 19.7549 191.18C19.5568 191.002 19.5568 190.736 19.7549 190.558C19.9529 190.38 20.25 190.38 20.448 190.558C21.9829 191.891 23.6168 193.091 25.3497 194.202C25.5972 194.335 25.6467 194.602 25.4487 194.824C25.3497 194.913 25.2011 194.957 25.0526 194.957ZM16.3881 187.714C16.2396 187.714 16.091 187.669 15.992 187.536C14.6552 186.025 13.4174 184.381 12.3282 182.693C12.1796 182.47 12.2787 182.204 12.5262 182.071C12.7738 181.937 13.0709 182.026 13.2194 182.248C14.2591 183.892 15.4474 185.492 16.7842 186.959C16.9327 187.136 16.9327 187.447 16.6852 187.581C16.6357 187.67 16.5366 187.714 16.3881 187.714ZM10.4468 178.516C10.2487 178.516 10.0507 178.427 10.0012 178.249C9.80311 177.849 9.65457 177.405 9.45653 176.96C8.9119 175.538 8.4663 174.117 8.11972 172.65C8.07021 172.428 8.21874 172.161 8.51581 172.117C8.76337 172.072 9.06043 172.206 9.10995 172.472C9.45653 173.894 9.90213 175.316 10.3972 176.694C10.5458 177.094 10.7438 177.538 10.8924 177.938C10.9914 178.16 10.8924 178.427 10.5953 178.516C10.5953 178.516 10.4963 178.516 10.4468 178.516ZM7.82265 168.162C7.57509 168.162 7.32754 167.984 7.32754 167.762C7.27803 166.873 7.22852 165.94 7.22852 165.052C7.22852 164.03 7.27803 162.963 7.37705 161.897C7.37705 161.63 7.62461 161.452 7.92167 161.497C8.21874 161.497 8.41679 161.719 8.36728 161.986C8.26825 163.008 8.21874 164.03 8.21874 165.052C8.21874 165.94 8.26825 166.829 8.31776 167.673C8.36728 167.94 8.16923 168.118 7.82265 168.162C7.87216 168.162 7.87216 168.162 7.82265 168.162ZM8.66434 157.542C8.61483 157.542 8.61483 157.542 8.56532 157.542C8.31776 157.497 8.11972 157.231 8.16923 157.009C8.61483 155.098 9.25848 153.232 10.0507 151.41C10.1497 151.188 10.4468 151.054 10.6943 151.143C10.9419 151.232 11.0904 151.499 10.9914 151.721C10.2487 153.498 9.60506 155.32 9.15946 157.186C9.10995 157.409 8.9119 157.542 8.66434 157.542ZM12.8728 147.633C12.7738 147.633 12.7243 147.633 12.6253 147.588C12.3777 147.455 12.2787 147.188 12.4272 146.966C12.9223 146.166 13.4669 145.411 14.0116 144.656C14.6057 143.856 15.2494 143.011 16.0415 142.123C16.1901 141.945 16.5366 141.9 16.7347 142.034C16.9327 142.167 16.9823 142.478 16.8337 142.656C16.091 143.545 15.4474 144.344 14.8533 145.144C14.3086 145.855 13.8135 146.655 13.3184 147.411C13.2194 147.544 13.0213 147.633 12.8728 147.633ZM19.8539 139.012C19.7549 139.012 19.6559 138.968 19.5568 138.923C19.3588 138.79 19.3093 138.479 19.5073 138.301C20.8441 136.835 22.2305 135.324 23.4682 133.769C23.6168 133.591 23.9633 133.547 24.1614 133.68C24.3594 133.813 24.409 134.124 24.2604 134.302C22.9731 135.857 21.5868 137.368 20.25 138.834C20.1015 138.923 19.9529 139.012 19.8539 139.012ZM26.7855 130.347C26.6865 130.347 26.637 130.347 26.5379 130.303C26.2904 130.169 26.1914 129.903 26.3399 129.681C27.4291 127.859 28.1223 126.126 28.5184 124.393C28.5679 124.171 28.8155 123.993 29.1125 124.037C29.3601 124.082 29.5581 124.304 29.5086 124.57C29.1125 126.392 28.3699 128.214 27.2311 130.081C27.1321 130.258 26.934 130.347 26.7855 130.347ZM29.2611 120.082C29.0135 120.082 28.8155 119.905 28.7659 119.682C28.5679 117.816 28.1223 115.95 27.6272 114.084C27.5777 113.861 27.7262 113.595 27.9738 113.55C28.2213 113.506 28.5184 113.639 28.5679 113.861C29.063 115.772 29.5086 117.683 29.7067 119.594C29.7562 119.86 29.5581 120.082 29.2611 120.082ZM26.9835 109.64C26.736 109.64 26.5379 109.507 26.4884 109.284C26.1418 107.374 25.9438 105.419 25.9438 103.463C25.9438 103.197 26.1418 103.019 26.4389 103.019C26.6865 103.019 26.934 103.197 26.934 103.463C26.934 105.374 27.1321 107.285 27.4787 109.151C27.5282 109.373 27.3301 109.64 27.0826 109.64C27.0331 109.64 26.9835 109.64 26.9835 109.64ZM26.736 99.0198H26.6865C26.4389 98.9753 26.2409 98.7532 26.2409 98.531C26.4884 96.6202 26.934 94.6651 27.4787 92.7987C27.5282 92.5766 27.8252 92.3988 28.0728 92.4877C28.3203 92.5321 28.4689 92.7987 28.4194 93.0209C27.8747 94.8428 27.4787 96.7535 27.2311 98.6199C27.1816 98.842 26.9835 99.0198 26.736 99.0198ZM29.7067 88.7106C29.6572 88.7106 29.5581 88.7106 29.5086 88.6662C29.2611 88.5773 29.1125 88.3107 29.2611 88.0885C30.1028 86.2667 31.0435 84.5337 32.1327 82.8451C32.2813 82.6229 32.5783 82.5785 32.8259 82.7118C33.0734 82.8451 33.1229 83.1117 32.9744 83.3339C31.8852 84.978 30.9445 86.6666 30.1523 88.444C30.1028 88.6218 29.9047 88.7106 29.7067 88.7106ZM35.648 79.5124C35.549 79.5124 35.45 79.468 35.351 79.4235C35.1529 79.2902 35.1034 78.9792 35.2519 78.8014C35.6975 78.2682 36.1927 77.7794 36.6383 77.2906C37.579 76.313 38.5692 75.3799 39.6584 74.5356C39.8565 74.3578 40.1536 74.3578 40.3516 74.58C40.5497 74.7578 40.5497 75.0244 40.3021 75.2021C39.2624 76.0464 38.2721 76.9796 37.3809 77.9127C36.8858 78.4015 36.4402 78.8903 35.9946 79.3791C35.9451 79.468 35.7966 79.5124 35.648 79.5124ZM44.2135 72.1805C44.065 72.1805 43.9164 72.136 43.8174 72.0027C43.6689 71.7806 43.7184 71.5139 43.9164 71.3806C45.6493 70.2697 47.5308 69.2477 49.4617 68.359C49.7093 68.2701 50.0063 68.3145 50.1053 68.5367C50.2044 68.7589 50.1549 69.0255 49.9073 69.1144C48.0259 70.0031 46.1939 70.9807 44.461 72.0916C44.4115 72.136 44.3125 72.1805 44.2135 72.1805ZM54.7099 67.2481C54.5118 67.2481 54.3138 67.1148 54.2643 66.937C54.1653 66.7148 54.3138 66.4482 54.5614 66.3594C56.5913 65.6928 58.7203 65.1596 60.7998 64.7597C61.0473 64.7152 61.3444 64.8485 61.3939 65.1152C61.4434 65.3373 61.2949 65.604 60.9978 65.6484C58.9184 66.0483 56.8884 66.5371 54.8584 67.2036C54.8089 67.2481 54.7594 67.2481 54.7099 67.2481ZM66.2955 64.9819C66.048 64.9819 65.8004 64.8041 65.8004 64.5819C65.8004 64.3153 65.9985 64.1376 66.246 64.0931C67.9789 63.9598 69.7613 63.9598 71.4447 64.0487C71.7418 64.0487 71.9398 64.2709 71.8903 64.4931C71.8903 64.7597 71.6428 64.9374 71.3952 64.893C69.7613 64.8485 68.0284 64.8485 66.2955 64.9819Z" fill="white" fill-opacity="0.5"/>
<path d="M305.782 66.3149C305.732 66.3149 305.683 66.3149 305.683 66.3149C305.435 66.2705 305.237 66.0039 305.336 65.7817C305.534 65.0263 305.633 64.2709 305.683 63.471C305.683 63.2488 305.93 63.0267 306.178 63.0267C306.475 63.0267 306.673 63.2488 306.673 63.471C306.623 64.3153 306.524 65.1596 306.326 65.9594C306.227 66.1816 306.029 66.3149 305.782 66.3149ZM305.287 59.1163C305.089 59.1163 304.89 58.983 304.841 58.8052C304.197 57.1167 303.158 55.4725 301.821 53.9173C301.672 53.7395 301.672 53.4285 301.92 53.2952C302.118 53.1619 302.464 53.1619 302.613 53.3841C304.049 55.0282 305.089 56.7612 305.782 58.5386C305.881 58.7608 305.732 59.0274 305.485 59.1163C305.386 59.1163 305.336 59.1163 305.287 59.1163ZM298.355 50.629C298.256 50.629 298.157 50.5846 298.058 50.5402C296.523 49.4293 294.741 48.4517 292.711 47.4741C292.463 47.3408 292.364 47.0742 292.513 46.8964C292.661 46.6742 292.958 46.5854 293.156 46.7187C295.236 47.6963 297.068 48.7183 298.652 49.8736C298.85 50.0069 298.9 50.318 298.751 50.4957C298.652 50.5846 298.504 50.629 298.355 50.629ZM287.958 45.4745C287.908 45.4745 287.809 45.4745 287.76 45.43C286.027 44.8079 284.294 44.1858 282.561 43.6081L281.769 43.3415C281.521 43.2527 281.373 42.986 281.472 42.7639C281.571 42.5417 281.868 42.4084 282.115 42.4972L282.907 42.7639C284.64 43.3415 286.423 43.9636 288.106 44.5857C288.354 44.6746 288.502 44.9412 288.354 45.1634C288.354 45.3856 288.156 45.4745 287.958 45.4745ZM276.917 41.6085C276.867 41.6085 276.768 41.6085 276.719 41.5641C274.491 40.7198 272.56 39.8755 270.876 38.9868C270.629 38.8535 270.579 38.5869 270.678 38.3647C270.827 38.1425 271.124 38.0981 271.371 38.187C273.005 39.0312 274.887 39.8755 277.065 40.7198C277.313 40.8087 277.412 41.0753 277.313 41.2975C277.263 41.5197 277.115 41.6085 276.917 41.6085ZM266.717 36.2318C266.618 36.2318 266.47 36.1873 266.42 36.1429C265.529 35.4319 264.687 34.721 263.895 33.9211C263.251 33.2546 262.608 32.5436 262.014 31.7437C261.865 31.5216 261.915 31.255 262.162 31.1216C262.41 30.9883 262.707 31.0328 262.855 31.255C263.4 32.0104 264.044 32.7213 264.638 33.3434C265.38 34.0989 266.173 34.8098 267.064 35.4764C267.262 35.6541 267.311 35.9207 267.113 36.0985C266.965 36.1873 266.816 36.2318 266.717 36.2318ZM164.575 34.5877C164.526 34.5877 164.427 34.5877 164.377 34.5432C164.13 34.4543 164.031 34.1877 164.13 33.9655C165.021 32.1881 166.011 30.4551 167.1 28.7665C167.249 28.5444 167.546 28.4999 167.794 28.5888C168.041 28.7221 168.091 28.9887 167.992 29.2109C166.902 30.855 165.962 32.588 165.07 34.321C164.971 34.4988 164.773 34.5877 164.575 34.5877ZM259.736 27.7001C259.538 27.7001 259.39 27.6112 259.291 27.4335C258.35 25.7005 257.508 23.8341 256.765 22.1011C256.666 21.879 256.815 21.6124 257.063 21.5235C257.31 21.4346 257.607 21.5235 257.706 21.7901C258.449 23.5231 259.291 25.345 260.182 27.078C260.281 27.3002 260.182 27.5668 259.934 27.6556C259.885 27.7001 259.786 27.7001 259.736 27.7001ZM170.467 25.345C170.368 25.345 170.269 25.3005 170.17 25.2561C169.923 25.1228 169.873 24.8562 170.071 24.634C171.309 23.0787 172.646 21.5235 174.082 20.0571C174.28 19.8793 174.577 19.8349 174.775 20.0127C174.973 20.1904 175.022 20.457 174.824 20.6348C173.438 22.0567 172.101 23.5675 170.863 25.1228C170.814 25.3005 170.616 25.345 170.467 25.345ZM255.181 17.8797C254.983 17.8797 254.785 17.7909 254.735 17.6131C253.745 15.5691 252.854 13.9249 251.864 12.503C251.715 12.2808 251.814 12.0142 252.012 11.8809C252.26 11.7476 252.557 11.8364 252.706 12.0142C253.696 13.4806 254.636 15.1247 255.627 17.2132C255.726 17.4354 255.627 17.702 255.379 17.7909C255.33 17.8353 255.231 17.8797 255.181 17.8797ZM178.24 17.3021C178.092 17.3021 177.993 17.2576 177.894 17.1688C177.696 16.991 177.696 16.7244 177.894 16.5467C179.429 15.2136 181.112 13.9249 182.796 12.7252C182.994 12.5919 183.34 12.5919 183.489 12.814C183.637 12.9918 183.637 13.3028 183.39 13.4361C181.706 14.6359 180.072 15.8801 178.587 17.2132C178.488 17.2576 178.389 17.3021 178.24 17.3021ZM187.499 10.6367C187.351 10.6367 187.202 10.5478 187.103 10.4589C186.954 10.2367 187.004 9.97013 187.252 9.83683C189.034 8.77036 190.915 7.79277 192.797 6.85962C193.044 6.72631 193.341 6.81518 193.49 7.03736C193.638 7.25954 193.539 7.52616 193.292 7.65946C191.41 8.54818 189.579 9.52577 187.796 10.5922C187.697 10.6367 187.598 10.6367 187.499 10.6367ZM248.992 8.8148C248.844 8.8148 248.745 8.77036 248.646 8.68149C247.21 7.34841 245.576 6.19308 243.694 5.21549C243.447 5.08218 243.397 4.81556 243.496 4.59338C243.645 4.3712 243.942 4.32677 244.19 4.41564C246.121 5.43767 247.853 6.68187 249.339 8.05939C249.537 8.23713 249.537 8.50375 249.339 8.68149C249.24 8.77036 249.091 8.8148 248.992 8.8148ZM197.946 5.57097C197.748 5.57097 197.55 5.4821 197.5 5.30436C197.401 5.08218 197.5 4.81556 197.748 4.72669C199.728 3.97128 201.758 3.2603 203.838 2.68264C204.085 2.59377 204.382 2.72707 204.481 2.94925C204.581 3.17143 204.432 3.43805 204.184 3.52692C202.154 4.10459 200.174 4.77113 198.194 5.52654C198.095 5.57097 198.045 5.57097 197.946 5.57097ZM239.04 3.21587C238.991 3.21587 238.941 3.21587 238.892 3.17143C237.01 2.54933 234.931 2.06053 232.752 1.66061C232.505 1.61617 232.307 1.39399 232.356 1.12738C232.406 0.905199 232.653 0.727455 232.951 0.771891C235.179 1.17182 237.308 1.66061 239.238 2.32715C239.486 2.41602 239.635 2.68264 239.536 2.90482C239.436 3.08256 239.238 3.21587 239.04 3.21587ZM209.235 2.23828C208.987 2.23828 208.789 2.10497 208.739 1.88279C208.69 1.66061 208.838 1.39399 209.136 1.34956C211.265 0.905199 213.394 0.594148 215.523 0.327532C215.77 0.283096 216.018 0.46084 216.067 0.727456C216.117 0.949635 215.919 1.17182 215.622 1.21625C213.542 1.43843 211.413 1.79392 209.334 2.19384C209.284 2.23828 209.284 2.23828 209.235 2.23828ZM227.405 1.03851H227.257C225.177 0.905199 223.048 0.860763 220.969 0.905199C220.672 0.905199 220.474 0.727456 220.474 0.46084C220.474 0.194224 220.672 0.0164804 220.969 0.0164804C223.098 -0.0279556 225.276 0.0164804 227.356 0.149788H227.455C227.752 0.149788 227.95 0.371968 227.9 0.638584C227.9 0.860763 227.702 1.03851 227.405 1.03851Z" fill="white" fill-opacity="0.5"/>
<path d="M312.306 160.475C312.271 160.441 312.235 160.406 312.235 160.406C312.089 160.201 312.134 159.872 312.36 159.782C313.03 159.381 313.629 158.91 314.223 158.373C314.379 158.214 314.711 158.228 314.888 158.401C315.1 158.609 315.087 158.906 314.931 159.065C314.306 159.634 313.645 160.168 312.944 160.602C312.718 160.691 312.483 160.648 312.306 160.475ZM316.985 154.982C316.843 154.844 316.795 154.61 316.884 154.448C317.604 152.791 318.01 150.888 318.142 148.842C318.16 148.611 318.377 148.388 318.647 148.466C318.882 148.509 319.13 148.752 319.081 149.014C318.958 151.194 318.49 153.16 317.743 154.915C317.658 155.143 317.365 155.23 317.126 155.121C317.056 155.051 317.02 155.017 316.985 154.982ZM317.963 144.068C317.892 143.998 317.852 143.897 317.812 143.796C317.492 141.929 316.901 139.984 316.133 137.866C316.049 137.597 316.165 137.338 316.395 137.314C316.657 137.259 316.931 137.403 316.979 137.637C317.783 139.79 318.378 141.802 318.703 143.735C318.752 143.969 318.569 144.226 318.339 144.249C318.206 144.244 318.069 144.172 317.963 144.068ZM314.132 133.113C314.097 133.078 314.026 133.009 314.022 132.943C313.218 131.286 312.414 129.63 311.579 128.006L311.199 127.261C311.084 127.024 311.164 126.73 311.39 126.64C311.616 126.551 311.922 126.663 312.037 126.9L312.417 127.644C313.252 129.269 314.091 130.96 314.86 132.581C314.975 132.818 314.895 133.113 314.633 133.168C314.478 133.326 314.274 133.251 314.132 133.113ZM308.941 122.63C308.906 122.595 308.835 122.526 308.83 122.459C307.828 120.298 307.037 118.344 306.455 116.532C306.371 116.264 306.522 116.039 306.749 115.949C307.01 115.894 307.254 116.07 307.368 116.306C307.946 118.052 308.701 119.971 309.669 122.098C309.783 122.335 309.668 122.595 309.442 122.684C309.251 122.808 309.083 122.768 308.941 122.63ZM305.408 111.655C305.337 111.585 305.262 111.45 305.257 111.383C305.117 110.252 305.013 109.155 305.005 108.029C305.011 107.103 305.048 106.145 305.183 105.157C305.232 104.895 305.453 104.739 305.724 104.816C305.994 104.894 306.175 105.134 306.126 105.396C305.987 106.317 305.95 107.276 305.94 108.136C305.943 109.195 306.012 110.257 306.184 111.357C306.201 111.622 306.05 111.848 305.784 111.836C305.616 111.796 305.479 111.724 305.408 111.655ZM233.527 39.0677C233.492 39.0331 233.421 38.9638 233.417 38.8974C233.302 38.6608 233.417 38.401 233.644 38.3113C235.523 37.6636 237.443 37.1168 239.402 36.671C239.664 36.616 239.907 36.792 240.022 37.0286C240.106 37.297 239.955 37.5222 239.729 37.6118C237.801 38.0258 235.916 38.6072 234.068 39.2232C233.873 39.281 233.669 39.2061 233.527 39.0677ZM306.381 100.674C306.24 100.535 306.196 100.368 306.249 100.172C306.788 98.2749 307.491 96.3521 308.172 94.5938C308.256 94.3657 308.549 94.2789 308.788 94.3885C309.027 94.498 309.177 94.7692 309.062 95.0291C308.381 96.7874 307.709 98.6784 307.135 100.541C307.05 100.769 306.793 100.89 306.554 100.781C306.487 100.778 306.417 100.708 306.381 100.674ZM244.202 36.5785C244.131 36.5093 244.091 36.4083 244.052 36.3073C243.968 36.0389 244.119 35.8137 244.416 35.7933C246.388 35.5467 248.431 35.3693 250.483 35.3247C250.749 35.3361 250.992 35.512 251.01 35.7775C251.027 36.0431 250.876 36.2683 250.61 36.2569C248.625 36.3044 246.613 36.45 244.64 36.6966C244.481 36.7891 244.308 36.6824 244.202 36.5785ZM309.99 90.4678C309.849 90.3294 309.769 90.1274 309.858 89.9657C310.579 87.8119 311.091 86.0133 311.378 84.3043C311.427 84.0416 311.684 83.9202 311.919 83.9634C312.189 84.0411 312.339 84.3124 312.321 84.5433C312.004 86.284 311.527 88.1173 310.775 90.3028C310.69 90.5309 310.433 90.6523 310.194 90.5428C310.127 90.5399 310.026 90.5025 309.99 90.4678ZM255.383 36.2626C255.276 36.1587 255.237 36.0577 255.228 35.9249C255.211 35.6594 255.397 35.4688 255.663 35.4801C257.692 35.6001 259.797 35.8557 261.839 36.1748C262.074 36.2179 262.322 36.4602 262.273 36.7229C262.255 36.9539 262.037 37.1762 261.767 37.0985C259.725 36.7794 257.687 36.5267 255.693 36.4413C255.591 36.4039 255.489 36.3664 255.383 36.2626ZM266.663 37.97C266.556 37.8661 266.512 37.6987 266.504 37.566C266.553 37.3033 266.775 37.1473 267.045 37.225C269.065 37.7087 271.093 38.3251 273.091 38.9733C273.361 39.051 273.511 39.3223 273.462 39.585C273.413 39.8477 273.156 39.9691 272.886 39.8913C270.919 39.2114 268.926 38.6295 266.906 38.1459C266.804 38.1084 266.733 38.0392 266.663 37.97ZM311.903 79.6596C311.797 79.5558 311.757 79.4548 311.748 79.322C311.654 77.365 311.293 75.3967 310.632 73.3823C310.548 73.1139 310.699 72.8887 310.925 72.7991C311.186 72.7441 311.43 72.92 311.545 73.1566C312.211 75.2373 312.58 77.3385 312.679 79.3618C312.696 79.6274 312.51 79.818 312.244 79.8066C312.111 79.8009 311.974 79.7289 311.903 79.6596ZM277.673 41.6519C277.532 41.5135 277.452 41.3115 277.541 41.1498C277.626 40.9217 277.883 40.8003 278.122 40.9098C280.066 41.7543 282.015 42.6652 283.905 43.706C284.145 43.8156 284.264 44.1186 284.179 44.3467C284.095 44.5747 283.802 44.6615 283.563 44.552C281.708 43.5458 279.826 42.6377 277.882 41.7932C277.78 41.7558 277.744 41.7211 277.673 41.6519ZM308.702 68.6988C308.667 68.6642 308.631 68.6296 308.627 68.5632C307.717 66.803 306.571 64.9997 305.294 63.1907C305.148 62.9858 305.161 62.6885 305.383 62.5325C305.574 62.4082 305.875 62.4542 306.056 62.6937C307.37 64.5373 308.55 66.3753 309.465 68.2018C309.58 68.4385 309.5 68.7329 309.273 68.8225C309.078 68.8804 308.844 68.8372 308.702 68.6988ZM288.075 47.1614C287.898 46.9883 287.849 46.7545 287.969 46.5611C288.089 46.3676 288.382 46.2808 288.625 46.4567C290.458 47.6275 292.198 48.8935 293.906 50.1914C294.114 50.3327 294.167 50.6328 294.016 50.8581C293.896 51.0516 293.599 51.072 293.356 50.896C291.714 49.601 289.943 48.3667 288.177 47.1988C288.11 47.196 288.11 47.196 288.075 47.1614ZM301.905 59.0074L301.799 58.9036C300.405 57.3544 298.914 55.8342 297.396 54.4121C297.184 54.2044 297.167 53.9389 297.353 53.7482C297.54 53.5576 297.805 53.569 298.018 53.7767C299.571 55.2334 301.098 56.7882 302.491 58.3374L302.562 58.4066C302.774 58.6143 302.761 58.9116 302.539 59.0676C302.384 59.2265 302.118 59.2151 301.905 59.0074Z" fill="white" fill-opacity="0.5"/>
</svg>
