<svg width="207" height="53" viewBox="0 0 207 53" fill="none" xmlns="http://www.w3.org/2000/svg">
<g clip-path="url(#clip0)">
<path d="M78.453 9.45117C73.1203 9.45117 70.4164 11.646 70.4164 15.9743V30.169C70.4169 30.5425 70.5655 30.9006 70.8295 31.1647C71.0936 31.4288 71.4517 31.5774 71.8252 31.5779H72.9737C73.3472 31.5775 73.7053 31.4289 73.9695 31.1648C74.2336 30.9007 74.3821 30.5426 74.3826 30.169V27.9476C74.4046 27.3517 74.4715 25.5394 78.4533 25.5394L78.9229 25.5242V25.5186C83.9449 25.3916 86.4896 23.2006 86.4896 19.0012V15.9743C86.4894 11.6459 83.7853 9.45117 78.453 9.45117ZM74.3826 15.9743C74.3826 15.342 74.3826 13.4173 78.453 13.4173C82.5235 13.4173 82.5236 15.342 82.5236 15.9743V19.0011C82.5236 19.6334 82.5236 21.5586 78.453 21.5586L77.9834 21.5737V21.5796C76.5951 21.6159 75.387 21.8113 74.3829 22.164L74.3826 15.9743Z" fill="white"/>
<path d="M92.7854 15.5048H89.9077C89.6072 15.5048 89.3636 15.7484 89.3636 16.0489V31.0336C89.3636 31.3342 89.6072 31.5778 89.9077 31.5778H92.7854C93.086 31.5778 93.3296 31.3342 93.3296 31.0336V16.0489C93.3296 15.7484 93.086 15.5048 92.7854 15.5048Z" fill="white"/>
<path d="M91.2462 7.93881C90.565 7.95781 89.9152 8.22956 89.4233 8.70117C89.1455 8.96049 88.9266 9.27629 88.7811 9.62732C88.6356 9.97835 88.567 10.3565 88.5798 10.7362C88.5959 11.4177 88.8646 12.0689 89.3338 12.5634C89.8234 13.0801 90.4951 13.3856 91.2064 13.415C91.9176 13.4444 92.6123 13.1955 93.1429 12.721C93.4476 12.4436 93.6873 12.1024 93.8449 11.7218C94.0026 11.3411 94.0742 10.9303 94.0548 10.5188C94.0124 9.80869 93.696 9.14281 93.1723 8.66149C92.6485 8.18018 91.9583 7.92104 91.2472 7.93871L91.2462 7.93881Z" fill="#FE7D11"/>
<path d="M104.181 19.4708C106.582 19.4708 107.891 20.0982 108.184 21.3887C108.253 21.7027 108.426 21.9839 108.676 22.1856C108.927 22.3873 109.238 22.4974 109.559 22.4977H110.751C110.952 22.4972 111.15 22.4541 111.332 22.3711C111.515 22.2881 111.678 22.1672 111.81 22.0163C111.942 21.8655 112.041 21.6883 112.1 21.4964C112.158 21.3044 112.175 21.1023 112.149 20.9034C111.694 17.321 109.013 15.5048 104.181 15.5048C98.8478 15.5048 96.1442 17.6995 96.1442 22.0281V25.0548C96.1442 29.3834 98.848 31.5781 104.181 31.5781C109.013 31.5781 111.694 29.7616 112.149 26.1797C112.175 25.9808 112.158 25.7786 112.1 25.5866C112.041 25.3947 111.943 25.2173 111.81 25.0665C111.678 24.9156 111.515 24.7947 111.333 24.7117C111.15 24.6287 110.952 24.5855 110.751 24.5851H109.559C109.238 24.5854 108.926 24.6955 108.676 24.8973C108.426 25.099 108.253 25.3803 108.184 25.6943C107.891 26.9845 106.582 27.6119 104.181 27.6119C100.11 27.6119 100.11 25.6873 100.11 25.0544V22.0281C100.11 21.3955 100.11 19.4708 104.181 19.4708Z" fill="white"/>
<path d="M127.812 22.8117C128.51 21.8079 128.864 20.5271 128.864 18.9987L128.853 16.9066C128.851 16.5344 128.701 16.1783 128.438 15.9157C128.174 15.6531 127.817 15.5054 127.445 15.5046H126.297C126.111 15.5046 125.927 15.5412 125.756 15.6124C125.585 15.6837 125.429 15.7881 125.298 15.9197C125.167 16.0512 125.063 16.2074 124.993 16.3791C124.923 16.5509 124.887 16.7349 124.888 16.9205L124.898 19.0011C124.898 19.6359 124.898 21.5661 120.824 21.6642L120.772 21.6673C119.921 21.7393 119.081 21.9122 118.27 22.1824V19.4711H118.288L118.27 15.9746V10.86C118.27 10.4864 118.121 10.1282 117.857 9.86403C117.593 9.5999 117.235 9.45141 116.861 9.45117H115.713C115.339 9.45163 114.981 9.6002 114.717 9.86431C114.453 10.1284 114.304 10.4865 114.304 10.86V30.1686C114.304 30.5421 114.453 30.9002 114.717 31.1643C114.981 31.4284 115.339 31.5769 115.713 31.5774H116.866C117.238 31.5766 117.595 31.4288 117.859 31.1662C118.123 30.9037 118.272 30.5476 118.275 30.1754L118.285 28.0833L118.278 27.8015C118.326 27.0941 118.67 25.5539 122.341 25.5539H122.81V25.5319C124.246 25.5863 125.261 25.9024 125.831 26.4751C126.225 26.871 126.415 27.3956 126.411 28.0812V30.1688C126.412 30.5423 126.56 30.9004 126.825 31.1645C127.089 31.4286 127.447 31.5772 127.82 31.5776H128.968C129.342 31.5771 129.7 31.4286 129.964 31.1645C130.228 30.9004 130.377 30.5423 130.377 30.1688V28.0828C130.387 25.6654 129.525 23.893 127.812 22.8117Z" fill="white"/>
<path d="M140.516 15.5048C135.184 15.5048 132.48 17.6995 132.48 22.0281V25.0548C132.48 29.3834 135.184 31.5781 140.516 31.5781C145.849 31.5781 148.553 29.3833 148.553 25.0548V22.0281C148.553 17.6995 145.849 15.5048 140.516 15.5048ZM136.446 22.0281C136.446 21.3955 136.446 19.4705 140.516 19.4705C144.587 19.4705 144.587 21.3952 144.587 22.0281V25.0548C144.587 25.6873 144.587 27.6123 140.516 27.6123C136.446 27.6123 136.446 25.6876 136.446 25.0548V22.0281Z" fill="white"/>
<path d="M157.654 15.5337C153.001 15.8057 150.642 17.9909 150.642 22.0278V30.1689C150.642 30.5424 150.791 30.9005 151.055 31.1646C151.319 31.4287 151.677 31.5773 152.051 31.5777H153.199C153.573 31.5773 153.931 31.4288 154.195 31.1647C154.459 30.9005 154.607 30.5424 154.608 30.1689V22.0278C154.608 21.0478 154.942 19.7197 157.835 19.5007C158.19 19.4738 158.522 19.3144 158.766 19.0542C159.009 18.794 159.145 18.452 159.148 18.0958V16.9413C159.148 16.7491 159.108 16.559 159.032 16.3826C158.956 16.2062 158.845 16.0473 158.705 15.9155C158.565 15.7837 158.4 15.6818 158.219 15.6162C158.038 15.5505 157.846 15.5224 157.654 15.5337Z" fill="white"/>
<path d="M175.898 9.45117H174.749C174.376 9.45158 174.018 9.60014 173.754 9.86426C173.489 10.1284 173.341 10.4865 173.341 10.86V12.9477C173.341 13.5764 173.341 15.4896 169.27 15.4896L168.8 15.5047V15.5106C163.778 15.6375 161.234 17.8285 161.234 22.028V25.0546C161.234 29.3832 163.937 31.5779 169.27 31.5779C174.603 31.5779 177.307 29.3831 177.307 25.0546V10.86C177.306 10.4866 177.158 10.1285 176.894 9.86444C176.63 9.60034 176.272 9.45172 175.898 9.45117ZM165.199 22.028C165.199 21.3954 165.199 19.4704 169.27 19.4704L169.74 19.4554V19.4493C171.128 19.4136 172.336 19.2177 173.34 18.8651V25.0543C173.34 25.6869 173.34 27.6119 169.27 27.6119C165.199 27.6119 165.199 25.6872 165.199 25.0543L165.199 22.028Z" fill="white"/>
<path d="M187.432 15.5048C182.099 15.5048 179.395 17.6995 179.395 22.0281V25.0548C179.395 29.3834 182.099 31.5781 187.432 31.5781H192.531C192.905 31.5776 193.263 31.429 193.527 31.1649C193.791 30.9008 193.94 30.5427 193.94 30.1692V29.0208C193.94 28.6473 193.791 28.2892 193.527 28.025C193.263 27.7609 192.905 27.6124 192.531 27.6119H187.432C183.929 27.6119 183.483 26.2024 183.393 25.5243H194.06C194.433 25.5239 194.791 25.3753 195.055 25.1112C195.319 24.8471 195.468 24.489 195.468 24.1154V22.0281C195.468 17.6995 192.765 15.5048 187.432 15.5048ZM187.432 19.4708C190.935 19.4708 191.381 20.8803 191.471 21.5584H183.393C183.483 20.8806 183.928 19.4708 187.432 19.4708Z" fill="white"/>
<path d="M205.621 15.916C205.481 15.7842 205.315 15.6823 205.135 15.6166C204.954 15.5509 204.762 15.5227 204.57 15.5337C199.917 15.8058 197.557 17.9909 197.557 22.0279V30.169C197.558 30.5425 197.706 30.9006 197.97 31.1647C198.235 31.4288 198.593 31.5774 198.966 31.5778H200.115C200.488 31.5773 200.846 31.4288 201.11 31.1646C201.374 30.9005 201.523 30.5425 201.523 30.169V22.0279C201.523 21.0478 201.858 19.7197 204.751 19.5007C205.106 19.4738 205.438 19.3144 205.681 19.0542C205.924 18.794 206.061 18.452 206.063 18.0959V16.9412C206.063 16.7492 206.024 16.5593 205.948 16.3831C205.871 16.2068 205.76 16.0479 205.621 15.916Z" fill="white"/>
<path d="M26.53 17.7253L1.37061 17.3585C1.02353 17.3534 0.715716 17.0488 0.6613 16.6581L0.00830772 11.983C-0.0551776 11.5262 0.253181 11.1386 0.660121 11.1656L25.9208 12.8365C26.1227 12.8541 26.3129 12.9383 26.4617 13.0759C26.6104 13.2135 26.7092 13.3966 26.7424 13.5965L27.2761 16.8252C27.357 17.3163 27.0119 17.7323 26.53 17.7253Z" fill="#FA8D32" fill-opacity="0.4"/>
<path d="M25.8413 27.1331L8.81547 29.0852C8.41252 29.1312 8.0103 28.7989 7.92722 28.353L7.13076 24.0782C7.04832 23.6362 7.31487 23.2495 7.71918 23.2251L24.8343 22.1912C25.0584 22.1857 25.2774 22.259 25.453 22.3984C25.6286 22.5379 25.7497 22.7345 25.7951 22.9541L26.464 26.2247C26.5574 26.6808 26.2813 27.0826 25.8413 27.1331Z" fill="#FA8D32" fill-opacity="0.4"/>
<path d="M27.6724 36.5795L17.5028 38.7245C17.0507 38.8198 16.556 38.449 16.4586 37.9438L15.7011 34.0177C15.6195 33.5931 15.8535 33.2215 16.2414 33.1618L26.4565 31.5922C26.9313 31.5192 27.428 31.8852 27.5303 32.3854L28.2076 35.6975C28.2943 36.1217 28.0668 36.4964 27.6724 36.5795Z" fill="#FA8D32" fill-opacity="0.4"/>
<path d="M49.5476 20.8237L36.9914 21.204C36.8507 21.2083 36.7128 21.2441 36.5878 21.3089C36.4628 21.3736 36.3539 21.4656 36.2693 21.5781C36.1847 21.6905 36.1264 21.8206 36.0987 21.9586C36.0711 22.0966 36.0748 22.239 36.1097 22.3754L37.0059 25.882C37.0611 26.0976 37.191 26.2866 37.3725 26.4154C37.554 26.5441 37.7753 26.6043 37.997 26.5852L49.0302 25.63C49.2305 25.6126 49.42 25.5314 49.5707 25.3983C49.7215 25.2652 49.8255 25.0873 49.8676 24.8906L50.4943 21.9586C50.5241 21.8194 50.5217 21.6752 50.4876 21.537C50.4534 21.3988 50.3882 21.2702 50.297 21.1608C50.2058 21.0515 50.091 20.9643 49.9611 20.9059C49.8313 20.8475 49.6899 20.8194 49.5476 20.8237Z" fill="#FE7D11"/>
<path d="M55.9239 11.9383C55.7291 11.9225 55.544 11.8461 55.3948 11.7199C55.2455 11.5936 55.1395 11.4238 55.0916 11.2343C53.7624 5.97808 49.4737 1.39608 43.795 0.265585C37.2283 -1.04176 30.8792 2.57463 28.6869 9.02047C28.6202 9.21923 28.4891 9.39003 28.3143 9.50574C28.1395 9.62145 27.9311 9.67544 27.7221 9.65914L21.3683 9.1459C21.0649 9.1214 20.7602 9.17097 20.4803 9.29033C20.2003 9.4097 19.9536 9.5953 19.7613 9.83115C19.569 10.067 19.4368 10.3461 19.3763 10.6443C19.3157 10.9425 19.3285 11.251 19.4136 11.5432L25.3002 31.7695L27.0656 37.8354C27.197 38.2867 27.4927 38.6723 27.8945 38.9162C28.2963 39.1601 28.775 39.2444 29.2359 39.1527L33.3408 38.3353C33.4123 38.3212 33.48 38.2924 33.5399 38.2509C33.5998 38.2093 33.6504 38.1559 33.6887 38.0939C33.727 38.0319 33.7521 37.9627 33.7625 37.8905C33.7728 37.8184 33.7682 37.7449 33.7489 37.6746L32.4574 32.9349L30.8913 27.2003L29.3196 21.4366L27.9881 16.5609C27.9494 16.4195 27.9444 16.2709 27.9735 16.1272C28.0026 15.9835 28.0649 15.8486 28.1554 15.7333C28.246 15.618 28.3623 15.5254 28.495 15.4631C28.6277 15.4008 28.7732 15.3705 28.9198 15.3744L54.7209 16.0818C54.8579 16.0856 54.9924 16.1193 55.115 16.1806C55.2376 16.2419 55.3453 16.3292 55.4305 16.4365C55.5158 16.5438 55.5765 16.6685 55.6084 16.8018C55.6404 16.935 55.6428 17.0737 55.6155 17.208L54.9127 20.6612L53.9906 25.2007L53.1521 29.3201C53.1135 29.5097 53.0172 29.6828 52.8765 29.8157C52.7358 29.9486 52.5575 30.0348 52.366 30.0625L40.6546 31.7522C40.3937 31.7898 40.1436 31.8819 39.9206 32.0225C39.6977 32.1631 39.5068 32.3491 39.3604 32.5683C39.2141 32.7876 39.1155 33.0351 39.0711 33.295C39.0267 33.5548 39.0374 33.8211 39.1027 34.0765L39.7266 36.5191C39.7627 36.6592 39.8511 36.7802 39.9737 36.8572C40.0962 36.9341 40.2435 36.9613 40.3855 36.933L54.6576 34.0911C55.0233 34.0184 55.3592 33.8384 55.6223 33.5742C55.8854 33.3099 56.0639 32.9733 56.1351 32.6072L59.6824 14.3354C59.7328 14.076 59.7279 13.8088 59.668 13.5514C59.6081 13.2941 59.4945 13.0522 59.3348 12.8417C59.175 12.6312 58.9726 12.4568 58.7409 12.3298C58.5091 12.2029 58.2532 12.1262 57.9897 12.105L55.9239 11.9383ZM43.795 5.4809C46.6162 5.87995 48.9715 7.66343 50.3196 10.0176C50.403 10.1662 50.4443 10.3347 50.4392 10.505C50.434 10.6753 50.3826 10.841 50.2905 10.9843C50.1984 11.1276 50.069 11.2432 49.9162 11.3186C49.7634 11.394 49.5929 11.4263 49.4231 11.4122L36.6567 10.3811C36.4924 10.3679 36.3343 10.3117 36.1986 10.2182C36.0628 10.1247 35.9539 9.99714 35.883 9.84828C35.8121 9.69943 35.7816 9.53454 35.7946 9.37018C35.8075 9.20581 35.8635 9.04774 35.9568 8.91182C36.8107 7.66311 37.9983 6.67939 39.3841 6.07279C40.7699 5.46618 42.2983 5.2611 43.795 5.4809Z" fill="#FE7D11"/>
<path d="M70.4167 36.6178V48.6992H78.2865V46.628H72.6949V36.6178H70.4167ZM78.0798 44.419C78.0798 47.1114 80.0474 48.9409 82.5672 48.9409C85.087 48.9409 87.0546 47.1114 87.0546 44.419C87.0546 41.7266 85.087 39.897 82.5672 39.897C80.0474 39.897 78.0798 41.7266 78.0798 44.419ZM80.2545 44.419C80.2545 42.8657 81.1864 41.8301 82.5671 41.8301C83.9478 41.8301 84.8798 42.8657 84.8798 44.419C84.8798 45.9723 83.9478 47.0078 82.5671 47.0078C81.1864 47.0078 80.2545 45.9723 80.2545 44.419H80.2545ZM93.9928 40.1387V41.3468H93.7512C93.3024 40.6219 92.543 39.8971 91.0242 39.8971C88.8838 39.8971 87.0891 41.7266 87.0891 44.2809C87.0891 46.8353 88.8841 48.6648 91.0242 48.6648C92.543 48.6648 93.3024 47.9399 93.7512 47.2151H93.9583V48.3195C93.9583 49.8384 92.94 50.5287 91.5938 50.5287C90.2994 50.5287 89.471 49.7176 89.0222 48.8373L87.1926 49.9764C88.0555 51.3226 89.3845 52.3926 91.7318 52.3926C94.4242 52.3926 96.1328 50.753 96.1328 48.4058V40.1387H93.9928ZM91.611 46.7321C90.2993 46.7321 89.2637 45.8692 89.2637 44.2813C89.2637 42.6934 90.2993 41.8303 91.611 41.8303C92.9572 41.8303 93.9582 42.7282 93.9582 44.2811C93.9582 45.8341 92.9572 46.7317 91.611 46.7317V46.7321ZM96.7542 37.6537C96.7542 38.5339 97.4273 39.138 98.2903 39.138C99.1532 39.138 99.8261 38.5336 99.8261 37.6534C99.8261 36.7731 99.153 36.1691 98.2901 36.1691C97.4271 36.1691 96.7542 36.7732 96.7542 37.6534V37.6537ZM99.3776 40.1387H97.2029V48.6992H99.3776V40.1387ZM100.172 42.555C100.172 44.1428 101.259 44.9195 103.658 45.1956L103.951 45.2301C104.883 45.3337 105.763 45.4545 105.763 46.0931C105.763 46.7662 104.952 47.1459 104.072 47.1459C102.967 47.1459 101.811 46.5591 101.276 45.4372L99.5502 46.5246C100.344 47.7327 101.656 48.9409 104.02 48.9409C106.298 48.9409 107.869 47.7154 107.869 46.0413C107.869 44.4707 106.851 43.7631 104.107 43.4351L103.813 43.4006C102.915 43.297 102.277 43.1417 102.277 42.5204C102.277 42.0026 102.726 41.6575 103.537 41.6575C104.676 41.6575 105.539 42.3478 106.195 43.1245L107.766 41.882C106.609 40.6739 105.367 39.8972 103.606 39.8972C101.621 39.897 100.172 40.9671 100.172 42.555ZM107.455 40.1387V42.0026H109.63V47.0424C109.63 48.0089 110.354 48.6992 111.321 48.6992H113.668V46.8352H112.287C111.977 46.8352 111.804 46.6629 111.804 46.3175V42.0026H114.151V40.1387H111.804V37.4808H109.63V40.1387H107.455ZM114.29 37.6537C114.29 38.5339 114.963 39.138 115.826 39.138C116.689 39.138 117.362 38.5336 117.362 37.6534C117.362 36.7731 116.689 36.1691 115.826 36.1691C114.963 36.1691 114.29 36.7732 114.29 37.6534V37.6537ZM116.913 40.1387H114.738V48.6992H116.913V40.1387ZM117.465 44.4194C117.465 47.0774 119.433 48.9413 121.918 48.9413C124.317 48.9413 125.819 47.6124 126.233 45.662L124.093 45.1269C123.868 46.2488 123.264 47.0082 121.952 47.0082C120.554 47.0082 119.64 45.9726 119.64 44.4193C119.64 42.866 120.641 41.8303 121.953 41.8303C123.264 41.8303 123.937 42.6933 124.093 43.7288L126.233 43.1765C125.785 41.2266 124.3 39.8972 121.919 39.8972C119.433 39.897 117.465 41.761 117.465 44.419L117.465 44.4194ZM126.44 42.555C126.44 44.1428 127.527 44.9195 129.926 45.1956L130.22 45.2301C131.152 45.3337 132.032 45.4545 132.032 46.0931C132.032 46.7662 131.221 47.1459 130.341 47.1459C129.236 47.1459 128.08 46.5591 127.545 45.4372L125.819 46.5246C126.613 47.7327 127.924 48.9409 130.289 48.9409C132.567 48.9409 134.138 47.7154 134.138 46.0413C134.138 44.4707 133.12 43.7631 130.375 43.4351L130.082 43.4006C129.184 43.297 128.546 43.1417 128.546 42.5204C128.546 42.0026 128.995 41.6575 129.806 41.6575C130.945 41.6575 131.808 42.3478 132.464 43.1245L134.034 41.882C132.878 40.6737 131.635 39.897 129.875 39.897C127.89 39.897 126.44 40.9671 126.44 42.555Z" fill="#FE7D11"/>
</g>
<defs>
<clipPath id="clip0">
<rect width="206.062" height="52.3928" fill="white"/>
</clipPath>
</defs>
</svg>
