<svg width="74" height="74" viewBox="0 0 74 74" fill="none" xmlns="http://www.w3.org/2000/svg">
<g clip-path="url(#clip0)">
<path d="M68.9996 49.8101C68.9348 48.67 68.4319 47.599 67.596 46.821C66.7601 46.0429 65.6559 45.6179 64.5141 45.6349H62.6367C63.2135 45.6349 63.7844 45.5191 64.3156 45.2944C64.8467 45.0696 65.3273 44.7404 65.7289 44.3264C66.1304 43.9123 66.4447 43.4219 66.6531 42.8841C66.8615 42.3462 66.9597 41.7721 66.9419 41.1956C66.8771 40.0555 66.3742 38.9846 65.5383 38.2066C64.7024 37.4286 63.5982 37.0038 62.4564 37.0208H49.0309C48.636 37.0246 48.2472 36.9229 47.9048 36.7262C47.5624 36.5294 47.2788 36.2448 47.0832 35.9017C46.8877 35.5586 46.7873 35.1695 46.7926 34.7746C46.7978 34.3797 46.9084 33.9934 47.1129 33.6556L47.1327 33.6261C48.1239 32.1199 49.7271 31.1378 51.3206 30.2943C52.9141 29.4509 55.0317 27.3038 56.1768 25.9104C58.9576 22.5248 58.8682 16.947 56.8735 13.5106C56.6441 13.0923 56.3285 12.7275 55.9476 12.4401C55.5667 12.1527 55.1293 11.9494 54.6641 11.8435C52.4474 11.4052 50.8986 13.2435 50.1587 15.0595C46.5025 24.0391 39.1951 27.0032 32.4625 29.7825L20.441 37.0208L19.9744 66.316L36.6509 71.2225H60.1494C61.2574 71.2391 62.3289 70.8269 63.1401 70.072C63.9513 69.3171 64.4394 68.278 64.5024 67.1717C64.5196 66.6123 64.4243 66.0552 64.2221 65.5333C64.0199 65.0115 63.715 64.5356 63.3254 64.1338C62.9358 63.732 62.4695 63.4126 61.9541 63.1945C61.4387 62.9763 60.8848 62.8639 60.3251 62.8639H62.458C63.5997 62.881 64.7039 62.4561 65.5398 61.6781C66.3757 60.9002 66.8786 59.8293 66.9435 58.6892C66.9612 58.1127 66.863 57.5385 66.6546 57.0006C66.4462 56.4628 66.132 55.9723 65.7304 55.5582C65.3289 55.1441 64.8483 54.8149 64.3171 54.5901C63.7859 54.3652 63.215 54.2494 62.6382 54.2494H64.6939C65.2707 54.2495 65.8416 54.1337 66.3728 53.9089C66.904 53.6842 67.3846 53.355 67.7862 52.941C68.1878 52.5269 68.5021 52.0364 68.7106 51.4986C68.919 50.9608 69.0173 50.3866 68.9996 49.8101Z" fill="#F0C191"/>
<path d="M20.5598 33.0595H5.84895C4.8278 33.0595 4 33.8873 4 34.9085V66.8072C4 67.8283 4.8278 68.6561 5.84895 68.6561H20.5598C21.5809 68.6561 22.4087 67.8283 22.4087 66.8072V34.9085C22.4087 33.8873 21.5809 33.0595 20.5598 33.0595Z" fill="#FE9F50"/>
</g>
<defs>
<clipPath id="clip0">
<rect width="65" height="65" fill="white" transform="translate(4 9)"/>
</clipPath>
</defs>
</svg>
