<svg width="155" height="214" viewBox="0 0 155 214" fill="none" xmlns="http://www.w3.org/2000/svg">
<path d="M121.306 214C120.981 214 120.765 213.862 120.548 213.585C120.115 213.03 120.115 212.199 120.548 211.645C123.907 207.49 127.048 203.058 129.865 198.487C130.19 197.933 130.949 197.794 131.382 198.21C131.815 198.625 131.924 199.595 131.599 200.149C128.673 204.858 125.423 209.429 122.065 213.585C121.848 213.862 121.631 214 121.306 214ZM137.666 188.237C137.449 188.237 137.232 188.237 137.124 187.96C136.582 187.544 136.474 186.713 136.799 186.021C139.291 181.034 141.458 175.771 143.408 170.369C143.624 169.676 144.274 169.399 144.816 169.676C145.358 169.953 145.574 170.784 145.358 171.477C143.408 177.017 141.133 182.281 138.532 187.406C138.424 187.96 138.099 188.237 137.666 188.237ZM148.825 158.18C148.716 158.18 148.608 158.18 148.5 158.041C147.958 157.764 147.633 157.072 147.85 156.241C149.366 150.562 150.45 144.744 151.316 139.065C151.425 138.373 151.966 137.819 152.617 137.957C153.158 138.096 153.592 138.788 153.483 139.619C152.617 145.575 151.425 151.393 149.908 157.21C149.691 157.903 149.258 158.18 148.825 158.18ZM153.7 125.63C153.05 125.63 152.617 124.937 152.617 124.106C152.725 121.613 152.833 119.12 152.833 116.765C152.833 113.302 152.725 109.839 152.508 106.377C152.508 105.546 152.942 104.992 153.483 104.853C154.133 104.853 154.567 105.407 154.675 106.1C154.892 109.562 155 113.164 155 116.765C155 119.258 154.892 121.751 154.783 124.245C154.783 125.076 154.35 125.63 153.7 125.63ZM151.641 92.6641C151.1 92.6641 150.666 92.2486 150.558 91.556C149.583 85.877 148.175 80.0595 146.441 74.5191C146.224 73.8265 146.441 72.9955 147.091 72.7185C147.633 72.4414 148.283 72.7185 148.5 73.5495C150.233 79.2285 151.641 85.046 152.725 90.8634C152.833 91.556 152.508 92.3871 151.858 92.5256C151.858 92.6641 151.75 92.6641 151.641 92.6641ZM142.433 61.6375C141.999 61.6375 141.674 61.3605 141.458 60.945C139.182 55.8201 136.691 50.6951 133.874 45.9858C133.549 45.4317 133.657 44.4621 134.09 44.0466C134.524 43.6311 135.282 43.7696 135.607 44.3236C138.424 49.1715 141.133 54.2964 143.408 59.5599C143.733 60.2524 143.516 61.0835 142.974 61.499C142.758 61.6375 142.649 61.6375 142.433 61.6375ZM1.15791 46.5398C0.94123 46.5398 0.724511 46.4013 0.507832 46.2628C-0.0338652 45.8473 -0.142191 45.0162 0.182827 44.3236C2.78298 39.3372 5.81651 34.6278 9.28337 30.1955C9.71673 29.6414 10.3667 29.6414 10.8001 30.1955C11.2334 30.7495 11.2334 31.5806 10.8001 32.1346C7.5499 36.29 4.51642 40.9994 2.02461 45.8473C1.91627 46.4013 1.48293 46.5398 1.15791 46.5398ZM126.94 35.0434C126.615 35.0434 126.398 34.9049 126.182 34.6278C122.931 30.334 119.356 26.4557 115.673 22.9929C115.239 22.5773 115.131 21.6078 115.456 21.0537C115.781 20.4997 116.539 20.3612 116.973 20.7767C120.765 24.378 124.34 28.3948 127.698 32.6887C128.132 33.2427 128.132 34.0738 127.698 34.6278C127.482 34.9049 127.265 35.0434 126.94 35.0434ZM19.1422 22.8544C18.8172 22.8544 18.4922 22.7159 18.2755 22.3003C17.9505 21.7463 18.0589 20.7767 18.4922 20.3612C22.2841 16.8984 26.401 13.7126 30.7346 11.0809C31.2763 10.8039 31.9263 11.0809 32.143 11.7735C32.3597 12.466 32.143 13.2971 31.6013 13.5741C27.376 16.2058 23.3675 19.2531 19.6839 22.7159C19.5756 22.7159 19.3589 22.8544 19.1422 22.8544ZM106.356 15.0977C106.139 15.0977 106.031 15.0977 105.814 14.9592C101.697 12.0505 97.4717 9.69579 93.1381 7.89514C92.5964 7.61812 92.2714 6.92557 92.4881 6.0945C92.7048 5.40194 93.2465 4.9864 93.8965 5.26342C98.3384 7.20258 102.78 9.69579 107.006 12.6045C107.547 13.0201 107.764 13.8511 107.439 14.5437C107.114 14.8207 106.681 15.0977 106.356 15.0977ZM42.3269 7.89514C41.8936 7.89514 41.4602 7.47961 41.2435 6.92557C41.0268 6.23301 41.3518 5.40194 41.8935 5.12492C46.4438 3.32427 51.1024 1.93915 55.761 0.969575C56.3027 0.831064 56.9528 1.38511 56.9528 2.07767C57.0611 2.77023 56.6278 3.60129 56.0861 3.60129C51.5358 4.43236 46.9855 5.81748 42.5436 7.61812C42.5436 7.89515 42.4353 7.89514 42.3269 7.89514ZM81.8708 4.15534C81.7625 4.15534 81.7625 4.15534 81.6542 4.15534C77.3206 3.18576 72.7703 2.77023 68.3284 2.77023H67.895C67.3533 2.77023 66.8116 2.21618 66.8116 1.38511C66.8116 0.554045 67.245 0 67.895 0H68.3284C72.987 0 77.5373 0.554043 82.0875 1.52362C82.6292 1.66213 83.0626 2.35469 82.9542 3.18575C82.8459 3.7398 82.4125 4.15534 81.8708 4.15534Z" fill="white" fill-opacity="0.3"/>
</svg>
